<mxfile host="app.diagrams.net" agent="Mozilla/5.0 (Windows NT 10.0; Win64; x64) AppleWebKit/537.36 (KHTML, like Gecko) Chrome/130.0.0.0 Safari/537.36" version="24.8.6" pages="3">
  <diagram name="Seite-1" id="sstNzI84rs2Q5gRcfi9F">
    <mxGraphModel dx="1434" dy="746" grid="1" gridSize="10" guides="1" tooltips="1" connect="1" arrows="1" fold="1" page="1" pageScale="1" pageWidth="1169" pageHeight="827" math="0" shadow="0">
      <root>
        <mxCell id="0" />
        <mxCell id="1" parent="0" />
        <UserObject label="&lt;div&gt;&lt;br&gt;&lt;/div&gt;&lt;div&gt;&lt;span style=&quot;background-color: initial;&quot;&gt;%name%&lt;/span&gt;&lt;br&gt;&lt;/div&gt;&lt;i style=&quot;color: gray&quot;&gt;%position%&lt;/i&gt;&lt;div&gt;&lt;br/&gt;&lt;/div&gt;" name="Mahesh Nayak" position="Head of PE for MAI" location="Office 2" email="me@example.com" placeholders="1" id="hO0VnFw-Ybn5bK7w-t2M-1">
          <mxCell style="label;image=data:image/png,iVBORw0KGgoAAAANSUhEUgAAAFEAAABRCAYAAACqj0o2AAAAAXNSR0IArs4c6QAAAARnQU1BAACxjwv8YQUAAAAJcEhZcwAADsMAAA7DAcdvqGQAADWhSURBVHhezZznd1VHuubnf5gOt9up7XaObbtt44hxAmxjMogcJAQClEASoEQGSQgJJCEJ5ZwzSIBQzjkd6ShnkWz3bfe9s9assbvvM89b++yjLSG87of5ML3W21V7nx2qfvW8oQ46/h/g/0anJnG9ogw3q6uU3aqptra6ldJu19bQag1Wg7I6tsrqUFZfr1qxcvbL63mO/YqGhkda5QLn/rsm75B3Squ/t1TGyFbeq7elHOutmpr/hmnzvlFVaWFRyX6FOi6pLNeMnK6Xl/L99fj5l1/wz3/9Cwri2NQUiivK1UPmP7SUrQxMG5wGTwZWVsfBs63kuXLj5DghATNrc4/lGtVvbEQVTVrjZ+pznrM+bwGTxZl7TJgci4xDWzzLsQWucXHFZG4yD21ubC1mnPvNal1A0teBCswygiznPOvmQhyfnuYFVQqSWkE+0Kg0fUDGgYvpk9cnrR/XNjaghudqmhpRy+PqpiZU0aQVq2lufsiqFzpnuVbdz+fpVtmgwbeOw9LXF0ItjLpu7nj1eQhUNU/LXBVAvTWAnDVNoTpMUWQl5/gQRLlYHqxeYHmJvqr6IPTBNdCqafqkjHB0GNIKOB3Ir1ltS8sc08+ptpnndLOc001/r/4eadUY9VbGx751/JZWTMG0QJT5CkCBqqtyYaCz7i7PngNxYmZGXaRDXEh1usmgag3g9AkspKSFzAhLwNS1tGrWqrX1rW1an1bfpvWN96hn8D5jazTrInJcMlEZsw7UOA9dILpZ3V1gLghw1gSkzHtBiPoD9bimD0C5kLQWaDo4o9U+dKxBsh4bQMyHJOAa2trnWGN7xxzTzxuhW59nOSd94xgEqL7Q1lBAk3lVMSTU0vQ5W73QAPJRipR4uSBEuUlfJf1FOkC54VFK09TUgtZmgrVMqpYTambbZDm2TtxiAk+soX0WWHNnF9p6TMoaOztV4C6rrUZtK5/ToV3b3NXFfuecBdBhqueKitkaYQpEvZV56GKQVjd93jpQHaquSElAxlYgCo+HIfImUZ8OTn+ZPhjdlMIscHSzTkQmpcOyTFBMJjdfbQJOgDR3dSuARTdLEBQSDN+Tx7HbbhfWrl2NjRvXwXbPTnj7euLwkcMICArAjYrbGnxaE++rNzxTN30cyhNaZscuIK3KFJsHcb5J9aFgWlqlzEdBnLxzR0lZf7C06oU6uPmw5oHS4phmDbQOqmehyemuKdAEQEt3D5q7uxCfkogV3y7D0396Cr/5zf/Eb3/7G/zud7/D72m//c1vtOPf/g7PPfMnLFv6Oez22uHkmeOITYrjwtfzWZ1o7HjY9WVctRyLPm4xHaa01nnSfg2q1d0FqAXkghDlQv1h+kuMAJUp19XANbJtVxA1lTVy0K3iopYJWKEZJicmE26lyza0t+Fa6U34nPDGyy+/iN///vd48qkn8fjjjyn74x//gH/7t39j+0dlf/iDdixwf0t7gtf89e03cdjdhc+5oUKA7u5GkGJKlTpEKrOO82hoatEAWqAqiDSBOB+ksDHCFEXKsx6CKMlkPjy9b1RgI/ttNFGaWBOto61VDbaVZoVnASYQ9VbFPZMJN6vKsP+APT5b8gmefOJxBeeZZ56mPYPnnnsWzz//LJ5++mn86U9/Uuf//Odn2H9KwXz88cfxxBNP4IknnyDYP+Ixnvvii8UIDr3I53cqdQtII0zlKRaQqhU3N8xTwbSYrsZHubl4rKixlgzmQJy6e1fFQ/3BCpzhpXUtdFH263mjvrqzsKTV+g1yLMqbb5bPJBkkpadg6dLP8BQh6ACffPJJBUrASfvss3/GM+w/xfPPE+prVOoLzz+H53j+WbmOcF/g+VdeekHdKyp9+cXn4ONzlGNt4UL1WhdOH6e0Kvyo+WhmFMockBaYAs0IU98RiRrlWQtC1B9qfJF6MU1PDBo4iylI2mB1k8HrJsfiYg1sb3C7dCHIHx99uEjFOlHZY3TJJwhS1CaAXn/1Zbz2yst4/ZWXCO/PeIrqe+qppwjwWbz0wvN46cXnFWQB+8pLzyu4ct3TT/NZjz2GF3mdrd12Jp8yLd7KOOa5t65K3WTOD8GUlqbyg0WVRnVKohFBPQRRLtYfal0xtvrL5wAUWBZ4rQLK0hdwAk2zbrTQyrl1vBIZho3r1+Ctv7yGPzM5CAgB98fH6J50zZdeeA7vvPU6Plr0DpZ/+gE+ePctvEpIr9ME3ssE9farLyjlyX3y2csEKup7hSbuL7BFlY8T5kabNSgpL7UokgmM42sxgpQSyxLL9bkqmAY312OlgNNbqyKpRnnGAhCbrOB009Un5YRAshoHpCmtE+2dEutEeTo8DtoCUF4UGXMVX3y+WMUzUZ/uri8S3HPPPoOX2Qqcrz5+D8s+fAdfLHoLKxYvwor338R377yKle++hm/feR1rPviL6i95/UV8+iYVS3gvWlxcXF+eKa4u8fIxLs6mzRtxm9s0ASlj0gTQaQWpm5qzDnEeSF2ZunvrLi5u3TAf4jQh1jQ1z1kdAWAshgWeCtgWFxFwzV2WY6v6LEagArjgxnWs37CO6ntaTe5PVIvAE3W99cbLWEw4e75YBPuv3se+pR/i+Iav4LTyM3is/BRn134G//WfI2T714ikhW5dhnNrl8Drm4/gvOwDbCDUd196ToGTxXlaEhATk7i1LNiTTEDOLk4KoiyoLPKjQIrpMHWgAlBa5d4WU65tUaKwsUL8L0KcuXdP3SQPE4jyMulrL7W4rgWkDmkONKuxcO7WimcBG50Yjzf/8oZlok8pE8W8+dpLWLf4HZwipKwDa5HruA4Fh2xQe8oW5cd3ocx7h7Jyr+2oO7kblT47UcHj0mPbkO+6AQl23+GSzZdwX/4B1r/zCl6loh/jIknmFhOQosY3Xn8deUVFaO81c2yStTWQRni6GQVkBGlUpB4XHwHxvpKxeqCoz2KNFvc1xrpWK7BZk5VupXUxmLfTWjhgcaWDjvutACXuvfbKi1j05ms4+M0nyHW1QYvfXnQFO6LrkiP6Ig6hP/Iw+qW9ehjdPNfqvx/N5/cqazxjh/pTdqj03omiwzbIdlqnYAZt/BK2H7+Jd1/4M9X+JOOiuLMkLC37u3kcoRr7NDV2iIkgNFEsBNKqSMKcD9KatQlRuDykRNnv6g9WqrMoT7muAVinBZpSnLQ8FoDdhNfabUJ7T58qpiWZfLb4YzxLNxOQf3n9ZbxDFz60agnKT+xGb5gz+sJdCe4QBqLd0B/lBrNAZCswTfy8M/gg2i7sR4u/AxrP2qPhtB2VSbVSoSUeWxTITCr58rblOPDle3j/5efxDN8lMVLVk8z+u21tmalNamzNneIl3QriLEyLl1nmbkw6eozUYVpdmrYAxPuKvBFeIxOGUuBDrqsljTZC6yJIKSW07Rsh9vSqGFTd2IDt2zYzi76IN157Be++/Rd8/N5bcF77BW6ftENHqLOCNSDALAD7o9ypQJ6L9UB/DPs8J2rsvuxkUasTlemApnN7FUhx7UIqsvDQRmQ5rUeE3Uo4LvsQrz33DDP+49ZCfO3aNQTSaoEoZY8GUlxbc++5EOeoUlzbokgrSKXIRt5LiP/85yzEO/cfqJt0gE2yUiphzKqwRSlPg6gfC8hWgUn31QGK65TcLsUnH3+oksjnn36Eb776DI4bvsHNs/vQFn4YfXRXgTUYfwTDSZ4YSfbBcLI3W1qKN/teGEo4pqCKOk2ELi7fEURlBjigngtR7rUD1902Id9lA917E7IZHkJsV2H1h2/jBb5X1C9x8dsVK+ieLRxn7xw1ihJnIUqymQfRosgmiY9Uo8C0ujWVKHzmKPHO/fvqJgXQEP/mm+7GArC1RxQobiJxkK2C2IcOBvG8a0VqX/vmG69i9YqlcNy+Dik+e9AU7gZT3DEMEJBAGk70xGiaJ6ERZNoJjGacIkRfDSjboQRPpcjeK67oDnFCT4gz2gIPEKItbntuR7H7ZhS6blQxMv/wZsQf3ADn75aw3vwrFr3zNp5nwtm5aychNCuILV0m2qwajUCtXmhQpECUL1Qk1KlkYyl/JDZKdfLzL0YlPqASCXEhcGKaCjU3FhcWcFYjPImBbYyF3VRiZ28fIqIj8R5deMknH2LzhpXw3rsJt4Nc0BFzDOZELwwS3kiKjwI5lHQMg3EeGOK54SQvDKccJ8QT/Pwkj31UkukLP8QY6qKs/SIhMsHU+O5GGUHePLpVU+ShTUhw3AjX1Z/h0w/fw6f0hLdZ3O9z2ItKJgJRoZiAfBigUZUC0QiynWqcjY96bFRKnOPOhCg3LAxQsq2mPum3s5UvTgVcj8CzgGyjdVCJ0oZFhHIH8gbWrPwadlvX4fzBLagOP4q+RF/0U2GD6acwROUptxVw0iZqMAdUPGQbK8dHVOKRBKRiI1267cIBNDHJSLauZjkkirzF+HidiSbJaSNc1nxhgfgBPnzvHdhs2IDb1VJ0M+EpNWrVgwaQc7S0s+4tapxbS8o3VBJXtbiogZRc8fM/je5MiOLKGjQNmBGipji+nKapTlOf1idMiYVUYrtJ6rFuBIcE46P338OWTetht8MGAa62qIryhSntNIay/DGadxHj+cGYyAvEeI6f5saphEoVDlKdA0wyA9ESL70JVwATPKGaY46iO+wQWujSTef2oZqxUUFkfCwmxEyq8eC3i/Ex3fmj99/hNvN17HWw50aiibViv1Jh60NK1BKM0RYC2dyiFeT1NNmYiLAecmcrRKvqNNNhSb9bQetRCUSASiufdVqU2NZjVoVtwEV/fMGEstVmHXZtWo2IY/vQHE8XzSbAHH+MZJ5Hf+o5DKSdwXD6GYxm+2E87zKmCsMxWRCGscwgurM/ptifvhaFkYJYmFOCUO7vguxjuxC6dy0OMfZt++J92HG3c2HHt8hx34oizx3w3rQci7gP//D9d7krep21qhOBtKtFbiPA9k5C5BwXAqk2CRb3FnDSt0KkWzfQreV71OpmiYlU4pzEYoXIh1oUqKlPAEoCoQtLvFMQORD2u6SvFKiZ1IfdMlD2/QP9sHbNSmxavwrbbQjRfRf6MwMwlBuAgnMHcGr3avhuXwGfHSsR4GCDWM/9yDzlio6Uy4QWjXs3U9km4X5pCqaKElEfdh5Jvu5w3boGm1Z8jXXfrsYnnyzGJ++/jSXcb3+75AO4bViOWJfNCHHcjE8Wva0gSoZ2OGDPeK+VOJorz00uGjzpG9Wo1ZLGJCPfm6qyRxIM3bpFQXxIiYZdicCzuLEGSYM3C43qs6iwy2T5jABFkXIu93oh9u+zw8Y131GNqxHgtBUhR+zgtms9bFYuw/rvlmLdquVY+/WX+HbZV3Cwd4Xdli1w3bEJFw5sx/UAL7QkhKIhOgDXzh2Co8132LNuBfZuXgsX22247B+MK5cvwt/bBe62W7B7/XdYtXQJvlz8Pl35HWzebEOIi9RXY2f9zjIJyJwenZ2NpsXG2UQj34PqIOVL6Ba6tWR75c7GxHLXokRNdZrpIBU4WrsKzLPH8rm0AlOH2CpK5HFZXTXc3J1hs3YlPL3c8M3yz/HBX9/AsZ3rVLnj52yHGF9XJJ52R9ghewTYbcKZ7YRNhZ6124g1S7/Ah4sWYfU3X+ODt1/HcVsbZHg74NoZZ1Rc9kJPTgr6r+WjPioYpQE+iD2yHz57tsCZSpWvyFwPu2DN6lV49eUXEHw5GB0E19YtWz+Zm6HopuLaDAX4rGmKFCU2MVM3K5jaTk5gihofhvj9D+pmkbwRkEATeNJXLst4p/o818VW3Fr66jO24tK9bMsb6uDp7a6U6O7uiPeojm3LliCQpU6Iyy6U+B9GSaAbivzdkO69D0nOO5B3aCuTwzZUnnKAn/0GfP3XV9UXFOu+/AxZPgdQcvIAco7sweX9O+C5ZxdsbTbBftMGeO7djki3PUj2OojLLnZY/O6bWPXlJ1i65BNVIQQGBXI+FhVyfu1KjVpykSSzMETNRIlNBCfflwo8K0S1A+p52J01yWtJRAM1C0j6AqnXCo4x0XLOxLZDndOys7RSc0ZcDVMxce1Xn+C7T9+D66ZVyPc7hCzC8Ny2ErvXLMP7r7+Cj99+Cyf2bYfX6uW4SnjlZw4g8OBWhNuvRU/QARxeuxRRrruRc+wAzu7aiHN0+dMOB7Bt5Wrs4ZbO124XNn+9FBf3bUGqlwO2ff0pvLevwV9efhHvMcGEXAlFR1+/8hQNoohDL3V099bi4vxYqZt4qezirG7N2Cil3ZzEcvcBlcgH6C6sq0+KZ2sCsZhSnCiSRXU7zXqO1sEyQkBKnCy6WYxV33yFpZ8sQhrjmq/9RjTF+CLUeTv89m1F3NEDOLFlFSId96HA1wO5Hg4o8mLtd94JFw5uQ2vkUQyxrEl0tMH5nWtQ7LsXBd5OKDnhjsqLASg5dwqpx1yRevQg4t33ItVjNzJ8HODE7WXuORespxqPrFqCrKAThCMCEXfWVGhMMppra/DmQpTvDfQYqZc9s/FRQti8mPi9eoBAVACVe86aAkVwAk1ac5+ZwHSI2jnNldkqiH2oKc5GpMcuJoUVaEsNhJf9enQlnUVHsj9akwLRcPUMqi8dR1dMINqiAtEe5o3eGB+UBbsh4Zg9JlJPs148ipqT9ji8bilu+bmg+cJhNPi5oTshHL2pkdxCBqAz8iQaI4+jOtgT5x13InDfBtwK8oAXk1je4e2o4AI2NdRzpyXz0kFaYqPMma0OVWDpEDXTkosO0wjyIXfWIeoZWMGyqEsZj/tosi/WQOrnBZoGUj7TPu9HK1/anRSARn9nXHLcgaHCCCSddkY4k0NV1An0pAegP+siBjKCCIOBP/4cOuNP4cblY1ThVrRdOYbx1DPojfREw7n9uLpnPY5tX4s0/+OsFX1xM/A47SiKg46ikHE16uhenLHdiOPbvkPF2f3cYh5FmPMulB3fz8U5jpZa7ljESwiys5PzE5cmzDZxa6sqZ80IUlOhDlBzacnSC7izBaKuOgs8a18AivqUAqXtV20nWwFp4ued6h4NYifrsu7Y0zBRIYXn3TCQH4GxwlAUBnog7sguhDltQagyG1x13Y7QA5sR5bwN8Yd3oi74KCZyLmEsKxiDVG4TC+ybHjuRuGcVUly2o+C4C5I99iBirw2Cdq1C2M5VSNy7HteP2aLp/EE0+jnjpv8hhB+yRcUpR+7X/dDG4rjNxDETnqhRWgGqjue4t5h2LADnArVka0KVvfXD7vw9IfJGHZ5umroIRaDROvsGNDOzT+viuV6lTM2NOy0QezvaMZxKtSUGoDzUBz1ZIZgujsKD0njcLYnGWE4IzAmn0RNxFKYob5gTuXNJPY+xlHMYSvbjziWCW8IwDKcEoINuXnXSAbkE3hTgirH0YAwlnIU5+iS6qdi2wENov+SBjkuHUH+GKmQouEYFXnKiEpnE6qL90cbaro1j67AAFOtUINmKMsXVrd/y6EC1du53kFp8FIgS5n4xQrzHEkdB1F1VlCdgpDUCNA9offMg46IGUQEmOLEe3tMl0PmsodwIjGcEMz4dRWOCHyaLInCn+CotCjPXwgkpCJP53KHw/ExxHEbSgzBAOGM5V3CvNA33bqXgDncug4mMocFHUH/2IG5770FnuC/GssMxmhaIwbjjaL/sjpaLhxkvHVF//gAqffchx/cg4+Mu3CDE4vhLaCQIVTkQotF0NerKlFJIYBmz96wSNTUKSB3iHCXOh6hB0VxXV58Gz6JEBXD2XJdcx3tEhXJvC/fQbSVpCmJTxCnUMokMFxDctUi1P565HsltXQTtCmZK4jGeHUZFniLcWIwXXMUY7UFZGqZLMqnmQNSed0bDBVfUnXVBY8BhnrvA/XcoATNRhbqj9SKTxwUnVPkdROXpfcg46YhE74PI93VCZnY6mjk3GddCII2mf3FrTDbquwS2etKRVuwhiPd/+FGtwiw4UR9VRcV1KXCExn6PAGMrINV5moDspXXLOQ5UPpNEc/P2DdQlB6M93Af1MecxTPecoOqmCfJOSRTdOkopc7LwKkaSzmCQKjTRRUu89iKP1hJxAl1XTyPbwx4Re2yQ5LAZhYyZLcEe6I87RTVewUiqH0wRXmgLdkUjlVjFJFR2yh4pvg6IIsCEwBPqj506CaidMVGHpWL3rwAVgFKhaBDnJhoxiY1SncxzZ0LkjaJCASbxTk8kWvzTgJkNEMXkuFuOxQiwT8Ef4HPMuFVViaLcFDQw81axFDHnXsZoYZiKjQJQlDhRwASS7o/hpFOMhWdYrnjhxmkXFte2OMEt4mWHrXBe+zV8tq3FZZYs15mUGgKc0R3uCXPcaQwnn0V/DCEGuVCt+5lI7OnC9oj33Y8Ib2ckxEeipq6emwFNhUZw6lg8xgDPaEZVzodpVaIxO4s7y8UaOA1gZ78GU7krIc2xfq1VAEWBlvMKpuW4qbkVOdcLUJoZjdqEAJgygzCUH4KJQiaZojC6dSjGcy5QVSdY0hxFS5gnrp9xRMA+Ftf2W3DFYRsC7TcjmrHtxI51OLF5Ffx3rUGG6zaq7QCqzzmqeNgbeYStC2qowlICLDxuj+hjDog5yd1RHl2Zk9Zjtg5R9RkDu+Sru3lwjaZnah2iDlLiYicZzYF4/4e/qZuUOyuIs+rT4t/D8HRwusk5/byCydW/VVGBa0VZqEq6hI60i+jLvIiR7ACM5wYygQRggG5cc9kD+WcOIs7dDhGuu6i+zchy34PyEyxVvB1RxxKpkHVgOMuYM1vXIHDXOoLdRtuCvGN2aA1iPAxyRPXZfbjua4tMJp/IY3uRyORSk52MDhkLF1aHqNvssebmxs+MIHWIRlUKSIE4151/+EHFsVmANL5YmShR4FkAmmhmdTykYEm/m9bH63p4LNeIS3fzc8mKzaX5aEwJRmOSH9pTzqIn9SxGswIxTDeuu3wUBeddEOm2G7Fue1B9wY3bPncUezmx7tuPm57OyHHeg+z93NLt34pkh424Yr8JQXs3ImT/ZkQcsMF1bztm7r0oIcACH1ske+9FlKcDEujOTXnZ9CiO0wBRWjk2QtPNCG8W4qwixbSSp0tBfCixyEO0eCjuaAFoORYgSm1sVZ/WQ3ACUFqBKOfkGsnavZKc2O80D8FcX4mWlIuojJPt3im0JJzEUOYFtEf5sLjehUSqLJS7lJBdqxHJGJjl7YrSE0dZ7x1C5XFPZSWHHZFqtw3+a77GsW8/w4kNyxGybxNCqNrYQ+Le9sj1tkW2126k+OzFFY99SI2NUIW0GpOMxQJSm5dmcjyryEeDFNPKHlGitl0UNg9BFCXq7quD1Aeg4A0YQLLfQzNZ+jpk3USRArGXcDtZItzOS0IZM3Rd/Gk0xvrClOGPZtZ78XTfKwe24jShhNtvQKaHA66d8mAZw61awBm0BJ5HR7AfSo+4IGXPJsQz2cTtWYcL277B+a0rEGS/EXHc6RQxDqYc241UWiKVGObphPTsNHpClxqbDs04RrFZmAsDXQiqUiMhCp857nz/R8ZE3qA/WC9rdDgKnMF6BocJcZgAh2GiDQhIObZeo/XlGqnR8osLcSPuIqpYwtRQge3J59CVeAr5nHAcY1slY2InS5VBZugBun1v7Fm0XTrBLZwnzQt1Z9xRzS1c7VknVHP3cs1tC/IPbUXM/k0o8rRDDuNggtsOJB/djUgPKvHCaaQXZEH+gkuNg+MxwptvGsj/nipFkQJRvG8OxAeEKDdpD527YrNgNCiqFYgWkNIKQNW3fC6m39vS2oGckiIUpEahIuYsqmNOojb2JFpifFB0wgEVfk7oiTwGU+xxDKWeQx+TTX2YF/JPOnGPTXd3s0fJKWdUEWAzk0iDnyPKffYg9/AWnN2xCnF051SWPrHcg8exjgw6wvowOQ63K8vVhE0DI1aIxnHpfV2NRpBGmAuDNDGJLqBEqe3koQu9TLmvgmUAaDGTteVgLSBl4NbnMPtVV9cg71oeSuKDURZ5EtWRPii/fASJ3OcWMrHUcQ/cn3gco+lnmXD82D/NsscbN88fVnVja8gxdIV7oTvSE62XDqOau5Kog5vhvG4ZvLetRoTzdkLchsusL0NDApFbUohWqsU0OGodk3WBGaetfYvp8xabr0odnLEviyNKnBsTCVFusk7c0uo2F9oIejk4aY3WSxsakmt4LKtvGahc287qv7C0BLn56Si+eh5VET4oveShSpE4Woq3A6qD3TGQfBIjadw/Z5zDAIvp9kueaL54hPtlH/RcpRFirb8zCjx3w992DbYs/VR9b3jVeSuCD27DRU8XpOakoaTitvbuoVH1fmlljEagcl4UKlDl2l8DaVSltAtDZJ2oQxSzrpQoT15qgKhADhnhzQ7SeN44YPPgEKpqq5F7LR+lcUG4ddkb5aHHVClywWkHLrkwKXg5oCzAFc0soDsjRHFHUXnOFZXcL1fRKv3ccPP0QcZAe1xmEvLcsgLbv/4CR3esRQjj6jkW6OHeLsgqzIb8tqZveMw6Huu4LWPU+/r4lFDYCrxfA/nrShSIvEmB082SddVL2Le+XB8Y20HCEQUOsm+W8zpMwwDF+gm6jXGkmGos5376Nt3zZvARZJ9xhtv2tbjI2BdyeA/CXGyRQGWmHtuHW37uuHnqMIpPH0K+z0FEHNwOf7uNakdzhLuXXV9/hrWffQgvQjzBAtzPdh0S3W1ZCaTDRIADI5MwD4+jf2QC5pFxDaqMTR8/52Kdn2HeOkQxI0C9/6vurGIiP1APE4AWUyB0eBZTyjP0jabOW0Aqt6drK9dhK3+KUZsRyqTiS4geyPY7BLdta7DPZiUO79yAkwdtEeiyB6Hu+5Do44r0E25I93VFqrcTAvdtg+P6FeofvOxWfaX+UH7PmmU4tnU1vLd8w8J7PbP1RqS62KO7pRUD49MKoNEEpg5SjVVgCkSLYOZD1EEaAT4SomRnqxIfBVCg6JAsNgec9IdH1Yr3DY1ZB6kgWq7rJszGvFh0xfmgOdobRYGHkXrcAY4232Id45vD5jVw3WGDs/t3wdd+O3x2rsf5/TsR6LQbJ21tYPvdV/huyYdY/M5fsOrz93HUZjmOrv0SobYrkea8ERd3rcKRZUtQFupHJY6hf3TyIZC6iUrV+HSQFojzYRoh6iYQe3jNQyWOFJw6RAFntEeBE2g6uH4doLjSsHadDl6ZTIpbpd7sSHTE+6Iz/jjKqMYif1dknjqAo9tXY82Xi7Fi+efqrx1sV36NdTze+s3nzMJfY8MXH+P9t9/Ap2+9ii1ffAAPwnP/bgmCd6xAhuN6pOxfg1NrP8emv76OdOfd6KurpBpnFgSom4xVxqaL5VGK1OOjDlHUKPXxQxDlQv0B6qGyOnyoEZwywlIraITI84MGiHpfv0f1CXGytRFdkWfQTnfu4M6lLsyDIN1x7bwTcn33IoE134kd38Fu+cfY8uWH2LBkEdZ+/FdsWPwubD56C07ffIJTG5fi6OolOPLdYkTsXoH0g+uRtG81otj3Wv4+1r3xHOKYZPoyItHb0YH+sYfd2mj6GHWv0edthGgEKfZIiHMSi0GNSk0CjtAUDAEnL9ZBGeDNmhbIldG1+xiLBOy9hkrcOuGIuhBm4DhftEZ7oebKEVSEeKDwnKPacSS4bkGCow0SGOPiHdYi2nYVQrd/C/9Ny+C77nN4rVwMz1VLcNX2O+S52qDAZSOS9q5C5Pbl8Fn2Ppa+/GfEH9wBU/JltGfFUf39dOupBQGKyRitEGm6gH4VItUo296Him39iwYlaSNEXYkWeAqKvNgCT2KLmLVPYPqxOieZkbFp1GQixArkuO9BhpMN+hK80R3njZbIoyy2jxCmB0ovOqPwhD1S3bYRxEZc3bsO4XarEUqXvcT9ctDmZbi4dTmi7VYi13k9bhzZghvyB/CHbBCz81t4L12ELW+9hIpzR9CdEoa2hMswFefCzPcPiCIXiJF65lZJ0KDGR4HUXfohJWoQeSEzji5nadVDDRDVy+YpT4doBWgZlKixl/1eSSwstqcba/F9ax3Kzh/BqRUfcQt3EP1JPuildUUfRRO3fi1XaZFH0BjiiqqLTqi5wPa8I2547ULR0W3II6wcwpOfXtzkce3pPag/bYdit82IpTt7fPEOzjBjm5OuoC0pAm2JEehMDkNDUTZauY/uJQQBqTK3AqqVQTJemadSoghHQFr2//Mh6rFx4cTCC+RCXYG6GgWaNf4JTFGjBaCc0wdhhNgjx1yQ0bY2DFeVY6a2HHcbqvGgrRE9SSE4xdhW5LoRveGHMJJ+Aub0U1SmJ/fPR5m5vdn3QtdVdzQFy175oNrmVZ2wxS2vnepnF7c8t6POzwGtF/arv98udt+EFLq0L925+KQbBrMT0JxwBa2JVzCQEYX2pFBUxoaiKikKdQVZaK6qRLepjyAnqNApteC6WHSXVrlB9tychw5RAOpqfFiJLLblQ3UjP1RmceU5arQo0ghPAVTwuJrywu4emJsbMUmbqizD1O0buCMQG6txv60Jd0rzEGu3BlFbl6m/vZafYoykn8RQxhn0J/vAnOILc+px9McfQ+uVQ2i+5IKmS86oP++AiuMspr13oN7fAS3Bjmj224e6E7vVnxxnH1yLiG1fw5wcif6MODQlhFCFVzCUFUOQV1GXREu4ipqYcJTHhqM6JQ4NN66hq6uLY6drU5kyF7VhMChRxDRfiQsmFrV3FiUSgtxkhWlRpQ7SCpMQFUBxVx7LNxpjpl7c62jDdFMdgdXgbn0Vpm4V0Qpwp64Cd5tqcL+9BffrSlFxxg2XN3yJW3TJTnFrKlBA6iZ/wz3MdpgKNScdR2uMJ9oi3dBKcK0B+zXz34/GM3vQeHYPaqnSPOd13B56YKIwB10p0WiND2NyuYLh7FhlzUkER3h1yQSclYIOKrIxNR7VPK6/lofW1hbN88STRI0C0RLWlBr7NIi/qkSVnQWgkOdN8kD1FZcO0qJKJXkBx+t6e3tham7FSF014dXj+64O3Kun+5Zdx52K65xQCqZLMnCnvhL3musIsRX3W+pgjruIWNvVyHNZTxD26nd96ucXidpPMMayz2HqejBmboRj6loYIZxHLxNRx2Vn9RM1ceN2wpc/gBegosZbx3ajNyUW44VZjIVX1F/adiuIcZgoSEVXWhQakqPRTICt1/PRe6sErRkpaEi8ilq6eU1aPGryM9FSU0VQjHlMoAJTARSzuLOenR+tRF6oJGxRomotEHuoPnloN0uG3vY29NNdR5vrMVpTgdGqMoKqwn0e3625peDdKSvEvbrbuFd1TSnzXks93blZ2VhBCkq99iCXNV6V7y50XDwIc5T2C6sB+RkGXXk0Q/4aQv5I/gwGEpl8wtzQdsmJIJ3QdcUFPYynrUGOaCHQKl/59+iTmLhWgKG8NLTEhzMzh6MrORzDWbGYKErDcG4SetJiMVCUD9PNG+gqzENbXCTd/iqVmYbWrFTCjEG1/DNrRjIab99CW1e3EpL6pw+LCvXE8giIlq/CLEqUG5WcZTXY9vUw1rU0wVxVisEbhRi4kY/xG3kYy0vGCFd7JCcB0zdzcKfqljo3mh2vgEpCEVNKJMAHdPmZypvoDPFlQtiBcs9dqGGsaw9yQh+TSX+MhwJqjvbAUJL8RM0XvXGeTELy8zRX9MqPKKPd0cXjdgJtDHBA3dn9GMpMIsRcFtl017hQdDCxmAhxkIllLC8R41SjKTGU4SEEvXkZ6MxJR0tsCNoyU9BVUoiu/Cy0UJlNaYkKZmVcBKrp7nU3itV/ZUX7N6Qh9e/rC9eJ874KUzcwJpjknwja2zFSW4UxQhsrysDotXSMclUH0yJokRjOjKZFEWK8ct27lcWYupFNBUVhnIO/U3MbdwSkBeJ9QhRVDqWGo+GcE6qO26OGMa3mOBVJF+1j7BOQA7FHFEhJPAPqmEqNcVe/wjITYrf8uorKbLxwEB2Rfpi4XoDxoixm4ki0xoWhmzGwVyCmRyk1CsS+1KvojLlAmJcYHkLQQ5c3ZyeirygXbVRie3YG2qjChpR41NOqCbOcqi4Tdy/OVz8Kkn+CXVCJ9374cS5EXtBPlx25fQ2DhWkYofsNFSRjojgH05IoGO9mbnPQ+YlKheMF6ZgmuLtVxbhbS9emK48S6jDVqCByH3u3qRb3uO2TuPigvZnPzIIpLhiN/o4q24oaa07Y0V0PqR/+yI8m5fd+I0wyo5mntR8MsRwaSTuufjQpwNtDXNASxhCQHk8V5mEknxBYyrQxqfQQoCklEkPp0VxgiYtcePa7GI97E2jRF9AbE8RqIJwqjoU5KwEmqtmUkYTuvHT00N3FxWuoxnK6fBmTUhljbk3pDcjf50h+mPMtjkAUukK5u9eMASaJ0Rs5GMxJxFA+XbMwHWO5yQzaGZi6mY+Z8hKVfcV1xwVuYSpmSosIsFypTMXFIiqWC3CPfVXiWCA+aGvB7aALCLNZg8bA8wpkU6AzGs/tRYXPbjQz6w7Ge2MkleCyzjMunsd4boBKNqO0sSyWQlF0Z/mJGhOLKSaQnpHJBc6HmRBEhR1MLPKXtH0pEYRId84RJaZwweNhir9ICyTACzBTjf28bpQimLieS0/LxEhuKp+XwrIoDqbUKJgYRzvSE1CfkajcuzwhEuXZTE700F/++S+jO/+o/pJU/iRugIBGr2XRMjFMCKPycrrCYE6Spjqem6Jr360pVVCmb+VTdQmYvJ6NGcbLey0N3N5VY5LbrWkq+V4tIbLEudPAxMPM3BgRgqgtG3Dd9SBqTjHmZV3E5DXuLkI80cAdiCSZwTgfKo/AcgIYEgIxWRCMifxAqimI587BTPduD9yPBu5mBrNTMcl6b7KEGZcZto3u15MYjv70qxhgRh5Kl5ATQxHQa2h9LLzNiYyLhN+XdBnd8ZdYSyaqeDrFWD9ZnMc5EmZ+Ovoyeb24fHwwy6ZItBdkookx9HZ8BOoYV9WfkfzXf1mUyMTS2tGJkYoSTJQwnt3I5UOzlZKGcuNVLJyk2oYpe4kvY3lJfGGOKp6lpBmju4xQtRPFBFkjhXUNpksLMVNNVxaji99jmdOVGI2cA3tw0+MQqs+fpft6ckKX+KxgDGdEctJX0RHigd4oL7rzGYxlBhCmP1V4ge+4oJQ4whJI4mUPC/EeuuMYs21nYhTaoumWuWkqFoor91OBCmBGhHr2SFY0Rpnw+qguM0H2xdKVCbEr6qJS4xjVOFaQobWFZMDEY6b79nH7aCbIXoaBTialnpw0NBNkQ246fv75/8xCvH/nDgZuX8cUJz51uwiTpQXsF2HiVqFaPZH5JGOhqHA4i7EuMw5jdHOB9H1Xu4qHstqiyOnSfC0GVpYwHjI+VjJDs+3ni0uPHGJh7M2tnPwFGPe3IYGs804zVlHJ3NnMcIs4KG4U4cPk4ovhhJN0bRbdiccxwqJ7mLWi1JKDcp5Km7pRhK6EGOQ57UX63m0oP+3LjBzFDC0qFICMiUxwQwpijEouA4TYFRWMvvjLXMAwbi8vcA8fxiTJBMm5jdKdBeYAdzTdsVfQx2vM/LyP1hnjrzJ+D2NwH0H//PPPGsR/EeLfJ0YxQkgTklkZ56bo0tPlnBRj2ShVOMIVlJgzTYWOMS6OcTDjjJOyIxGIokYVAwlxjOdnqm5rKhSIdPEhFrhN/qfRctEfnWHB6I4M5WQSMcqM2hsZxEkm8foKPGCxfrexHuN0qcGkYCqSUOTPkaPll/jnMJgahv6sOMa7BAxkpqI+9BJKfZipQ/xguhKI2jOeqDntiQ72h+jKw4Q5knmVz7+qKggZn7h4e8RFPiuSQCLQFR2oYuNQRgzDlVYKDUliYWbuIkRRrUDsTbrCpBTMLSkXhYof5LW/GCH++9QoRiuKMVFdqormaU5+svymShKTZcWEmKSC7ziDrySXScnSrBGnqV5x6QedrP0kWxekMfbQ1algSTriysMMwj3hl9AXxdWMoWvER3OCVHdhLmbqajDGZ/azMJ4qu6kg/mjuxQ99vQpqp/y9d4Q3k08IzPnZVFga2lO4+4iNYnHtz8x+krsfPpO7jv6kaPQnRvAdzM7BZ1g/nkRneBD34xGEE6viudSyI0yQ3TGX6e7RLIGoSvbNjKFDVPZIdgJdPhVmydAJUehlmOhnkupLuMzCPJRbSUJnph5gHB5mrvhFd2cFcXIM01SMwJMsqva9FTcJqAV3WN+NM5GMsgZTGYygxil3lTjKSphcmvC3gX5VUE8S7Li4PgO0JJlxqncojatP5fQnx3O1memZScepwImbxUw2dQTXSZeL5+RSmHga8SMBPujsoLWjO5pq5KCHbpSg71oR67kCmAvyuKA5Sr0D3PcOMWuOcKGGGAYGUmKosBgCiePkI6n6QO50Lqi2NyaE42BMJyQTXdfMrNvLbWB3Auvd9BgV7wXiSDZ3NkmxCqI5ORb9zPBtjJv1V4K5leS5dCYbJpwRimqOEv/jzowqiEWFkl3lG5cJUaKUJJzMdG0FJ81YSfeVzCVuMZqXQsVxS9dUR4gDnLwJ05WlBFigQoHql1LdJbynmFaUg3HWcgJPVDddfovhogI/9Pao7aK41wTv/cHUg+97uvCANlFWipGS6xgoKcZA8TX0X7+GsWv5KugPcnEE3nghn1vEmMyQMcwsq5nUhPGEFsfrYuiuETBFMxNfCaAnhBOEhIRY9DBxdLE4F2+ROCgAhzIY7xJjmKBYOzJWm1KiURcagMZQKdIZApi4+jMYtphE50D8x/QkphtqcaexVrnnDMuRMSaEe7JNo1JEbdOVtxkrWf8RnOwMVHLhqk4T9vfdXfj3wQEuQCMTkwZphsllmvvqSe5Bp8okzt5UUKfKbnAxinmeIPnMe63N6t5pKn+Y2XSGu6Pve7oJ14SJmhoMEp6psIDFL+ER6BjdeiRHgj89o5iKlp0KQY4yTo1kU+kc0yhjmoBURtUohcq+mfFshMmjn+dMmclKiT1JdOMcLgaVJRXGYMpVungYgTHscGEEYnXwObQzPpqYjOT6QT53nEltLsSpCUzWUokssmdaWzFdzxKlimVJewshdmG6pYWTI5TKMp4vV5AmrlMBzNYTrM/u8r4HBHmPe2sBPVVeyoWowUx9tQI1XcFQIYsgMNmfZDtxq4RQqViCFuX9rb9PAZBdx93GOszwWaNlt9FTkIuevByMKDVzV5LNuEt3nriez3cTooCkwsdY18mijucTJsuQEcYtpS4CGma4GMpMoOKSMcwF6KXCpL6UxNJLk+J6JCdZhYQexr1uibNU2xAXqi8tDrWhftzRJCsFDrC0GeCCjVMQv/xCiP+yKnGKZUkVZpob1XeCM+zLpO9yIuLOd+luAlUgisLuCCAqRqnrFreAojpeq+pDQlEQ5Xm8Tj+We6cqRM3s81kKJtUoQAW2ioVUvGzBpjjASV4/UnoT3fm56Mul6m5c52ecLCcgddzENYIkPCmOpa/VeNzbU4Wjebwmn7FX6j1OWimXizNGtzfz2Ez3FXCmhCuEFkrFMukwHg5InOQ+uZ8qHeG2b4wLZGa//soFDHPRBkuuMS7nYZjvFbH8IsW27FgE4n/ev0dQjYRGiIyDUjBPs0yRLwzudjAmUhkS4yakluNn4vYC9o5Ak6/BCEv2xKLI6WoCElAEpkBWU7miRFkE9pUypU+4GkwNrA5S6lSBMEGAfdeLYMqVyYvSspgwGIuoOBVbmbQmiguVEuVYEto4dxTi5lJBjHOzILAVUMJVuxAei5KGWQtKODLFXUJPXBDdndtDHosSh7K4S2PcFXGMMeyIGmsZS3u5jzYztIwwxg+JF3CR50D8j5lpTkq+JBAwBEaAMvF7zdzCEeQ0XXmytIQPZUHO2KXUSIAzqhwiVMbT+22tTEzVGjACl5VSQCvowoQv90tfimrl1gJQXFy1vF6SDcFK/B0tpBsxDranJ2MwTxIZi2TGNXG58SLupq6L+giO7bhAZExUShSXFsXR3UWJUjjLvaO8T+LlMFU1zGw+TLccZL3YGxUIU6QfyyLWiiyqVWZnKBizVA8TDDcjBFYfEYxGlmfyXeQwPxugSof4mQaR7iyB8X//4yeVXP7zwX385727+AehiouLQv8X7R93eMwy6B8syv8xPUHoU/iPuzPM6jwvfWZ3uU8d8z45N9tO8t5x/DQxru7VjOemaNLKNZb3yXXyvp/42Q/DQ/hxsB8/DQ8yXprwY38Pfhobwk/jo7QR1cp4fhpjX2yUn9H+PjKoXTfCPu/9O58j7b8P9ePvQ2aatANMZmYqvxPfm9qZxNrZ7+B7enie7xwd5ng5X+aKn8bH8KC3G3d6OtU7/077G9/398kJ/FP/Fkf+T0CKIv9/MtmOihmPjZ//vzD9HfPfNd/mf673Fbt//Qv/FxqltcrlX22LAAAAAElFTkSuQmCC;whiteSpace=wrap;html=1;rounded=1;glass=0;treeFolding=1;treeMoving=1;sketch=1;jiggle=2;curveFitting=1;strokeColor=#d6b656;align=left;verticalAlign=middle;spacingLeft=52;spacing=2;fontFamily=Helvetica;fontSize=12;fontColor=default;fontStyle=1;fillColor=#fff2cc;clipPath=inset(10.94% 10.94% 10.94% 10.94% round 50%);aspect=fixed;" parent="1" vertex="1">
            <mxGeometry x="660" y="60" width="180" height="80" as="geometry" />
          </mxCell>
        </UserObject>
        <UserObject label="&lt;div&gt;&lt;br&gt;&lt;/div&gt;&lt;div&gt;&lt;span style=&quot;background-color: initial;&quot;&gt;%name%&lt;/span&gt;&lt;br&gt;&lt;/div&gt;&lt;i style=&quot;color: gray&quot;&gt;%position%&lt;/i&gt;&lt;div&gt;&lt;br/&gt;&lt;/div&gt;" name="Rukmini Ganapathy" position="PE Academy for MAI" location="Office 2" email="me@example.com" placeholders="1" id="hO0VnFw-Ybn5bK7w-t2M-2">
          <mxCell style="label;image=data:image/png,iVBORw0KGgoAAAANSUhEUgAAATkAAAEqCAYAAABuoyfEAAAACXBIWXMAAA7EAAAOxAGVKw4bAAAAB3RJTUUH6AsFCh04rDSjOAAAIABJREFUeJzsveeWG1e2pfttFwYuHUlJVSpVnzNOv//b9O2qLkcZ2nRImDDb3R97RwCZTEqkRFJMCnMMEEgwEAaBmLHMXGuJi5/+b+Q9EeN7fERE4L038d54r316BwghPuj6fhlp/9NxvPux/NJ+fujv5WNB/MrdjB/gNH2q7+hTbOdLOt/3HYsQwHuc8xgj8t0XP+CAAw54eDiQ3AEHHPBFYrAEDyR3Dz69q/rr8FD284ADfg8M14f+nffjg+FzvODvjyn8uv38HI/vIeKhxKzeBV/SsdyH+3/z9x/zfcvGGBFCHCy5j4Uv/Qd4wO+LP+zv6z3u9V+cJXfAHxOCT5G7P+Bzx8+R/sGSO+BB40BwB/wSDpbcZ4mHHn/L1CPefCu9L+55//Z7cXixvw5x9zP59UP/ug54L9x7Y7vPkhPpn4Ml95Hw2xIM913Zv3pPfuPn3xdx7znsHuIe4hshiAiSYyHz693CkST6jfe8fq89i2/dgQM+MX6tiPvt5/yeFcYvLCb3ITOZHwrvt/3dskLc/hvuv1H9mnW/P+K9VRg/d2yRkJaPMRlaeVkhM4HH9LxbrUCMRAcQdpZcFMSRIOOwgdvH9N5XzLssf9dc/P3wpSYZfhXRxfvPRvqJ3bXZIjF+QSR3H4YU8sPH5xdev/+7jcSBmAD2LLK0rESQCS69e/vjIg68tvsxj/U/bzv+j3V+97/zz+/7/6PivSy5fN6+aJL7MgjuISBmSzMSR4KTDBYaCBBiJLXxlUi0mN4MyQIUJAtw5JXb1tvhjB7wvviiSe6AT4lEdLu4V46xiUR2+7kIIUTiveGNTHWRSBhWEu7mFEa6vHM3P2QeDvh5fNEk9+W4q5837sbsBqIbkygxLyMiQgqEiAhJfp0WCTE9RIDo42jhxbhnDw7W4LC+AYdTfMDP4IsmuQPBfTzc/m7F6K4Ob6engIiJsGIMEAMOTyQQ4/CcZSJSIKRCColSGqX0YOSNj7vOauLSh3GOv9TkweeM4TvXb6v5emj4kgjt8//+c2xt7ztP+5ysNymGzEEghvQI0eOcpe9b2n5L33f0fYdzjigkuigpqimTyZT5bMF0UqCkghCJwSfrLgRiiGOmedx+dn/3/djf8zv8/M/fw8D7fI9vWzbGLzzx8BDxOV4gg6RFiNsPSPvrvSfGSAiBmIkteI93Dmstfd/TdS1t29I0G7bNhrbZsm0aur5PbqouMdWE2WzB2ekZpycnzKYT6rKkMAajJBKBlBIlIOYM7X4mNo5ylwMO2OFAcgf8AlLcTAiBUhKlFFImPVIiOIf3Eecdfd9juz5ZaW1H17Y0TcN6tWa5XLJardhuNzRNQ9M0bLdbmrals57OA1Izmc54dHbGkyeP+earJ/z5T1/x5PEZi9mUSVVSmAKlFIikq/Mx4kMkhOwS5wSIGDMbe4h72dwD/hAQQhxI7oC3QOSAvwAhJIhkqTnncM7RdT1t29KOFlp67pqGtmnp2o6u7WmbhtXNmuvlkvV6Tdd1uN7S9T1t09F0HW1vaXqPjRFTFMxnM06Oj/j6ySO+/fZrvvn6MY9PTzg5WrBYzJhOp1T1BFMUSK0RQiFl+kHHKIlxT9KSngD2ZCnvgs9HDHzAb8OB5B483uMCjLeTBePn7zbcF8ktHOJrQkAInqZtublZsby54eLykouLS5bLG7abDW22ztptS9t0uD5beNbTti3bpqHveiIgkYQIzno66+ldoLWOznu83/L65QVKCqaTkpOjGWenRzx5dMrXTx7z1VeP+fqrr3j81RNOTk+ZzedUk0x4UiJEVqCEQAghH+FtstsdvRj//83v83Mhts9lPx4mfrUll+6Yhy//98d7WBujGSN2ZHeL8+LOepMiu6QCay1d27Ber7i4uOTFy1e8fPWaV68vOD+/4OZmRds02K7D9hZvPcEFYgQpFDHmdeQkQyJQBQhCAOcD1gdcAO8D1nr6viV4y3oN11dXvHr1mheLOT+dvODxo1OePH7Ek6+ecPbolOPTYxbHRyyOFszncybTCUVZorRC6uRW+5z8GN3VW8LiROKDUu/243YN7bvjt1ZI7Hci+JW1Tw8cH5JfxOWzv72xtl+7gXs/94mmdT0U/OJ3K+5X9d//uZ1bNvz9Mysea0b3ag5ABIQcNGx5+1KilMG7yM31NS+fP+Onn37k6fc/8q//fM+z5y+5urphvUluqbcOESNKSgptKE1KFhSmQEqFD46u7+idxYdAiDE/UvLAR/Ahpv8LHh88ITgIAUKqaNVCUihFVRTUVcF0WrM4mnJ0suDs8Qlff/MV3/31O/787Z85e3TG/OiIqq4RUuCcwztP8IHoUt2YQCGQexnakB74/JyqNwZR8+7154xd5vnu+/eJDz60ofK5Gj4Hd/Uzw/tfRr/GvdotK6UYixKSKDfSdx1du+FmteHl8xf859//4vun3/PjT8/46flLLi6v2W5abO/xPiBCQAuojEErTa0lpVEYk9xH6yGoIfvqCWEojUgblkKASuQaI6goCFGmDK1PlmGX44DrzRYpQBtJVRXU04rF8Ywnz57z/NVr/vLiJd988zVfffMVp2enzGZTyrJEK4VUMruxMDQPiDFyi77uvcO85yn53fA2C/KPXXt7sOQ+MX7pu32b3u/tltz7kFy23+JO5yZVepBLqrq+5+r6hmfPXvLjj894+vQH/v3vf/P82QtWqzW9dTifdGsipMZIMgaMiNSF4Xg2ZT6dYLQiEnHB0/Yd26ah6Xusi7gg8FEQEEQkAUEgEkTaB8/O2iNnTaMPkHVy+3XzkYhSgqoqmM1qTo+P+OabJ/z1f33HX7/7lr989y3f/vlPnJ2coHWyTkOIBC/wIVt1QpAapOSSC4ZY3u67ukOFny3e9jv5FNfgwZI74HfHWDovc8YUiNFj+0DbdWy2DdfXN7x48Yp//+cHnj79gZ+eveTFy1dcL29w1qGkREmBigItI0YISqWptWBaFRzPCuYTjVICF1JiQQVHVI4oPVJGFBIXJAFJyGQXBHjAC8YifyEgKoGIqcA/BDGKgWNIVqf3geAi265luWq4vLzh8mrJ1dWSi9fnXF1csr1Z8ec/fcPR8RF1PcGYEqlkkqHs3yNyrA4Ub5LC509wB9yPA8l94RjuroPDIgVJUKskwQe6zrLabLi8vOLZs1f8+NNzfvzxOT/88BMvX77mZr2lc4GIQSqVur6FgIgOGR2FFsy04WhimNeGxUQxrQRCRqz3FDhU8GAiMkQ6kvvqRI7FRYmPAgeIzF7JmksW29AgM9lXIocVJUiJRCILlazfEIm+xzrP1eWGdvM9l6/OefX8Ba+ePeOv333LX//rr/zlu+84PXtEWVYolZp0ep/IMhGd3GscED79CftI2BlZO/L+kqqEfg4HkvvM8P75tHeMtwiQ2S0TRIJ3tG3LxcU1L1++5vnzl3z/wzN+/PE5L16+5vz1JcubFZ3zCGUQSiWHLQRE9Kjo0MJRCsHMGI5rzdHUMJ9o6irp1nyE3sG0l0xKzba1NJ2n6QJtD9YLnAcXwEYxROiyzi3iAUImvBCTu0ra/1TcLxFSjTq+GAFnsdbi+wbbNnTNls1yycX5OcubG7Zty7ffNpw9esR8tqAoSqRMOY7RPR1Chnm9h3DLw8aB5D4xfunuGeO7aPL317FberTa7hTPC5ESDFopiIngurbl6uqap//5gX/+8z/88ONzXr445/zimtVqQ9t2CCRGJVeSGBDBI4JF4TE4KhmYGMWskiwmhqNpwWxSUJcGYyRICASsj3TWs20dq3XL9U3Demtpu0DfBzoEKkgUEhVjjvNFbAiIGBLj+EAMPhGhjFnqQnJfSSVfSkqUKZFoRNRI4VivG7abNReXF1xdL7lcLnl9fsn//p//4a9//V8cHyeSTE7zQLD7Epu9tlDviPeNTX2KWNbuJ/HHsN72cSC5B49ctRnvkN2oeUvPUiS5hPee1WrNxfk5z5+94F//fMo///WUZ89ecX29YrNpabseH4buIcmFFCJiFNSlZKIVE1MwLwRHteF0MeX0aMpiWjOtS6pCY4xKJCRiEv76SNs5luU2SUF0w3rds8VhbMQGcEhsiPQB+gA2RGzI1l6M+CEZMbZh8vicxACJEEkWkqwvQYwC5yLOdnTW4iN01rJabenaHmsd33zzDUdHR9TVBK0VwQuCH7YwFMaKOxbdhyOKzzVY/yXhQHIPEMNdOUZGhX/6+y2VC1ngG0OkbVpev3zFP/7fP3n6n+/54YfnPH9xzvXVirZzOB+IUSSpRfQE7yA6tIxMioKz+YTTec3xtOB4UrCYFMwnFbNJxaQqqMqC0mikTAQxEG6M0FtHaUwmOU0p1hgCrQw4BEFIXAQbRCI5HxPR+YBzEu9CqlMVkSAcLkZ6F+h9xAeJj4qIQkiJlDlzrAsKLREysN62dE9/4ma5Zr1ac319zX//93/xP//zP3z33V+o6pIgwYqAiENSQmQB8X6Pu/ss5gM+VxxI7kFjvxvvrXchpiyqUgqBwPY92/Wai9fn/Otf/+Fvf/t/fP+fH7i4XLJedbRtj3PJ6hpWKmKy3oyUTArJ6aLm67M5j49niehmFbO6pK4MZWEojMZok4r4s4ubGpcmQqi8x2iNUZq6MEyMZloamtZig8Qj8Qg8KQ5nvcd6h/NuFPR67/EEPJHOB7a9Y9t6Ohux1idBsZeEqAhIhBIIqYGAtz1N06TlfMoot21LWZYsjuYYY9DajAmJ4GMuDduFEIaWUsPrA9F9/jiQ3IPEmy7OrexZfi2EwChNiJHNZsuPP/zE0//8h3/8/R/8/W//j5cvXmP7iJQGJTVReoLziLjLwtaFYl5rTuYFj45nfHW64NHxjJN5zWJSUVcFxqixO0lyGQc9XlbC5ZhgjAGtNKUpmNU188mEzWJL03a01mF9SPlMrUAKfMwNAXyuWHAuk1zExUhjHTfbnptNz2rrWG8d2zbQ+4CLEHyOrylyV+FkYfoguLy6SW2eQuD4+IiTk2OUVBwfnVBXNUJKLJ4QB5f9LtG9vbzxQHyfFw4k96Cxq60Uo9xBJFdRgIgCZx1t2/Hq5Wv+8Y9/8be//Z3v//MDz16cc7PcIKWhLg2CdMGK4DECJoVhUhkWs4Kzo5qzo5rTowmniymLWc28LplUBYVJmrg0tyFr2gaxMRIyyQkBEoUUCq00hSkoi4LJpKbre7q+xzpHICKUREhJILdyCp7g90guBlwIdL1n3fSJ6NY9y3XPcm1ZtY5V72mcp/cQogSZCrmU0BACre1p+w5VGI7/+R+qyZTeev7ru8hXT55QFHKU/w7561sVdAyxzx2h7aQnXxruT3Q9FBxI7gFiX8AqosxRo4FQBEorhADnHJv1lsvLK57++3v+z//5O//f//075xfXtJ3FYzDC4BGoGIneI4KjLjWniwmPThc8Pp3x+GzO6fGE6SQlFQqjKbRKbp3azUUdx6OKYYLqYNNFYhicPolUAiMVUhuKusI5j3M93jlCzNUGQpDao6dHyEQ3EJ7zHmc9vfW0rWPdWJarjstVy+vllmdXW87XLdaleF0QEq8kRg6xP4l1nsvrDX//x1PazrFeNWihmVUT1CLFMmU6IPxgzd2aLbFHcCJp+EQ+Pw+b6+7rVrP/9301spHd7eDzwoHkHjT2Lbn0AxMiS0UEtE3L1eUVP/34E0+f/sD33//Es2cv2TQ9ShdIqYmIVH8KaAm61Bwvpvzpq1P+/NUjHp8tOD2ZMp+VlIXOrmfW3JH68wpyCcL4927k4FBFMDh7g8UnAaEUKmp08ASnCd4lQstkMgypTkS3I7iR8FzA+4CrA/Pasagr5pOKqirSuo3CbHtubLLqYoh4kdo8BSSRyLazPHvxmrbtkFFwtjjiaDol+MBkOsWUJRJyU863XMDi1+gbHwLeVmL4eZLZ23AguQePQdOVyEVKgVKpbrTtOl69esW///2UH374kYuLS5pti/egdXIbRYgE50AJqlIznxR8/eiEv3z7NX/589ecHk2Z1gVFIVGSRGYDoQ2vc3Ce/O+tYTZiiGHtZyYFu/hWlrgoiRCaEFLBf4hh1/hSJJKRIo5D0oUQCBlQPqBVRGtNWZVUkwnFpKaoKybzDZPrNS+Wa643La1zeJ+oWQiBlAYfAjc3G9ptQ6k0j46PmNUVwXv+/O1fqOoapMT6XfXD2Pp9eOPLZDjefmAPh+DgQHKfHX5tr76huaUQiUCc82y3W169fs1PP6USrc2mwfuIiFk8i0SKgAYqozleTHh8OudPT874+qtHPH50wmJeU2iZ6l1jIARH8B6iT+MDAWSEkNxlsX8B5Bv+MCNiPzOZEMflkr4tubpRMFZU7VuAQuT9EBByYT1SElVEaTBBYIqILgxFXTCZ1UymBWUpqa4lV5ueVetSmZpQCCUIIdJbh+085xdXPP3+B+aTGmMM88URi6MjlNzF575QNvuicSC5B41BsjpYJuld7x1dl7r4vn59wYsXr7i6XmKtR+sCYiI4RZKHlFpyNKv56tEpf/76jK+fnHJ2dsxsXlFWBiVFcjgDubYzjF050iyFFJsTMY0gTPuUrTcBQ8POu1nHGHdyl13rIwg+4INPMxtGEW4cyXLcrpRJ6iJiruoAqSS6UEymBUdHNYt5wWxqmM8Kfny9Il6sU/wvRAIqSUTy/jddz/MXr6iMYTqb8fU3f+LR4ydUUmULdbDgfv4mJB6WN/cz+DII/Q2S+6Btlg54b7zXGLa9fwcBrPOOdttzvVxyfn7B+etzLi6uWK82BJ8kHESBkgIjJbVRzGvD6WLG45Mjnjw64dHpEYv5hKoqKIph/mludIkkConI5JLUyIMVl7K8A9Hd2r890fL9EDmel17HuO8sib2JYUnLJyOJBCNjT7iYtX1SSAopMYVByQlGQWUUEol3EYJg0zlsSDG9Yeu9dVxeLSmM5vGTJ7w+v+Crb25SMwCt0VoT2U0nu3s2br0VH7KUZD+J8FCPYQf9W8npj0RubzvW9+sB9wG3PRg5ufheSIHvPcvlDS+ev+T5sxecn1+yWq3p2p4YBEqmiz1ZcIpZXaZM6vGcs+MZJ4sp81k96t+kSq5a9CHVeAoxlk4JMTBRFg/n+k+Rh0YPmcb8Le1Vauy5qbeuo3QMQgpklLlIPm8nE1wEZJQpDDhYeBGi2GViE/FJZIRpIdDHE0pjICqCE2iheb3ccL1pcSHpAoWUOB/ZNB1XyxWvL654+eo1X70+RxnD/GhBWZjc+DMR3X52NQ5mKLep4c3ZtA8FOXb6QPb55+ZHH9zVj4RP/eMYznHXdZyfn/P90+/54YcfOT+/ZLtp6HuHEBotsxWnJJVRHE1rHh0veHJ6zNnxgsVswrSuKAuDUjrNeoipNXqUESlVapc+Zg6yiZZLoQghu6o/d4G8aSWk/Y+5gaUkyr3W7iLc+iQkUo/siDAtmxoypY9FJIJCKkypUSjcaSR4KLTBaDXG2VoX8DENv2m9Z71pOb+85sdnzzk+PUGXBdWkZjqdIqREOHcr+bCbG/Gl2D4DHvbRDPHtA8k9YAiR/hl+hsEHtpstL1+85F//+jdPn37PxcUVbWvxLiBlinFJAYUWTCrN8aLm8dmCx2dHnBzNmE1qqqJAa5MILfuZEXJ2UxE1EHy2XkR2T0XOupIDawzmTY5h3aO3eku1gFQpuJiaAAcSYYZbnxWp+j+7r7uhNMmgirvlEhVSKsHZvMIozbQqKTLJKaW43vZsO0/vXSK6PrmtT7//kbquqCc1Z4/OOD45HhsdDBfQvlU64mEYP38YHEjuAWOcZB/BB0/f96zXa84vLnjx4gWvX5+z3WzxPqa8Z9asFVozq0uO5xNOFjNOjuacLGYsphOmVUlZ5AaZ4/CHRDRDwX/uT7KXEwiIHJeLUkBIqthBTrWj4aHjbx4Avd+Z9xYzZLc1yizAzaSSLaZk9A2iVDFSGSSXeiTV/H8ighYwK1QSIQvo+p5t1+MCSRgcOlwIKRkRBav1lp+ePccYxeJowdfffM18PqesqjxoW0EIhByfG4ZZP1y758vFgeQeMJKkIol5e9uz3my4vllydXXF1fU16/UGaz1SyJwhTTq6qio4Wsw4Ozni9HjOYjZhNq2Z1CVVWWC0BqkIWeUacyNJEfekvmOALTt9KTCWHdG9gqhMwmIXkMs6tTgW74+uXrytqRslGyJvd4yHx10ocGTTnOW9+7lx3yNagNLgC8HptGR1NKNzsLWRbe9xPhBkqsFtu56XL19D8BwdLfj666+o62TR1dUEbQw4h/dhJ3O5ZU/+EfF5HvdvJrnDDNbfB4LcZUSmHnHbZsvF5SWvXl/w+vKaq+WG1abD24hAo/KydZGtuNmE48WUxXzGbDqlqqs0oFmp1JYpsVt2yZLod6hAGDltf4f2w3TseGeXp8uZUzEsHEeiQ0Ry+5PREtrLV4zW4H7siywSTssIyGVtt76h/SQhMQ+rEZRaMq8LTuY1G+tZNh2rpsU6hfXp05119H2HkPD06fccnxwRoue//vu/+NOf/sxcz5FSpqYEQQybuPOFvEsD1M8X73dZ3/XXP4ZN+37f5ph4+LmsxLtiDML+Qcnu9zruVGIVCcGxWq14+eoVz1684vXFNct1y6ZziCApVEo01EYxr0qOJiVH05rFZMJsMqGa1JiqQhpDzN0/BnIbmmYmeQbsUrp7wfbhzzhcGJkOhUiPLO0YSCoS9zKyO8uNvVfiDmHFuLe9fYJLqeXEqkFyi20Gq08AIkf3YjL4ylKzmFWcWMfVquC61HS9I5D62Lk8tGuz7fj+x2cEPDera3rbUVUlVVWgdYFWiihFngA2WHVx5NiBKT6VnOTDTOv6tfsq7jx/LLx5LD93DR7c1QeIwSKKMfU7s13HanXD+fkFr88vuF6u2baWvvcoQIuAlAIjBaVR1IWhrkomdcVkkgLrZVkhdZL5DrWiaep8bj++Y59sxeWkQtx7HiQUYt9VHey4THSjCRhvP8TewOvBAtoX1Yrbsb1hD1LIcLe9e2+4OQY4kqMUFIViOhHM+4r5tGJWF2z7lHzoXWr5JITA+sjV8gbne5y3zOdzHj16RFmWHB0dU5YVQihs70aSk/LNYc6H3nMfAvs/iHfHgeQeAPbdwFTgDsRICB5nHdvtlpvrJReXl1xdXbHZbrHO4UPSrkXvQaWCei0FRivKwqRaz7qirmrKqiTi8d4mcgueXZ0q2b0UjOqRvQL6HVHtxcP2HnGI7Y0Hc8ux3TvSTAIDSe7r6faj+jGJkcNQwC92n95f2xjfywQ35mdzp5aq1EzqwCx3Nl63jk2XjlsASqf+c13f018uEULw6Ox7Hj16jNaG776DR4+fUGiBJeB8nzcgc5ndgdQ+B3x8kvtY7vkfCPfdv2IM9NbSNVuW10suLi65eH3B9dU1bdOmjKKSaARKgZYCrQRGCarSMJnUTKcTqqpCGzVmOmMMxBB2llncG6scI3GUrGSx715c7Y02RDkwt1/LMCQobv8w9j+3Fwsag3gDQw5O7H6say9AuDMERyv37voHWk3dWiSl0Uzrkvm0YtVYbpoeJVNVhRCpm4sP4KxjtWp4+eqC77//kel0wnw24+joiEJrIo4Ybd5HTZrduv91HC6C3wsHS+4hYbRsUka1bVpW1zdcDOVb5xfcXC9xXY+WgqrQaASVVpRGUhhJWSgmdcliMWUxn1KWBQAheGL0uwDbgLuFmHeuVZEJLozxsjv/nwkuyVECMabn2yvMtDkQXI5nxXGAzNCqaWjBlF/nDabmJHtESiK4oXX57a4hMTXRFCF3ThbUpWE+qZlNeqpNg2lEsoJzVhehkaokRMnyZsOPPz1nOp1wdnbG48ePMFoRvCVGl/V7khhl3q54w3U94NPig9WuvhVf0An+vTLJt0Sn6Q1iiDjnabue7bZldbNheX3DerXB2R4lBEprtBBURjOtCo5mNcdHc46OZsxmU+pJlWpTJYQcg9slG2CIgg1OZ9743nPcZT9Fjrux72UOtQ/DGobi/r2OJcMHbv1Ohq3mNcYd0d3di93y2eLci8ndkqOMRJdHNApQEowW1IViWmumlaE2CqMEVqZRjJE0I0IKCChW6yYV8Vcljx6dcXp6TAgOY5LlJqUc46WjROZLuggeIH5z7eo+7s3U/opA4eeMD5GNfh+8MWqQdOGFGFNGL5Nd13ZsN1uabYNzASXTQJZCCiaFYTGb8OjsiCePTzk9PWY2r1OHEb3TrO0ILhPDHj2NttCYJY2wLynJnxjtpdwmdyC69L/JkhtbtQ+ur9ijrkiOuaXVx+j3on7DhnYu834Gc0g87D+G/0o8mZMTSIQU6Egq3i8kk1IxKRVVkbqy9C5iY7Y5lULlTiWbpsO/ukBJyfHxgtmsxtqWR49Omc/nKC1Hd3nXWurtv4/f4sb+UdUM74uP7q6O+qYDfjXu+zHHELHW0mwbNpstm21D23TY3hKjRCmBUYpCCiqjmFYFi9mEo/mM6bSiMGqcBTHIOXaxrzu45bLuL7v3GsZKht1Hhhmocm9dIf19q0yLO8ZOJgdx+8/9TOvwQowbY7TkxFCZ8VYSSPstCWgZKbSgLjWT2jCrS6Z1SR96go34FJxDKEUUeSKYs1xdL3nx/CWnJwuMURSFYVLXUNyzrY9gyR0I7t3x0UnuQHAfBqNlkFuHhxjo2o6bmxXL6xs2620iOJ+K6aWUaCkptKTQirrQTMqCSVmkuk2RXVTkaNmkWlAYB9EMHCjirRrWvEP7O8c+O+6skyHxkF4n108Qg2cMvLEXcxsTB6MPnIr+xV3uzQ1CY+LKXSlXIIpU1RGDIEo5JlH2Lb60RQ8xZZwLLalLw2xSMZ9NmDeOzgv62BF7l8h6sGljite1reXyasnz5y+ZTmpOj485OzmhqsKYsNg/d4fEw++HQ+LhM8b+3Xro+AuJ4Lz3NG3LzTKR3HbT4FwqmpdCoHKGtzvAAAAgAElEQVT2sNCKMg+fMUqiVCq0H9oSxRhB5otwr14UMi1ll3Noc3RHo3Gb7OAWSQ5lVikBmkg0Bghiz+1NK9q5uyJVcoQokv5NJoGvjCG3U9qjTrETE4e04p2rKiUyRsLwvcWhKeeYXwXS91RqyaQqmNWB+aRnNrGse4/ubVo36WYQ86EJBN5Hmm3L8nrFzXJFs23T9x/ircTq3XN4wKfHgeQ+c+zP+BycvhBCdlW33NzcsFze0DYNIYTdkBmZSc5oykJjtEzkFvyYSY3j8JmBGATJldxVNwgRx2UGk2pfG5z38lbkbcgqJtLKn8wfimSCvaeL5hikF6CizNUSchQnh5i6kYwxwkzQUUREYPeekMn6HCoh9ghuL8KZbgZSUUjFREimVWRaV0zrnqrp8qjF5IInTZ4cXVcQWOtptx3NtqPvLN4Ggo9pFkYmtJBvBDK3bT4Q3afHJyC5u1qoj3GSvzyX+G2hsXHQcRYCd21H13VY65IVwZ3g+x7pSSWQinFOwv5DCgEizX4YiS8nF0Z7ayApEYhDp5GcexhKUNOODm5udnWzexmDwJOOwYchfrfb15Q4iLu86pgMkWl70ZO6jsRRujJ8HyOtDtalkCPPRpG6Gg9UvMvdJgLWEgoNVSGoS0FVSkojMUqMM2PHcyAFIqTUSdtbVpstq9WGzaaha3uc9UgFSqfvU+TECTnU8OaJfsv7Hxy/ZhufKyG/636lH+QHqV395W0NP6uPCPHQiW73/QyRo5EzhgttP+Cf2/x479N0+bA/ym+3nhADPnoiAakE2mi00ajc9VfKpM6XIinNUIkw5NBRJIaxNVwEosokK0jZT1KGN4Zh7gOjNETk3nXjwEQR8DHgQ8CFoYWSTN1UMiEPRqBMqdVRnBxEzlmE3GJ9mKKTLcIdyeWfQkyZ1SAzwe2FAGM+nqGKQoqAkgGjHIUOVCZSajBSoITED3SYbwTIiI+RputYrtZcLVcsb9asNw3zhcUUqbmoFGleaxirRnbxub3cySdIInyuZPVr8P7H8gkqHn4+hX7AbexbTftsJTKJp4ve4Z2l7zvapqFtW/reptbc+SMhRkL0eB/xwRGJKJ2ygEVhMNpgtEYpiRKSIdGaPhxSHabP806jT3Gp6LJg2CeiYZizCkoNLLJHdMMhDOQ7VEyotF0pDVKbLPXwEB1Dd99ERpk4cwJi6Bg89Ikbthb3TdK8fBQ+JSF83ksRkqU7NvPcg4goEdE6UpeSSaWZlJrSaIyUY4Z12GAUqYlB0zlE9Fwtl1xdLbm+vmExP6KupyghkErtqi72kikfKeF6wBtI3/kncFcPBPe+GLVd2Wobgv8xJovJW0vfdTTbLevNmvVmQ9t3yQVkILiQypG8x/l0so1WVGVJVZaUJpGcUSoT3GAdOrxzuK7H2T5PzUokF4IjZiJSIqJUivtppVHKINhpxIarOIZsSWVLL0qF1iVCl5hygilqAFy/xXZrgusJPt7Smu1bOmmi/ZCBJbvGKUuKyoQYBsILOT4nESETPoGxPIM9H1tEtEpSktmkYFqX1IWm0Aobwh43prtBCAHbd3jbcn19zfnFBefnFxwdHbE4PkIIgZISt1fDOj7vn+sP+Ls54H4cEg+fHfYsttwBJBl1KWUXvKe3PW3bsN1uWW82bLZbur7PQ1YSOQTviWronJssraIwVFVJWZYYk8TCEPHOEZzF9h22a7G2x9s+vZ9HAyar0OJ9TwwemUnOGE1VVlRlhdEFUhkQCoZsZHZnfUiBe2k0upygyynlZI4pa4iBfgvR91jvGAbFxOAZBtkkQy1lf2Ou+EjHuZOI3LKCGboYkwjPS8iykbg3USxhKP9K9b6VMVRGU+SbgMoJ59wfGUG6kVjrccGyWq05v7jk5atXnJwc8+jx41HuM8Qa37AeD/hkOJDcZ4N453WEQeYhcmtxIs57uq5j22zZbjdst1uapkmtfnIwP4QkMQkehFEoKSmMoSzLTHKp+69EEJyl7xraZst2fUOzWeFslzIKg9QjhtzxpKfvW7yzxOgRAgqtmU6mzKcz6smUsppgygqpNDEKQgQfA86nuFghDaqaUkzmmMkcU9RE7wiuw2mN6yEEh7M9MYaU4ZQ5gQLJivLDMTqcS48IeSyjZGj1nkJ2YuwIMsTswlDQv3sil7mihMQoiVEKoxVaKZQM+JQx2Z2ikEvrrGe7bbm4uOT5i5ecnp3yp2+/xTqHNmbc/t1sNPvu9kf5PR0w4EBynxFupwzi6IqRZRfBe5yzdF1L17Z0fY9zPpV35QhWjAHvAk5EvIoIJEZLysJQVwVVWaCVJEZP31v6dkuzXdE2G7pmQ981EB1Kijw5PhOngOgFWqYL1rpk2VnAti3tesNkOmVxfMJsfoQuKxCJ6GIkZzcBKVGmQJcVuqiQpkjrFmIk0+CTzCXlMFVy1X3ABkfwFtv39H2PsxbnE7kjSNPFlE4xucEpHGN1yTpOyZBkj40C4uyCJhcTtEyZVSMlWmbpTgxj9postRFCIYTC+cBqveH84oKLi0tWqxVt12GMAeJYfTE+2NMcHOJzHx0HknsL7st4fSyN062OuQPVjQSX7/YhJsvF9uNFPsz+FEoiZCqhCkSi9wg8QYOUZXJTy0RyZaGRImL7jr7r2Gxu2K6X2L5FRI/REq1KikKNY/vStj2+dNi+oO87mqah3Tb0XcvNZsUyLJnUE7wPSKmpo0AaEFKnY8qSDylFSnYohVBJCxeye2qtxTtL8LuebjJLWRK5N3RtQ9umZ+dcbomUgvxKG7TWIGUi13TSRgKTIk2FHSQt5C3ErAWUMqBlqmctVO6oLCUKUobXp2qGZBnKNNFMCJCKbdtxdX3D5dU1y5sbtpsNZVFgjEZKNbrgb/y+3uE39Sl/ix8Dv/f+H0juHnzyusBBf3Y7sjQm4saEQ3bPrEtdamMMCJm7jRiT3VpwQ7tyAcYoqrKgKg3GqNQrzVm67Za2bXFdhyC5nUrqTHKCQqf61xgjweWZqhKCiigVMSrgTRK/ut6nzrnOY/uUFFHaoBFIlS2XGFI8zFu87XB9g1AaqQPedXjbjXHAGDxiSLhk68f2Pc12S7Pd0PUt1tosflYorbOruidEznEwH0JOniRtnSRlaZPVl8qv9qU6WglKragKTV0W1FVB0TmkzSMYiSQrDpQpUCqVxPXWsV5vublZcXNzw2q1oqoqoMaYNzsW/+aL/JPp6x4+DiR3Hz5VoPhuGO7uH2L4K8fEvMN5m4PyqdV2IjmFKQxCaYa+bSJ4lFFUVclkUlGWBVpCzC5vu13Tdx1SCmb1BK1EHnZDloUEYkg6POcj1gZ667F9wFrwQSFlRWEk1BJvLMZoEArrLLJvs2xl6LGW42G2pd/eZPfPo4sK7yyua3C2wzvLrng/psqM4LF9l0lui/Muu6cKYwpMUaB1Iq00KzZbiCFincM5m61EBz6NLSyKkqKskHpoIpAIUCtBWYhU5jWtmW0c686z6hzCpppbkcXVQhiIEknE+0DTdqw3W1aZ6KbTCUqpZLUKkRNDH6iO9UBw74wDyd2DTx4M3nNV998cGkTGkGNVOdM5aFIjyVJxPsXlhnhRct9S5nOSi87rqkQKQfA2NXj0DkFAS0NpDForZCaV4Cx939O3LdumYb1t2DYtXdfT9w7vUnxqiGyBR8lIFJKut+imS0cTPNqYdJEjESqAk8Re4UXEEQh9myzUbrOz5LzPCZdUWRGyLjAV9scsHM4uqpLjI5GcRMpEeBGB9g6pBF0naZtA1yU3v7cO0zt0oTGlRJlBGC0xOlIVhmldMZt6qq3FqHYvfLBnLSIJ+WbQdj1t27Ft2qxd7MfGnQwSoH2SE2I4+cPP4ICPgAPJfTa4S61DoNqPBBdCKtBM5Vmp80ZvLW3X0VkPIolPo0hlWkVhmE6nzOdzJnWFFHEkC60lQhgKo5MVJCC4gOstbbNls16zurnhernkYrlkuVrTth229wSfKgC01ElCUhkmk5LpZNClJWIK3lIUaf1aaURMsyaEy1UDweGlTm5usx3jcUm64hA5URBjek8KgdGakON1Qia6CSFVUQgRILut2qQkREmaY9H3PSshcF2fyuDankiDKQyzRc1U12iVRMdGCspCJ5KbBOqqRSuVs6SjeZ2aDcRI9IHgHL1N8yCs7VO80PtkFYtdd+CB6GQOLQzhCHg7yT2k+NvniAPJ3YO3xeTuczU+SPxOMA5Kvq9SgKEUSCTZK6TAus/uWG8d1oWcxSPr4mSKx1WGSV1Qlmkoy9DSSCa/FKlSfMk7T9c0bNZrbpZLrq+uuL6+5ma9Yd00NF1Pbx0uF6FHD8QeoxV1XeJcxPuksw0h4FyyvnxlKIsCTIFA4JXGuzTwJShHROGDJ7iO6C0h2KTHc5YYXM4qO6zt6bp+jMWFnJaMwiKkQmuNKQqKoqAoBaVQGKFSlYdObmxwPlmhSPx6S9N2WO/QhaSoCqRQGJVikqUR1BXUlaM0evxu45BEAcZBPzGMROtDGlLtvU/7KHZ6vTu3sNEy/DV4KO2bPoe+d/rN/PW75LR//x3/LfgtX/yHPGlxn9BEzvqRSG0QAQ+pVilEcvukJESB9dDbkAnO4RwoxUiGSkZMnulQVBpTKKTOfeMQyChHdWvwqdB/uVxyeX7J5eUl5xcX3KxWWO8R2mCqGl0Kghd4F+jbnr61WBcRrUcIm+Ui2b32nuiKNCnMg4gKKQNeeZy1ORmRXNw0j8ESYyK24Hu8SxIR7yzOOfoukVxvHdZnIglDoX9KvlRVlaaP1ZZ64qlqT1WVFKVBSc1kMkPKAlNUhHhB1/d47+h7S9dapFAoUaCUxphAWUSqQmWrNwub40BQSX4ix5K3FG8Lcag42SUYhNy1r7qdWrqdYX1fynqfrOWvzXD+1m18DrjHkhsVPJ90R/5o+KUfROoCks+GIJUmSUkIka53NG1H23Z0vcVah/MSIXNdxGDNySG7aihKk4PzSUQRstDYWUvbWTY3a169Ouf16wvWmw02CMrJgmlhmEyneb6oxOdsarNtaDYN3loEMQlojUBlTZvrPVY5tFZoFdAGdBD4CDIxAUJ4kKnGNkSXnkOqqrC2xXYdfdfTd5au7+k6S9enuai9i/TO03XJko2kBExZFFR1yWw2YTafsFjMODqaM5nUGK3H43AuNS3o+g4hBH3XI5AoodFGjplWo9NDqaEZ5/45ircE096nxzBEZ9AGZrrbP/u/2ZI74N2h7/+q77PmDqT3IXDfzIY3FxqKh4aaR5naIzmBD4G2bdmsG7bblAxIM1YVWudLJ69XitxPrjSjZkvJ1HpcCZcmfm0b1ss111fXvHx5zsXVNQHJ4viEo9Mz5vMZi9mUuioRCJz12K7PJLehaxt83xGchehABJSMKJG683on8F4QoiBESWo+qYhIhqaaqWQqzVH1MbUXd31H17a0TUvb9rRtT9c7ut7TuUhnI03nWG9bNtuWvnc475ECysowm9UcHc959OiEr5484uz0mPl8xqSqKMuKk5NjisqwzfHHpu2IIaKVIgpFDCK3RwejBFqn5Mbg7kcGiQtAzO5q7gqz1xFmeE4ncniILFg+4ONDJEvu3UTXhwKUD4kx2JxjS/v289DtdheDC+Oy3qc+ctam+JRzLmdXITiP0inwXmhJlWtV67qirAq0lIihLZLz2LZjdX3D+fkVNzdreg/V5AhTTTg6e8zx6Sl1XVHoRLIygjRpqIsSKUDvSo3rdNK5+T7F0Ugi5XF/XSqOT0H3PZHuHkQ6wNEqCiHgncNaS9/btI4QCUMs0qeHD5KIBilQ6BRfDLDdWkJc4Vyg7yybzZZHZyc8OjthOqnQRjOTE5QSONen2t/ocd4iXU8IGimhMIrCqNxVWeDCXvJgr1XMOFtCSbRSo6RlV5y/W2Y4lw8hpvYl4JB4+B2xs+T2BsBwW04ySPbSZK6kuh8yremRitS9By8tWmhMMQyQrphOa+rJhLIskT4QbE/oLbbpaNZbrq6WvH59Sdt7qukRJ1+dUU3nlNM5uihxwdOut4S+RcSIFrlpZUhaPSkExii0VMSgE9nGLKuIYawt9d5lnVgYihBuSTJEzNUI+dBTKRh4n4vwhUgCYwGagAoeExVTWVBVs1yBkFo4ee/o+gbnOtarVNu7XC5ptpuU3Dg7ZjKtMEZRloaqKug6nUTDeJzrCQK0MpRGpZZLOtUAC+FzV5VExkOncyUlRmsKYyjKlAAZmiAM2dV9khvO/4HoPj40fNzSud9rVunP4XPZpzf3YzdwZdfyO2nD0ttDN46k59q3CgbpRVSppXdlkmK/KgvKwqCVJNhkBSYXdcXqZkXb9gQU0hSYaoau5lgMq+sNTX+F7XtC3xFcD7kSQRExMmIkFAqqAgpDklkogQgp2eCyANdai+2TINf4Iov188jAPTLPR4P3AWsdvbX01mK9J6KQ2lBoBSoidaQOAoRCCYPWhqIsMTqRVdc3tO2WbbNmu1nTtz3L6yWlVnjXc3J2zHwxRUjQ2lBWRXZ3U5mXyK2XCp0zrjLNg8gtO1MSItvZIieFCqNTvz5jbhHcYJ/fJbndOf1wV+D7KAB+adufXGXwkfBJLLlPPav0XfBrfljvtc8x/qxzPxDc8Bz3P5fdNeeSnEII0FqPmbpBRS+lym5hasHkhSMaiZaaqjDUpaEqDIVSSATO+1SvulpzdXXF6maDc5GqXuBlgSymNDZys7zh2avXvLq4oLcOLSVKSoKzeGuR0VNqwbTQzCeG46Oa40XFtNIU2a1Lx5G0Ys46+r7H9D2lq3JiRDLORd0LQYZcp9r3QzY1kZxQikIblK4wSCZRIKXG6JLSlKmCoagwxqSJYHj6vuXq6pJXr16wWi9xvePi/JK2a1JLJyJVXSKkpKqqHEsLY18+iaDQIsXkRCY0BqKTpGbuZBExlEWOfRYm6/R2E212papv3mB/MQn1nr/V9/md/trr8Pe+ft8HB3f1I+GdfgKDL5pdwFF+FSH4NKzG2i4vNmTvdsLgMMoWYtJnOQchxZBmk4rZpKYuy1wknrp8OOdou55m27LZNjQ99DHQh4Dfevqw4mbb8PLinMvrJS5EdFGitEk6M2sRwVPKyMb0bDrFtu9YtwVH05KT+YR5XaK0QGk/Wm0xxLEZpsq6NqTI1Q27qo6xPjd3GPEhWUxKSpAKZQxKFWhlMKagNBVFkf5OowBzayWpk/UaUrF/XVdst2v6vqFretarLWVZ4r1HFwqpNFKlVlYxD62JCLRMMyC0StlWIRh72SWCTu9JkbV6WmNyo4Dk3g43s+HcPhxy+FJwILnfG0JkvVh+zk5bCEne0XUDycVxSldvLdbZvUxeKu2SUQAFVVGwmM84mk+Z1CVaqbEywDqfXUFH0/UsN451G1n3gdZC6yOtdTS2SyNstMJJhUMlIR4KGQIeRxc9sXM03ZarpedkXsM3j6nKMjcNKHIxfNL3QbK+dK43DTHifMhdTkJKLjiXyS2Xqomhn5yC/FAmWW2FGZp/anyI9MNAn5hnS0gAxeLkjMlszs3NNTfLS6zt6DvHzc0a5z3TWU09qZBKpClh0QOKSGo2bJQYGxdIkZuA+qEBXbZKZczDgmTulpwtbcTezSu+QXKHmNzHx4HkPgtkSy6ZCdm32UmFhyxlIgKXrbnBkstJyRAIeARQVwVH8ynz2ZSyMKlky/uxBKztLW3vaNqeq+s1r29aGgeqnFFMpkyqiipOsN6y6S3LbU/Tp9rNUhsmhWYymXNUFxgc7fqSbnPNZp2K02elIdYlRgq0Tq6b0UWaK2FSzEprg3VDF+CQj293bIMFKJVK7rIpKIoSpQs8gk1vuWmTpeddIkhnA9753HUkNf1M2rjUnCDYiFQlRbagu8YihEj7VMSkRSQP1UECCi0jRqXkQ2EMQnp8cDgfEHJ3UxpuQuNwIT/UGu/6yA3JIngzCXHAx8OB5H5P3Lqri9stuUXK2Cml0wULYzZ1cJUGOUYcVhUjWkkmdcnRYsZ8OqEwhhhyTWouHm+6jt462s5ydbPi5eslThie/GnO2eNHVJMJiEjbt7y6uOTi5jnL5TVSKI5mM+b1gtPjBd8+OaOSgctXkgvfIHxHt9mwKiTCTZhPJ5STmrIoMWVJVVWURZmK9qXCCT9aRamTce7SQSqFUkqjiYQoU7cRUxClYttblpuO1bZjtWnYbDus9cmiigLvPZ3tCMFjjGJSlUyrgqNJyVFtqExNDBZnLX3r6CpLUfmx7lYgUzcTFFrFPLu2oDQGJXt8CFjvUy2rEGkSWC5lS+VnHV3XYvtUiztYbwOB353BercN0wEfFvr2ZcYodtxrjpAx3rN+80Y/ysmMozJzD7dV5r9p9XFY37uu5311hcP3PrTySU0gTa5MEED0IScBNEqltkaB1GIckYYaF0Yym9QsZjOmdY0UEmsdbdOy3TY024a+SwNqhBQURlNXBT0aISLWdsheIvfiWTJ6pHcIPLFvcI2kXRdsK4EoJDp6FnWJRrOYVkzLMjXnVCLNY9YKU5UUdY0uS4RMrmDwQ/mXJ+TOJsRkvRmjUwmVizgPvfW0dk3nBaum53rTsek8nY9YDz7KVDvrU6lb16cWS4KAUVsmheZkVtEuauaVRomAFGm6Wdk5+rZPWVKtEErlebXJQ9ZKpAaaWqCSoG+sWUBKQh5A7Vyg6xxN07LZNLRdhw9+PL/7Vt1+1nX8xXwmWf8vDTqKXdHJqNoaqrz33hNx50B9iBq7n1n6Pde+/9E7eybGf26t9ufznmOdwZtLx/33f3Fn3nG5YfEx/ZYrHDSmINc9emT0qBgoTZGtoRKhND6m2Z5CQKGHaVM18/mMqp4Agra1NE1Hu23puw7vHEpKqqrk7OwYXdc0NuIlrG8uWW+GVkWRvtlSCliUhug92nW4jWMZGsTmgkVdMCsVpznhsJjVzKYl2sjUpVhEUAJdVRSTCaosCULifLLgovO5vjWAJ/d0S8X2QUiiDLjO02xabtY9q23PqrFsbcBLTTU9YrFY4JFsGstm2+KixAeBjwpvOxrbsW072r6labfMa820TGMHkVC2PUVhEEqghUEqchNOEBqkzokHCUpGZB6AjZCpOoLUUcW6SNc6Nus26/NavPN7uud453FXhvG2n8ab//Heru7da+PnF97b0Ptt5nNEqni4Va4a7xmVunvv4xLc++LnajXuvn+7puDnSWhPsHm/WfsLn4t7f79dazRo4iAXqw+fETIPbkmzQEUUaCQq+BwbKtJkLKlyQXhqrVQWmmlVMpvWzKcptqakTI0okRhdMKkmaKGo65rJzDE7dpx0jk3Tc9N0rJuezrU4m8gz2p6JVphpDcGjRKSQgkoLDA4jFLOq5uxoxmJWM60LqkwevbdEIdFlkdzW6RRdVgilx3gVxNQ1OA+GIYoxWaFCRAZSd2FB6vLh00xWLSVlUbE4WjA7eUTnI527orNrtl2Psw6IlFXNpJpTGokk1cWubW5AahXEQGk0VVWgjQIlUn5DJ9mMUKCNpCgUpVFoOWTCU9PSKIaQgfz/2XvT9TiOJGvzNXePJTMBkGJJVdVVs9z/Vc18T890V4kbkFtsvnw/zD0iEgRIgCIpSk3XkwKYyIzFI/yELceOEaMw+UDfD2ox96onJ/lhm6u57t8Jn7xXfvuQez8f2s96/3+u6iZXXLy1kbK25OaRWKXBvyLAXzz1njIyaD3wpFpX5abSoYlM2/jYGawtQNIzn4L3vnvvhlmXcy0gt4DoAnSCiMWYhEWoCVqAnmkK1jpUsFHBwRnDptZ+oVfbDbvthrZtkVxAXlcN11fX1KYiBk9EaSejj/STZ3/qePPujtfv7zgcO87DSPSBmkjdVphNpZlGo65b7YRNZbja1vzlxQ1/eXnN1bahrowG+UkQhGgMddvSbHe02x2uqpVDl8UkZ4W2XOKQYuaiiRbEa08I1K3eNCSpqJtESAbXbvnp1St2P71k3428fvOeoe84n86kGGjqipubF/yf//w7L643nE8H3r39lf605zx2+KGHMLFtHFe7lrpxiIdkE7FSM844sppLbjZtzarZol4rPYMsf+UjQz/SdX1uE1koQiXZwAXYLTbA1wYVeeT3hz7zFEPgjzM+SDw8elorg+aPaMHm5++TPz2PD83aLz/WrnQqER89jNIr3gAhqejl0HV0pyNDpyogpIhzhk1TsW0bNm0zVzqkLDNu2pYKy6beZHqGx0eloIxToGkarFH5711TcTx3DMNEiFq6ZE1u1ecMTa7nbCvLtq15cbXj+mqrumsS1L0m4UyFVBVNu6FpNyo3biwhqJWVSmVHLhEr2nmglqmCHHpu2xrrajbbRD9EhlFzyWN3YgqBu/PAeX9LGDrwI6SIRO26tW1rdpsN0Y8Yq6VnUz8yTj0mTLzYNfhxR/QVBK3vNUmlBAx6HFqPaueeDgpa+VYpBO6QGMeJ87njeDzSdx0heL1+GbBLU+yUvabvO8P65wC6D0Duz3FaX3J8pdnIvLj1I10TpGkGOiTljGvMvUgHutORu/fveP/uLcf9LdPY5S5btfZz2Gxoc19V55wCiFOVXKlalUGaVL128iMhRJwLajEJtLXj5fWG86nTRjfea/JBlCtW1xVNXeXmOPXM8q+dQ4gEryVmiOCqiqrZ0LZbjSM67UOagsdnSkWaKSNFJnxpJm1Em2JXYqlqi1zX+CCczxN3x4HDaeT23a8cziPHbuR4HjB+opFAJOGSR/xIGHqm3uKHkTR5Ym64wzAwEBgH1a5L3iPBYWPCRjC59ayZs712llgXk60y0myZhpQYx4Hz+cTpdKLr+9xRDZVrN0KMK+8ioZb2H9Js+OOMPzWFZF1jd6n68ZzxZWF/ZsDrPy7/OPPjVo6QJOLk6ccz58Oe/e17bt+9Yf/uLafjHj/2CJGmslxtliqHuqpw1hIFYrSYpIsMowBSkgJigpJmk0NSjZPAxmHATrUAACAASURBVEFfG8bBEYLPhfhqjVTO4UqNZq3cN+tUOVcz3A4xGri3rqJuWqqqxhhtsjNnGDOwqfVWAI4LCoclUUlpKq3A4qJQbluT+W7RB6I3pMbiJDJMCe8DYiJxOLF/95rxdMepO7O/vaU/nyAEamfnul6ignOcJpIVUuVItUdYmnPXdUXlckvCmaCox18s0eA94zjQ9z1TaRuZLl3w8rXLhMQPoPtaY6UM/Oe03z4f3OYtfLmDyePBWl6AAn6zK6Pv+WmkPxy4ffeWd29ec/v2Nfvbt3THPX4aMGjjlaudctM2bZvLijTzJ1m3TUGIXEWgIpySIiapm5qcQRpHZWo2FYSNm5vKzIy8XIFgrcEacqYx5TCiwUqt/UitFtRXdYO1NUv8UJVUUoxL2/p5YrRKwaR8vAYMhpDUSorJAyp/ZK8amrpmu2m5uZo4nAf2xzOHc0fXD9p4OwTSeOL2TU9KSYnQ/YCkwK62vNzueHnVav8Lo2KfYfJ4A6GyxNqBBWdErddWKyyM5PspK5HodVOrO+XyuiKDVTp0rc/zwWfbd++6/nHHg5ZcKam8GCUe98w1/z1wf567/9+uDPH881WKnGSwKMmIHIPrO46HO+7ev2N/+5bj3S3d6YAfOiR6Kits2pqr3ZbdbktTV1ijFqg8dO5Z98wkC0S1MpJR8qtURAexMsToZyBaWPslXqgkMildsnI7xNK4xRh9z7o6d7U3xIjWsGbmf4p6fIq7arXq+av0khVtL6hArDW60UCKhmSNJkGcZdtU7DYVV1vH6VyravIw5PI31dsLIVKJY1spoF9val7uWq63DdfbhrapVFiApXIhxagqJcbQNDVttpBtLsgXWR97jrutPIfSSS0Ejxhm1eCHMv//0/DtW8pMuUJKvFwLuRBZj6Yc1mrtPu/g1i7jt+6m/S1UFh787GfQmIRsySDECCEGpmmk684c93fsb99xuLulPx/xQ0cKE1bAWGX1X+02bLcbLT/SA8uuoWaIC6G5SDVZa+YqAbEGg1X2flCrLkU7X/+Ucj1tUNXbiIKy5ObO1lW5SqAA9dIeUP3hrJaS9e9SUEtOCtBlawZJc3ZfyF3vZWkEk4AUIAaIFTSVJbUVV9uKm6GiH1uGcaQfVAhTe2BoT4iY2yhWVtg0FVdtRVtb7YORxUbXFlV5QDhraSqjIFerhJIpMTlJGCAZ0ZCANVhj56qGGFU0FCFbdqVYv+jMWfSjcs+FXd1Kf1IE/NLqK4+NlSX3Yezpj56E+H0tyOftu8x16deVSoF+39N3J06nA6fTgaE74achc9Zy1q+qaJuGTdvSNjXOGWaLZM5aaipQShAcA2IhBZK1mBRJyc7kiCSlljbNLBchZfpEjoeJQazVbvTOzW32QF1X7UthtbhezEyl0OlJWZkk13vG0uMhXPRGKNtx1mKcgmgMWqOaYgZgIrVNNNaybWDyhnGqGH3D6LXHashgakSorGaIm9pSOc0YW6t57JDpRa6q8nHrQ8E5NB6Ze72a1bmU0rQMjbiqomlbmqahcpUmKihS75EYi/VXgHW5Ng/eSYVLqRP7rPvqf8p4bK2LyJ878fD7juc/IpZvpFmFZBx6hr5j7DumoSeGCSOJylma2tHWqujRNjVNo31UjZE546eKwsrSR9JsHeXsgAJbCkRjZ8sPUfJEzBZ+zFZgQtRiEVFwM5ptVCAzcwyxjGRybZTIDBaqtgJEZqFP7732YJ1faWV1antF4xyNa7DWEoPHG9Xai8ETY8BIwjq10kJl8a0lxBofIr64xqAPBqNZW2tlUQyxam2GmMnVTkE15GM3JQ5pZc6ukmNzpW41Rxio6orNZsNms6HJLq4C/NJgumRWNV46Q/oyd9/IyvkzjE/F3bXiobgKD405QCfqSqw++pxp/hjSPrLjx4/pg40/40C+1bhgTK9Ihushl7/MuiPrDGRUhr8xlsopXWPXNlxvR262NcM0Yp1lWxtqK1iTL1nJ0saoFQVJQU7BpoCeulkKRoaY43KprNZyTNkKNNkyM9kdM7K0OPzgEmQSWUomc8MyUMal6UtMkUgkiWZaY36FLL9UXF6xum9jtEl1NNo7wQTwU4KcyEioq29FK0SSqCZcufVMfhU3U2kqOT5pLQnBJggpW1U5ZiOiPMECiM5qNYQuCc2uSorZ7fakkF9Z1VnFTtVwlig6n2nV7yHmA1vfE8WKvriDZPn9STGtvG4/Cpgf2cYfHEfL/LhPt8YDpBBpV08anpj4TlxM8icvzL3Y4B96PHAul/Mt936TmVZRhBatsdRVw6bdMV7dMA6eaVLVjmHoiGFAxLKrwZmIsMpYpoQQkaid3DHKzi/ULHU/c8LDCFkc7QLklpIkVQWxdhGDLIutVF2wWpLF8tNYoHbuSqIF9CUYH1NQMppJZeWqIGVUYq2I6rctD1kVzjSadoUgGcojofDVMirZrEFnsq5bSQhIoekU+oqQrVB9OmjDxvygIVdgJMlEaUNlbX4pHcbmI6gtVICTQPID43BmGjpCGIl4jFgNE9hMtUmG4qbGhMYmzb31IZfrrdwnZd09LRwzf/qDvywiAd/neG646TFsye7qpzcmuUaPdFnH+uA3y77Sg8/4rzC+RzB8bHZWt+nq/ovk4H5iBjhjLFXd0G528OJVthrQzvTTwDS0mDQCwnVrqUyEpBZEWaQF6EiR6BctM6TwtbJ/lpbjE1GlE5Es350pJ8WC0yyqHrDkaywsbtiFY5Bd0xQTSeKiuRZDtuLyjSTCbGulQLEPNVurGyrKHxpTzOynXEOKMRrfy4BY4l0mA57GxVZd0Yq1DJdVe7PLnYE7x8+syWTo3NimcQ4fvPZ+qB11tWFbO17cbGkrA9ET/Mg0DUx+oJIKSJknZ9A0scw2QBKtroALbMvHerGkLoDuaeNj92H5/anf++ONDHJPQ/TZqsuz/slvrMDw6eN7BKzPHQ+dy73bM+Xlm1YvNC7mqorccI8mLzBJkak/4/sTcdxSowKTu01FZYFUBDVzF3dJIFo6FTOxV6+jpVyglFdaDtuppWQNVhQQZW7IIsspFFs+i1MakxMJKeUGzAWw8nlG3XjKMcIluaCabOREiBBzM5k4Vz2UbvUpaW9WKxoHtGZxK03wmsWM4cI7W8+t5P1IpuroBzI1phTcp8XKSxn8NS54D+QqN/dlbSvHi41y7nbbLdu2wqSAn3rG4czQd2pvJp0XKRBeXFJZjvXBe0cu4SjBs6lcH471ffjnALPHxtdPPHzfFvE3Hw/yBu8DHORYl8VWNUZU6sekyHg+sd1u6TYbwrDFZcuvbVs2VW4kI1BAQTOlainEbNGVRVJIwnPnrAjMgo75/awjXtzWtAJF3ZaSaFMs6r5R8UwctrLYaulCb3IM0FlDNI5kHNE4RBxImGN/SkMpMatsVbGAgIhkl9kSjcbrQvAYq5y4knWde6GaTPlgAet5y/k8iCYrLRe15XJNyjlrXNOgun1OE9M4UySutG64qSySAtPY05+1cfXpeNRCfWOxxmGkntWH9boUa3a9VB5u+77cSPxYV08cXx/kflyID8bCG4TFkoo5gJ3jRIj2VJBC+wAJnmazoWlb2rbFtxtMdgWbpmVTVTTO4qTAkVonS6xbTaPFCsiS38V9zbWyM8Dl9/MBlaNfwhaRuYrBTypdro1gBOuEykBVCXVtqFymnURDsI7kKlKoSKYiiAemxVoxJoOwLA+F+cGwdp3VFY3GYKPFeIddKfGWuS7xuPUo5wBqW80Ak2QFdCuwm5NAAUPAEkkmqcS7kVz9ASkFpikydCfOpwPHw4Hj/kBMUFUNVS1UNkIucwPNY68Brrina1B/+AR+jKeMzwK576GK4XsZv2Ue5sT1xZvMlozGlmwuDjdICDTthrbd0DYtU1WTzEDMgpomBCSEJdOXdyKi2VOsLipJYFJurifZeFu7owXkWMmrU2Jd+kbpEpZSIPiQ2yfm7lxWBSeNJfPAIil6IgIxaB1sAZ8cgBcxmcZhySy+Oakxz3NaFe8bo8rDqfQzNTkOZ1dBLGH5/0KMjinOmL0+v+K2Ls2j71lyMeTesx6Dx0miMobaCJURrCQInslPnFPguN9z2O85Ho5qkduKqlz4/PC6oD+sjvn+PfaDMvL540GQewpHZw10M1nxd7wQ3wJ0v/Q+yub0Zn+gsYnY7LxZbLJI5anrDHJty1BZRkkaa5uEMI6EcSR5bQJtgFgsMmOQXBOqUkK6nBYam8x0kPVhxDmWpMNklAukHOcLhKBNpFOMGGexTmWJ9B6JymuLEUnKjSP6mdaSsoacctGsKo+IurYhaB1oTKVSJt9nJflgDCWjKvnhUCTN53pdnenMGYzEFJC09LotDWZCfs3NZtICgJoR0qSOxAmJEyZ6rEBjHY1Vq9Xmcx37nhAmzqcj5+OJruvYTV6vpHE5eVMSKQqsarrlx8oDYDeLOiw3xzPvts8bX6JC6VtXOd0fv8ld/WHRff4orqoOWbJuxPm9JBq8l0LirWrqpmGz1RrV8dAwWEMkED1MY880DPhJBS9jiOqyluxpWumgsSyTmTcGS1A+LZ8RKQH4rJOcF32MKl0uKWmSonJUTUPdqDR7EqNtEMOITyAxZ3mDJ2Yib0oh50zL/UTm0KUMciEnu0rlBqyOjCJEmTCIXZUNSsml5kRCbgZdrNsQw5woiflclmL6sof1NgIpeIgeEz1OIs5aNo1j0zgaJ1ij1qaVmLXotDWiIasdG6elb2KyZRzvJRtyMuBebuoPPb4DfPhtMbnf//j/cOPhpxoUCyolQ6FKlMqDEk8T66jqhu12w7Tb0m8azpVlErRNnh8ZJwW54CeSr3QZFZ7cGiRmC0go5AU9tMg9PfzZ3ZMkFKXhFIMCaQyIpCwo6bSUqW6JCENW40gxIvmlsUcV7QxhWtr25X3EGIleu1zFoGAnRqXQL5o6Z9BW19qqZfTA/agWkJBMXCZbQqaalObcRTCgqBWTQdIQVa00W5wBSRqPq02idoZt42hrS2UFK9qmsHYG1zg2Tc2mURHTpm5wtsrUHNH9FYibHzp/bGS7fEB8P+MBkHsGcj0pw/MjDfSU8aH5PrPEMuBlcqvTTu2lTV7b1ISmZvIxl1qVsqnVos1EXUlL9UPKFmM0gomJKGa2pC5k48lJi5WVoaCgQBVD0FgZ6l6ezmfSucfHxDhpttUaoTEqi55SIMZJQS56EgEpnbOUv4KxCuzRCCEmddtFsnVX2jLqHJW44hwrLHC5spRTprKIIVclaAUCSyOtGf/vGYpaoZCtLiGq7FJlNcFjRZMG0RMmT0iSe21YNrsNN9c7bq6vuN7t2DQqfyVSYnxrgJN5f3/4UUJYsLgMv/N4AOR+gNLvM0pcE2aAS5KFkFiATlQHzlpLVVe0m5boPc4HxGrZl80JhpkTF7PmW8x0iUIvEV3wmMUl1rH2V5fMY/lEzJpwMTdQlhwzG0fP4dxz7HrGKeCDZm+3bcPLqy3bpoLk8WEgRE9x1xK6nSLQqdUKjpQSNiUFKWNyIXzICY4lDjzT3nJcrsTvLiw7WaUv8+fWGWQRobDc0zwDMgOPuvza17ata6ZmAgSTtKVikERIgq0r2rbl5nrHTy9u+OnmBTdXN2zaDWKtzmthfq/m948+0hrcljdnq/j3HB+qkDwB31IqwfJ0YaKWLNB8L13EnX6Mj48CLFJsN+7ZFvnpaBBTYapGpcW3OyCrYJiKZrPBVS7HymPRvoDMAcuibhTmGSJZFaOAhVweEpBKdqJkIGNcyLPZYozec9of+fX1O/795j13h55z7xEx/PzTDf/3P3/hl7/cUFWGlLzGyUStwn702iT61BFCwAlKvM3KvVVlsrut1mOKXmXdk9VToIDV+t58fJYv4o3ljDULsVhZYhCT5nksza8N0DpLaCqsmNzXAoSItYambdheXXP94iXXL15ydXPDZndF1dR41DKdIwYwl9jBcuwfG+tw3adCd59eeZ/ewsVz4uLdh7PAH+w3n9D9pMlje37smH8LTLp7R/TErz0c/4BLv/zPFD/9uqOsymJJrO56AuWmUGKvQWyNqTZU7ZZmt9XFGFEl3qqhqrWEKMaQY0tpBrg0x8UWkCvZiKJpt4yUyV8m83T1+OIMkvrp6D1j13G62/PmX7/yn//5L/79Zs/7u46YDP/4j79gmXDGc7VrlQ6T3c/BB/annn+9OfD63Z5xGqhMYtdYbnYtf3l5xc31FldKPaOQkiOlScUzxamltz7qe/emZBTLYTgt1Yqq/1aqPMoDJeVqkWJRxySEEPGTUmUkJSon7BpHUykB2BghxAjG0mw27F685PrlX9jd/MTm6ppmswFXqcWnT5RLq3llYSrQyfzz3tVYbOy0eu8RZEwf+den37/864f+3YffW/d8ujSiPyzufMxffOi99WefiyeJx5SB+VjF6cVUfzLD+gPonjoWS25+R5gLymPKUGcMUte4ZqOvus1xsYgYh60cYjIVOMYMXNlNTflzKS4rJTGXUAn5Ri2AkDLIlXby+dAKCJR60DB5+lNHdzozdgNxDMTJ44eRKSROhz3v3rxhWye66y11XSNiGKfAsRt4c3vmf/3rPf/1+pZxGtlW8HJX8ddXV0gKOAOb2GArh5FE8k6TE8YolUVsJgib2RIq1pyQFgpKAfn5lS56NSyeiVp0hoRElmqOqJ3ILJpg2DWG622FiKGfAh5D3W65evETL179wtXLV9SbHVLVmmkmJ1KKqzw/zB66/PeDdPrH8v+H9IUXl3zZUHpkJa+990/dlk9KkOabJ13Umy2hjvs4/LFtfmp3TzfFdLjHvvL4s+HD1n73m8V8zgH9GPDhbC2S4KV+AWuwVYNtNrh6g60azDgot8tkaSH0SsWZi6ZB85J4UOvlwmmiiAIUNZFYaCeC8ufMqjICfRBaYwgIfvL03cA0eCpbcXN1hQ+CMRXDNNJUhvP5xOs3kfNZNdYSQtdN3B46fn1/4v/571v+/zcHgg9cN3B+UYEf2dXCpgLilqZtsSLEqiJ4VSJOCYyJWcq9KPLKPHeKWXF2q1NQ2sv871n1JVu4lNx2mq3dVCgmQWkkJnqMRFoHu8aAcVknz9Judty8/JmXP/+d3YtX2KbNAMec3JBU3H9ZX+pLgPsQwdZ3BWm1CtXIltXH5N73HrC6HrkDHxzPAMQHfIGHAfUZwHBhxT0z+vWoJfdjfB9D1j81IKcVEK7CVTWmqhDrwNi8YNfgpUOpEbmtILmEKD/tS7/tlC26+V+50qAQULX9XgY6Y7M7nRu/JA24R7G4esP1C4ttrrh6OfJzPzBMI6QRa1Qc83A4cDgcCDExTpFuCPjJ09aGv9xsSClyVcPLrXLPpqHnsD8guU7WuArnI1XmuJH5bdauytGKDiUL4TaVmGSpT11lh2P0F3FGHflRkRKkoDy55NHwQdCHBlELSSrL1tVs3JYXP//ML3/7Oz//9W/cvHiJq2rVyEtcbPnSUksfBbU/+vhSZODP9Qp/gNx3P9bR9EXXLbkK45xm7IoFlxWA1/GclEUoBXVVEzHrgyzctNlNK/GUC5BTl02rDIySfBUqCSExxUg0Dtfu2JqW5trwE5K7a0UmP9Kf9xwP7zkf7+jOR7q+Y5pCDu7XXG0rmrbhP/6qgpetSzQ2UZmISYHz8aR1qnVLtYmzem9JgihIJGwSVPlkFcMkzgCXSrIErXwoSsRKh8nST6BWGQtEaiAvIAREAmJyZ668bVc56uaK+uoVr/7+d375+9/4+edfaHY7xJjs6pbFXly4Beoun2aUi/DpLMQfZDxfMPfLjh8g952ND2MoqyRE0viYWIepKlzdUrcboh8QEYIPWohqlkWubH4/WyOihVrEbI+lHH9b7sP8bsxuWyp9T2UGwoTBJwhRl75rNuzshoRZ+quiVQLTNNCdNhw2Fce24rCvqU4HhmEkYjC2QowD6zDGqcKHiVgCcRqYxi5TVmYnWWNZOWY4l3sJxGCJEhCTKTRpyf4urmnIXL3yurTgVqHKHF/KAGrAOaGuLG3jIEWqSmuKq7pm8+IFV69+4aeff+H6xU+0uytMVV8os8wVJ6upfsw6+bPUqn40Xp++TU3uD5D7TsbaTVpui5z9m0PUAlhtEO1qqral2e0gTiDCNI4KVkYtLWZJ8QBhIsUAySOSY3SURZ0Vg5HZeiiJh7m0SYNJs8Xjk+CTQYyj3jRUtsVZjZMhQopBRSOHntYZNpXletNyvb3icNzTDwM+ptyGMTeTNlq5YAgQJ8ZB6EXPwbpaKwZy60NSIoW4hLZyRUIMopUVMMfbZtpMXIFbCrPc+roudvbcYQF60f4OdeVomorkqwxyDussdVNzdXPDi7/8zPVPr2i2O8TlZEMKxKBRPlmbbdmau6Tv/TmAbT0+mZj8BkD3xUDuz17D+iXO71PbSKvfUioy3PktUVdMjL5vXI3NXLk0DXO9pyYgNMtVAubBewheAS6pVYfkhtHZxSsqHjNqZMsDcpE/uaUgEDVQh7UVYiuca6lco+0HkVxpIXNyonI1NFtM0gL1umkZxxEfA2FtjeVkgckuop9aNtsNMUWapqVqmrkkKniPiPZeMEbpLylGovhM7M1WalzmoZSShdz8Rq26IpZZrFqZrdxyzkW/zmbZc2+1gkI7d1lc3dBurthc3dBsFOBinsN4YSWvPdCSxNPfC4l5DQpPWfxP6/Pw+477QPcBNeapQPeZp/KbQe5zF//nfu9bmfG/FdSe+/2LoPTsMy0l4hrLSczNaFyFqWpcXRPqGjNUiJlWN4KurlKdoIX0CnTFdVVQMdp/QIrU+NzuJb8MMYNggqxNZxBXYV2DdVqPiYgG2L0Sg1PORCYfSQEMjsq1mI2lqTf44PEx4KMnBI+PCj5CWoArx/VIadaQEwwxqLRTRhoUpCGKpyj/phyzKy6rVlRMhDASgs+KI+XvOdmSmHvKGjFEo3HQch0MmhnNWi7aXCc30HZNS9VsMVVLEsuU+6tqknrtpq4d1FUclAXgPsZWKOMhoPjY+L2930+t208ePyzr4Jnjh7v60PgdrNLiOma6EbPzsmhjqxs4Zw8t5MxqBEY/ce60YqBtG5Usp/DZmBfynF0s1lNKKumWd77Eu0sVgUFE9zMLUFqD2Jz4MNrKJaSgIpo5uQHkEjSXldA1uCeoGodzgZAiIXl89KpUEiZSipnvVvy4nABJZZ7UhU8xkUJQnlwy+r1oc9Pn3DynWHIp5gzqlH96QoiEkPAxEgL4AnLZkk0mW4MRYkgEnwnBkydMWc0kgmCxJgN+1aoVJ1Yt8bSA5HINdS5m7vdq6d4HuD9LXO73Hj9A7sHxMLfoa+9yAbry3FrFw8g3PjLHsQroxQTjNHHqOmLwiDFUdaMNXKyAVRmnuWQysWxfitW2tA4sAKcurEWsQ0yVkxr6EmtmqfSY413rRmG6dnXbqilniEHyPkxu9AyI0/IuElFEJdpnlznNIgOQZo08ASQTnQOREIUQDNaEBSApmnGlDE0pICmVjGrUnqwh4UMiRN0/ue2iWoJZ+ilEpmFi7EfGfmQaJqwxWmUiFmMrjKsxTt33JEb5e6BW4LoUAK1OSWV6YK4IWIPaD3j7cuOrg9znclt+z5F+B4x7aKJm90aWA0plkSSU6e9qpVY0W5q2J/hJG+BYVdfFKEjFrGwbJWUJ9HKCZnZRU24fqNaWRcRhctZTjCUZQ5RcWZspEarya3BisrJHUstnDEyDx48TYZyI00QKATV/lH4R7v9XXPHSOEdURGBGZkFjjSlqw+sQc1BfAaLEyMws6b4opoSoIFfUT4LPABcV4EIqc8HKN1IX3E+erus4n4703Rk/TUhdY6uaZrtjs7tms72i2Wyo6opoyIkNIARtNygrGfZVelW499b8pz/aqvm64xHOwZPGVwe57/1SPYZlxcP47V2RnjEugC5d/mHl8cxxJLGIbbDNjnY3qLrtNFI5i7PaTSolp9nGmEgm95BIueA9+8ZpBjhyyN2AOMSUl5mzgSVulSS/JwZnDDUWiYk4BXzvmc4j/bGjP/eEyUMpPYPcxCsxxYkpTUposREc2MogldNYW8mapsWaS0kBKQadDQWxhDGGaFWGyhiDXXW41xjcwosLUWkdISZiRLdXsp/CUtkheq7eT4xDx9h3TH4CsgJy21Btd1TbLa5psNblPg+lTphcRpYwYsDay+QO8FGg+zEuxr0V8bT5ki8Acg+miJ8AEN+DqnCSh0FuHbtfz+Q3Abw5MJeD0dmSu7/rhDIjQjSE5BC3oWo9zo1YSRiDNpU2iWgTJiSiyfWaEnK5WEJdR5OzihqDEqMt/zCOhBCCsvyjGKKxJJPjULbCYrEhab1qPzEee8ZDx3Ae6M8j4zhBTLjSPhAFgRADox/ppwGPVwCuwDWWZttQb2pyPiOfr9JXQlJUmsU78yyZLCEugRm0CwiWulOljhQysbr5WXhqrgXVOGixFvP+DNS1Y7ttaTeVcuOaDbZu6X1kf+5whz20tzQh4Opa5zBfyLlb2lxSp0C3lHddGm7318WXiM2lInj6Bx9rYYhPAl3+4xex5B69CBpNfdb3vkmvhrVV9MChL7SNZSLneNk3AbplJ3PB/PzOErGLSfBRCNGCrXH1DqzTRivJ6xFn7hkmKgJIXs62FOUbBDsvAoloHM5YEG3TF73PfQgMuBqDxTpHbVokgO8Gun3HcHeme3+gvzvj+4nkI5LUjTS1yzp3atThI2EITOPIGCa8TOASbuOIUyL5RNVaTJ1jipAzoirTRKnGkFyJISYDE1puRsmuFoDTaoaYivwlJFlXRpTrqwAnWUg4krDOst1taJoK5yyuqojG0QfD+8OJY3rDKTkOY+Tm5U9c37xgu93hXKVgJqV3mgbjTMzX0Czy7flqr24B/f1LJh/SQzf7J8bXAsanrPPH1VVW8/SJz8JngdwzT7rIQXyP47F5eSAmSvJUlwAAIABJREFU961iix8PB6Y5y4qAtZZUNUiMGEl4gTiXV0aVJaJYC4VWof82GO2YZSwiFpIhWnK8L0t/p0T0gWmatD7UOByaKE3eM4SO8Tyyf3PL7a9vOb3f09+d8OcR6xONrWmrhrauoamp6tLEBWwy1MkRUq3BfR8Zp4nJT4xTousn6l1Ne1VRtxaMEGPug5Egt7afBUSNWYBQk8ar4ntiljvXc19UQHK9a8rgNluaSzlXSiBWG30757DOYV1FNwVuDyfeHnq8fcfm9R03r97zy1//xj/++U/++vMv7K6uqZsaay0xgQ9x5jGaHB6IyWhTIVk/Sn+MLzk+A+SeeSG+V4CDZyHXt4qXPDpb8zwuVY/WOmzbEA2MJgIej1IlCk+sSAnN3anIOVtRLpoxObEgFpCsQpRlxn1gCp7Je4IP2scgy5ePw8RwmDi8P/Lv//6VX//1K8fbA/48YHyiNRUvNjtod9AEUh0ItaOqK6xTUnOVLNHUmh32Wqg/jp7QjcjR0F7XXIcd29jgKslcOQFZFcc7BTnJsbAQ1HpTsm+hsjBbVAXk7s95+uCNNMsGGSNIVWnG1DqiGIZp4v3+wH/+6y2nMSHNG65evOU//rFnnCIpCj9HePHiBrtxCyVmdoX136Y8eIBZqfjH+KLjEyBXJrzIOEqOgHwc5mYT8jMA7nNidc92cdfgllZJhs/Z1pc4nhW94FPbmxstJ00ciNGANsYqdSG7YiFzy4yQ1UNytYRRC05dJeWxmVwqJWIwkcwhizlYr0KP3gemvqObevw5cr7tOb47c7zrOBzOnE89YQRDTWUNtXVUVIhPhDByPo8gYKwgzoBRYnEg0gfPwQ8c/cCQPJN4koOmrxl9oB82bK9qNtsqW4PaHnCpu81lXDMnLgsMZHdWG1FfSkWR3decbZkjK5eBgfxIMGaeW+sqTfiMiWQbolQMfmT0PZ1/zxSE4BOnw4l//PMf/OOf/8GrV69o2w1itFUjuaZDEylxpu4sdJ5lPOqyfQV39oG9ZN7kKn7zhcan1vnntD187DsPi2Z+8OFLsFsf29cQzPzYCX6ZmF0p4+FRNdNnbe1LAuMqBrJIIC1/nxdiKqVHRhMCRRkkZWWQGJAYceQ+ptZgco8BIc2Ap0mGUvVg5oxiCZTHFInkRMF5ZLgbON/27F8f2L85MZ49YmqaesOuuaE2jsZYWgybJLiYCOPE0PeM06ik4UINMUq6HUl00dMnz5A8I55oEsPkGb2n6wduxh2JHVsxWDeLPc3zlUP8zFUOAKLn7JxbrD2Y43PMvSKWeSYVSopegbX1l0QJ2BFHtBHbbHGba2zoSUOgHwPv3t/hh4nj3YHj8YT3E957Xr16xdX1Nc5WJIw26En5Kt+7xuv7P1e9PnCfqEX+1HvveaCRLn5fdvFlgfVLA/Rjc/EbEw+fnuBvFcv6o46LBwbpQvP/IYC7WJB5AWIMSQSfhClEhnHE9wM2esRqwN9Yg3VuBocZ5CTH5GYrYi0VUIL3WYtNwDhD09Rc31xTS0vyhqre0rQ72rplWzW01tEgVD4i48TU95zOZ/pMwfDRE3KPh2SEicRGItsU6KKn8wN9GJnw9N3EECb6aeA8nNldN2y3FZuto6ntPC/rIxcBY9V6c85SOeUNkpKq+64nV79xEYVZmtugbBpjQSwxCf0UOQ09t6eB4xDxVGDBNZAweV8NKcHpeOLf//43RdrJVhZX5fBAOdDVPfBgVvWxBfRNFtZ3HGp6xviNIPfp+NwPgHt8LDc3LCvs/mfSxc9llIoEZlc1IviUGL1mLR2BanZLDc7arE6S5hiVxuJyZQLMUuEpH0uh2YgRXO2oritoLT/9ZDG+wlLjXENVtbSuYVPVbIyjSuCmAOPE2PecuzNd3zGO4wJ0RIKAJzKS6FPk7EcOfZdfJw7DkeHccx7O7I93bHYVP73a8Ze/XAMtVWWULlNCDqKKIdY6qsppNtQ5jGQqTLbeyjlKATjWNI7y8Mi/GgFjCR5O/cDbfc+7Q8/taaTzEKRCnKNyNbu25eVuw82uRYzl9vaWkDyutlxd72g3DVUlaJvFJRB076rr9fjdS7v+HImQB0HuURM4n/NzTvuHJffbx4dPeJgXohilh1inRfuuxlU11A02avnR/NFcqqX/NnN2cl0vGVevBBgRnDXYyoE1mE2FJAU3m2pMdOABD5PvieczfUhUSWjE4BCi8aQqYcVq82kqrVsl4lNkDBP4CT95XNZpa6JjTDVjaggEhuAZzj1D6MB4bJWIydO2NXXlcM5QVIGtaDJCM6FLx/q5kXRKs/WHkFtrF0e+JCJyZYlElFejRGgfE2OI9FPg2I3sjwPdGIlY6irgTEX1suVqd40xkSn2jGNPP3T0w5lh6FU3L1uammG9vL7lofeYIsmP5MTzxtNB7jNB/cfl+O1jYeHcWwzlJQZxDlfXpLjBpJFgE8YPuBRUOvxischccF/Kn+A+wCkKGCPq5lpBxCG2RqTGmBpJjjSCPw+MY8d07hj3Z0I34JKwbVo2dZ3LmXIthTMYZ7CliD1G0hQJoWfyZ3yYICWshaZ2RLNRrlwfCYNagee+53C0iERS2iBsEKmwTmbenMl0DykCorEIiOZ62HvzYXJCQut79UlekhdJImJUwtynxBRTBrme9/sTp87jg9DULbWt4BdD02ywLiBTwBohBs8wKNi5qsG5Wqs0Upqpi/fHQwX7PwDu+ePp7uojJpl87O/foaV7cUjfxf2yzlytw8z3JXeWoLq+l/8nmkyonMNtt6RaiI0Q+4rQn4j9mTgOq4B1zuSxWDKIXDJ90lIMT05KmFK4bp1aj3MGKmEiVEEgCtHnPqVT5BwC49BnPp6+JBkkKsl2Cp4xTAzjQD90DFPH6CMhN7x2VaKtLDa1VC1sfUVkxFUqxzT3Qy09WNGOXcYaLgv1Yy7SLxUS83Sv5mA+HQW4VFpfq6SSWEcMiW4KvD+ceX174O3tkfd3Z869J0ZhUweO2y3H84lzf0Xb5oy1daSYGPqBruto6i1Nvc2XY00GfjyT+gPcPn88HeTkgV/TIz9/h/Horh96Qn7NA3nWuD9xM/RQVqHIEp8pPQ3mmFIQkAkRobLgaotxDckmooVJEr2f8OOYF3YGt1WGVnWWYKalFCsnJy5FDM5Y7YwlRvXkCFmLTasqbBWxO8EZhzUNropM3cjUTwzToFQWW9oFqqXoo1fir5+Yis5b9ASBaCxGHJUxOOtoTcW1aUjmGgj4OBDTkJvXLJ2rxIi6qYUmk88rlTkrT+Ic0J/j+nKRXM3dCpP2qRD0/F1N8JHjGHh9e+Tfb+94e3vmcBrox5jrwxLH84n3d3fsdjUvbrZsthXO1YBlHD1DNzBuJq3emK2zfMUfwbE/P8B9bub3aeNRCsmFkue9fVz++54f+zsgSCqH8dhY/+2ZMcWnjOdy+9biiB8+pZcVNwem09qKy5YciRAm1WCLgYGo/UCjB9+Txp449vgQNNZkTC52L81p8pJfUpPauSpocbnENEuvF+tPgU+PQaLPn02EpBUXqQqYTcJhicYSRBu/aP9X/V6hpQQiwUTECc5ZrDQkU2W9POX9YYwet1niZDF6fLT4YEEirspWm9E+sOW1jHtZVJPlL0vci/lX/XQGuZCEKRV9OQtSMUnkNCben0ZuTwPnMRDJCQTRzG3Xd7zb39JsLJhI1bxUmSos0xQZh8A4eqZpwrkqV5w87IY+Bdw+lnxl9bfnxMY/9dmncPTuU18eH3Lv51OO7Hkr+FFL7sFJLyf3wT7WbtXvMJY1+KTPfo3DfKpSa/ncJcCtuEizL8VMiVhtNW8kEUPQgHZ/Yhw64jSS/ETyI2kakTBiSdRWtDjeWFIKIEWEMl1MRMo9ElS+qDRe1r/FTLKVcggpqupv8GolzUJyCRyYVhTokiWJilKWXgopaPmUWMHhMpUFkkuKJZnuUhIkJeNbXNMQVDUk5G2LTRgrGeiySyz3rkGZ0zlRwwzYs9ctudIjJnyAMcKUwBshRkOkYkyRsxcOXeDYB3w0GGepiKrjJ4lxGrnd73GVUNWW65srUsrbCIL3CT8pyFXVhHNkUDY8N7nwFAfqMhjy9HEfJB/8zCcW0kLpeWgr8sjvHxufkxiQp7urf3aD+VuPyyqGBz9RHFYQma2TELTEahgGjocD+7v3HA97+vOBoTsTxp40jTgiV5uGv7x8wYvrHbXVrqsKqKJgl3uXxnVHqxC5iP1RAvVBG09novHcFCbLqBcTWWK+U0zEOHC1QULKLmBErGCy6a0Al0HOQrJp6fGaNxOLW52bbBtrsDgiasklUZfeWrPoyM0P3WUm53aA8xMxzoRwDQcIIUXNnPrAGBJTgmCE5B3EiikGpmCZPPgAKal7LE4wuTdFSpGu79kfLFe7DcfjiZvdjk3TZhdZ96+gHTV5gmBMWo7uXlb1wurXN7+jkMv3P54Mcs8xd3+Mx8cHJVpcukt5SebfsmsomtmEgPeecRw5n07c3d7x9s1b7m7fcdzf0Z0OTL0CnZPEX15cUxnhetNgbK18r7lNDIScaQwx5u7wpQHzEpC/tPCCKpLEsFhwKW9tjuOJ/jOCmIhxurHMwpgL0yEH3Y3kEq9IlDiHEwoAac+FbBNkILDGYAUQS2lEY42s3NT7SZo1JJRYZPmMuvJJDD4leh85jZ5hSoxRiJIIDlJjmDwEb4ja6CKXjGn8T+l22hzI+4m+7zkeT9pMe7dlt9sgXOOsuqcpJkLQ9onl6Ewhd98bF0BHnpw/fZzuy40fltzvMD4OdKuyohwvM7k8SYK6VF3Xc9gf2e8PnA5Hhn7EWcf11QtG59i/95zPJxrbcT73DMNI4yy1sxinsS5PIKWs2sHCISv0CTOThXM0LEVS7nYVwyJ3tLKFmE8kZY22En9byR3FdEnfkKwqoqVeWgVRMr4zwBXyMmhMTdQ1vcgY5LksdasiCcncjDlRU4CY3GAm5ke3GMARgSHAcQgczhOnPhJw3MQdr2oYgyVEm9VQZEFjNOmhWsw6h94rZeR4PHI8bhle3pCEubxMXe+gbrnV2OesiMx9YF5Zd/K0SNePsYwfltw3Hg8D3H2rI80Trms+87hEG0ifT2f2+z37uwOn0xk/ea53V1zttox9hx893elMN0ycu55T19NUThWDnaN0ppKUkLBc1SQrI2Hm0K2tLbXatJXfOqa3gJ0eeprBTbtxBXzwme5xydkzObFw8cqWkVpyMU9FBrcks7rxOkaTUOqKiBBC3kSJ6yVWIKdu+mwqCmhpmyOQ6DzcdYG3dz23+57RW15NG6I7g63oe40LrsN9BeAL4TqLEhO8p+97uk7L2UQkk5OV1hJ8uIjRGvPICkvlwSerff4YTx2Pgtz6OSJpuZGkWBpf97j+cGPtQTynaPoS9OLM6dIP6OIuFoj3nq7vOJ3PHA4n7u723L3fE0Ogci1XVzWYiA+Wcx+IPrI/qErIpq7YNDVS57hcPs45uZEXKLmvq8ii2lGsSptcLm5fCLVLbWvJ3OZzmS2zSJCAT56QGzqXYSiqNjIDROG4lFzB4q6TrbMMgPlvKS0B7phAYsyWkv59nWhKKzoJc3xL63eDsZodHRN3p4nXdx2/vjly7j2vD543+wHjat7e3tIPI0YMae4RC6SoAptkq86U3hn5XI2hco7KVbjSIPseAF8wGtbu6EPZ18Xnf9J6vCQWf1tv9yLBBsj8cPo2B/GkiofyrwXgfoQ91+OygP55o1z82WWM6sYsN4YgQZiYGMeR0/HE6XjmeDxxe3vg7dv3xBCxrqXZXBMmz2nQ7N9kIreHMzf7I9u25mq7ZbtZjnnOeM4Wmynx/RnkZOZyLdYVxmSQizmA7rWhzBzcz6vICFiN0ZWM5sV5yyojaheLcZ1VtsUtXVmWF3M/z3vSWKBoVUNxsec4Fmtrbgnwl4xrTIYxwLEPvDuOvL7r+Pf7I/tjj3l34r9f3+KqihAjk5/m+Fl5AMzWeObqVVVFXVc0dU1d1zRVTVXViyKKMbrYU6nEWF4ltljmfW3t3T/3ctPNa/RjtI57ya5vyb+72Dffltz8jAL9H8D2JcasLJGHwoKZA9cxRryfSCnlZsqCD5pNPZ3OvHv3jtvbO+5u97x/d8uvv75jmjw+GHxU8Hl3d+Y0eCYTeb8/s2337NqGVy9uSphvJaOEvmFkLi8q7rGq50puBaHZSysWMX624GLwpEnmWlcFkByItxabEUVyhcLC9ZNcCZG17rJOQErKu1OLT1bZ1mLlZYXjWEKWGVjLj5QynzkQI/ODYsbe5UpkANRjn2LgPIzcHjre3J54fxg4joEuJAgezxk32jnRIFIskjx/GIyAc5ambdhuN1xfX3Pz4oabm2s22w3Oudl618SNdvIypmjgKU1GgdBhbQlQwvrIf4znjWeA3BL/+DE+fxQAWCca5vcRzXYG7Qtqra7cYRg5ndQ9PeyPnE9nzueOw+HE+/d7zl3PMEE3JYwR9vsj5yEwGS1Bqp1ws9vwt2EkBFXUnaNoq/hbMsyWHCuQ0xaGmgBBLMa62VUNwedKCAHv1fJLCWLEJBX0TKui+HUsr9SZqpusLm6MkSnH71iBIKv1HmPSbGyuMpjnUIpF/WGt7nwuBcRXiQvvVQvucOp5tz/z9u7M3XlgjAKu0n0KRGJeBYu6cLluWm1hqOqatm3Z7XZcX1/z8uVLXrx8yXa3xTmrc5ZdfbWSDTEaRPS6W2uJMVLXGoO0Fn4A3G8bz5Jamr3oB/Duc1y1Lzo+4eJfhqifv+l5G/csghkonrjZ4orNC37eWJH/UQtJO0wppSKEgLWWtm3ZbEfa7Ya6aRFr8SHS9yPmeMZWB4y1dN3IOEU8HsKETYGX1zsOp45unGgqh6ANZiSBTyuJpWyRGSKJrFSSQQIjWDGkqKoepKQZQWuwVaV9Alcgpw2n4+q8lvNcT1iZw5i7eKWpAJKoLtwH5GAlLK9dvEJ9UfPuctuLZ5QjQivw9EHoh4n9ceL27sTt/sTh1NMNHj9bsMyu9OLPL2dQqiyqytHUNU3d0DYN2+2W6+trrq+v2bRbrHOU7Gi5XReV5hwvy9ac91O+T7RMTYzJx/7x++2PUed6//ieGp977trVbT5bT27ejdx7YxXg/XA3X3nkOfqgEmO985Qubq7nTtfF5+9tYAmSf/rbxXgrHLgSI4LSQ7S8At6HTIcwVFXF1ZV2dh8nz+ncsbu6om5b5Nwz+cjpPCBGmKYJP0UkBqZ+IIWRl7dXvNufeHXqudm1ODFUtkKSLEq5OT6k56gkXT21y5iYGJktMlXerZBGz0ebwhRicebUXQTVy+9ZESTvs2Rkxfvshuq+bFY0liwal8gCACY3jQ5eG1pHsvx5jrmZtRW3vnBk91mtyOgj537k/f7Mu7sTh2PPuRuZfABrM8lYcEbDi3NyiaUlgIhgjaWyTjuTZevUGp0b52psSTbkbxnReKOxKgul05/nKKlVpzeGA1ze91o47/5NubrbLqzYbzmes7+HgO5r7Oc3iGamNWKU9x784POB7rGL9Gip1EM7v38TLKGgJ4DSI8e1+i3JCtWfCHCsXLYlr5kPLGntow9a8jNNE8EHSNo8xVmHc452u+Em3DD4ib8eT+yPZ8RWnM8DXd9nFr3OXQzQjSPeJ17fHvj13Z6XL24wIrzYtFTOQkpMUz6m0sg56RIuQfBkEiryWNy93NwlxxJL/K6AXMogF4NDQiYOp5nSm9dpmnlzJlt9MYY8lSlTZph7UywmjAKUSSnXwyopWRv+ZaAVYJUd1ku0xNFmifcQ6UfP/jTwdt9xe+g4dfqAICSsUel4q0bs2mNe4nHFAs/ANI5Kt3YG7pqa3XZD0+QY3c21SlcV4LQGa4uVtljTOXCRt50z7rk42+ikPH633VsjT0lErBWI52u0untl/Y/74wOwfXh/6d4nFtsoPfyH9XcLrl8UqD/d8vsskEvLlX5gk5fjQQD62LYvMkBP/+IHp3z/qyUUlNbuy+pcnnJs91Hzk9+9/Pzlf8w3lS6S3Blr0izqOI6ESUupjLH4KSiJN0bEGppNy83LF/zy11/wIeH//Zbjac8wjDjnqGuHD4luCAzDyOu7I//1+h273QZnDBtX0bgKQeXA0zqaH2e4yC30EmKigsucVbRZPslcZABTShrAynErBRUtCyOlkswE1OIzpR9FyDe8TYDN+m4KtpdNwPPCz5LiMS0/l/tFLuKKiwW3LCkfIz5EzsPI/jxwexo4dJN22kpKb3GidY+SvYSS+7h/4UuXMNDqkDhNpOAVIHOFQ9vUXO12tE2tdECnTb0NudIBkKRVwPMe5oehln6lBDETbx4+jrQCrtUz+BMW3WWNb7kv5yn70Hu7P+Telz4xFE+XR/zFdj9yqElSBrqnLlpFzS/SXPpj46ne9lc/iJXR9VxX9fN3uv55OdbHkWLEe4+fJnzw+BAYh5Hz6Uzf9QzDxOQ9U4iEpBJA/Thye3vgeD4z5oYv/TjSDwNm8oyTJYSRYQgYIm9vT/y//9+vkBI2CVfthrZuFMhy7K0kGBCUjqF+NSFpUxyjPtasaJtiXn4FTLLnXdzGecFlHbnZRdeTXlE6FrtWULdMRVNWPD4gm4nqVocP43LzNX704asoFSMEH+hHz/E8cu4nhjEyBUii0ulR0izbhJQbKNf9PnRNM6qUorwQI30/cHe3V7dUwE8Th/0dr16+4MXNFbvtlrpJuCrlOV1oKDHmdRPVrV4SFQoQRZ3msTv6W3Phvufx1UHuu5jnlbn9bQCujHUc6gFXAn0vhoCfJsZJOzv5EOiHgf1+z+37O/b7A/vDiXPXMwUtfZpCpOtHzudeWwJ2vVqCIZB8oB/RAvqgrt/tYSD614zDQG0dP93c0DQNtRMCokrB2YqbTZfiepYHfcpktwJMEpF4aS2ptVzQbuU+ZpLxTJ8oLmypg50TFMvMLZta3o8xZrc+4kMg5LhlLG7ehW+VlkNZOZo+RIbRczoPHLuRbvRMIRFRtRZbOVJQdRMxKwuVe9cwA9uab2fmZteWEBN9N3Are6L3nE9Hbt+9429/+5m//fILP/30gt3VFZt2g6uqJeaJQXImlyiZ4CxziCSt53r9BF/fWz8Qbh5fHeS+5/GtLLqHAA6Yg+4+BLXUJnVTh76n685zgff53BF8IEXo+4Hj+czxrHWp536gHzyTj6qmW9fKm/PKE0McYOjGibE/4UfPttnw4uqamBI//3TFbquE1TSBD/4yDqMHOrvVMZdEpRRXsbgHFlRaYlhzVEyYa1OTQWWXZjBaqhEeKqhPZCWTqCIFpdVfyE2k57pOKR53IQMvCYuUreBx8nTDyKkbOHUj3RgYgsqbJ0ptbJz5cOVG+eAK3jOXTCYCu6pWInBTUzc1zlVMIXA4HInBM00D59OJ/f4Vv/zyM69evWKz3aq+nLVYU+ZLreMYwsVujbCa9z8imKVvamn+jwa5b+e6fjgKwJVC7ZA71Q/DQNedlQt3OtGde+1e7xqQinM/cT71vHt/y/5wousHfEi4uqFuNlTWEUBdOTEYo/Lo4xiZuo5p9LTNGzZtw+Qnpv/r7/wf//EzTdVoE2oBpGjJpctXdhOTCCZpG8QPLQa5ADb9sVhEQsJItrwuiv8zly5eurHkB4TSS/IDYZqYplFrYUuZmCx7LtakgnVCjP7uU2IKkX6YOA8T52GkGycGnzRGN2dn46K3d+GePnDHpFX0UbSRtasqqrqhaVvatqGpHULEB8/p1DGNI6fDkdPxlJVILDHBZrOhbhpsuhTSjHOMNO/SoA2z5fe8g58/LsvWvt1+/0eA3P3JfeptcVnv9zk300WOivWelUgbVkXr+sTu+p7D4cjhcFQAmzwhJCXwRu3OPo6BcdBSKhGLtWQwy+HcEl+DOXOXxJFMxRA9r+9O2P/1XwxDT8rdsSTe0FhVDNbQdpyzrXNmVLkdCiapFNeb5RTLj7TQZefqgLRQUlIJ0IdA8NMSX1tp2SWWbGOh1vjgsxVXLNWQLQK5yMBeVpXkgH2KeB8Yxol+1OSOj2q9zZKfKara8jgqR9EZsKaYTswctw/uhRKXzHy+pColMUAIiRASlTM422CtHks/TBwOJ969v8XVFSEGXqaflJJTVXP9axKZLdUUo4YWUp5dK6zrYz88rst7975O3ZNv3y8w1u6+5ETFBx7DR75Hvoc+J8b/pwa5Dy76Epb5pBX3YAzmWaPsIVswcnl51pZcsV5ijEzjxLnr6LqecRjxXjN30QQmrwsmJdEeCFWLdcsiVTDIrqQV4iohYJzDNhsIE8d+5D//9Y6h72lqy/WupiLwctewdWrNxahyQSlFVjCwOv6sZpvuxeTi4m4ayNZeXlTa9BUo5+4JfiKEqLWvsyzdmhidScLBE/wCcqW+t8y1pBLLyjWheapTPiYftBftOAyMo8Y9U15lszutTxpS9KqdJzZvzyKZy3aRtuQyXqjzojp93kdG47V0DahsQ1XXVNaoXFX09OPE+/e3JBLeq7acq7SNoin8wJKhzttOUesuSvJnDRIftC24n4C5x1z4JNB9DqL8b/beu8mS3Dz3/MFk5vHlu7qqe6bNOEriiqIo7e79/l/gRtyNG7GiKHKmp011eXdcZgL7xwsgcU5V25nhkhQx0VOnTqVBIoEHr33e+y6ztpaiv0RxR+N/Z38J80J9Rof+pkHuXe2DAPcLqgApdxHxwElmQxuSyhXWWqqywhYF3sNisaSupVZCGyQ5ayp6vSHGtoGuu2WxXNLWNXXbBo+nlElQ8kCycHSFd5Zm7pnWM85v5hydXvLqzTE97dC7E4rxAG2NOEKWNXhJAxOBwSdngvcK73SSOHQIdI0BvsFBKxJOGHQZ9y7YuQ2eZAH5YLBLOlmU4iR+sJN6A3kBIY6OTIKKqirdO26dUBrVTcOyXob4w0YM+kqFfktmhsJTGk2/0CyVT9Jko/NRAAAgAElEQVSsiKT6fjVAyXxpXYtqYq5vrr4qtNUUraNso6oOrvXM5wuWywW3tzdMp7fBzlizWG4z2dhg4AeZVNcl66eA5DBGn+tkSHbMO99H4PErn+9HvPC9v//vq0JC9vfMAiD3WDUJfLZscU/7bwlyHxo/EYt/fqBLweox3CIu4jaU1vMeYyy9Xo+yKHHOMZ/Pmc9rlCrwGNrWUdiKfk9hGzHCL5YLahpcExh+DcLqARBsVtpolC0FPFzLoq2Zt57LmynHp2eMK5j0DBuDikIrYSBeLFB4jFUhWTxLyQq2cPEm6lSQRaSNTJqI/8KzOxdBPdKnx9APkcJkjnfXaQNzcdu6cE6XkaEzgMsXelJ3gzRaB8913USAcyh0YBj2QuneNhgFo4HY0BbLmkXYNFqvkoQMor3Gh4vP3LYO7xu867wrSim0UZhas7QN1kieKq6ldVIjo2mW3GpP3SzFK2sklCSmevUUFIVFKyvmgaAWR/XaObLyi5/R/D0zPRNWlcoB511rwq+e9En3Bz7qHp/f/qZZSNRHjLuKtuVfrOUqQgZ0wROntaJ1rRQens+o6zqpcrP5guubW+azpRRzNiXOSx3PqtKgxJ6llMZoQ1kUKAMNDqey2g1ebHc65H86ZfDK0uJY1J7pbMlsVtO6EBtmDR6o2xZ8i/UK50Rpira55BwIAa/GmBTUGgF8NRk/CkIxmFfAUgcEFKXOgA91HVS0y7kO6EKoiJBexvPul3BiDYXopGiaBucaNC6YERVtUJ+bpqaplxRFwdbWFr1ej/my5ur6hsubW66nc66nc5ZNiwk5qsaEFK0weTwinbVIkLFWLcY01LWWoGCt0XhqrWjqBU29QClPYRVFL6Z9KZxrWdY1s+lM0uW0QusBxkqfo9wlGyQI+3EshvM50zNXvUmbDEEb6MJUPvZ62efOapB+X7eVroLoO85b+S3bYT6yX3/TLCQfBDjSRvJx1/usXtw/bjrUFG2MMPUulktm01kAuwWz+YLpdMbt7ZTZrMYYhylAmQKlYx4koT6DBOqWZSGFZNqG2jXgO6ATtUr0TpnMUb2EppaFCRpTlKHy/Fzox9vgFHHJrRGuGwgEyKU5ndRToWHqJC+lOyBSoaKW1tFBEuS9YFh2QcJNdFCJFipCY/dCgo+ls8GFZ+4cFKICOtcCMk4WKTmoAxVyW9c0dU017PNwf4+9vQfUTcvp+QXHp2e8OjphOltQL5c4Y7BGd+prAh25f6JMcuLo0LpJ0qx3LQrHcjGnWc4pC0MxGdIfDBiNRgwGA8qyQitFXS+ZzabYwlCUBbawyYkkjocspvBz1dZ1gIsfEptLrkZ+8GLhIrkemvaitZvc24V0WnfefeCWfX6HJrzePlFdjT1Q3a/rN/Or3ydvTjQ63nNN2TE+HkLed+zHeEPje/tku+o9JpkPnvCOu2ilQ0S9GLdd61gsa25uplxfXnF5dcNsUdM4Reu1UHqHkoKoBue9AOJiTl0vZaJHGxWkYjIu/FM6SFURfJqGVjmWC4m9W8xr6hbAomyJLit0WeFqYUFxTZtK+EGopZBSqZr0tCpqnIFJJXoGI62SMTrYB3WXzqQ03reAEBCs2OJcK6pqUGlR8izRS6cye2FU4VonaqCop1JRzOOSNAlanDcu85Z6T2ELNsYTHu7vY2zB3t4eOyenGFtwfXPD7e0tob5iKNQDEoOnkpNE0QF04wLhgHO0dc18Jn/3bY1SjqIQOvqqVzEcDplMJmxsbFBVFUpp2rZlGTzB2hhKCLVawafJmCH8WlsHvjtH5SDysxjBfHadThwLTvm1Q5MhY7V3K6a57hp389i5dzGuihRy48+wyd1jPFz/3a99eZ/en/39U8b3Q2D4k/Jduy69+6tPVm1Xga6zdYRYp/BPeMUkQv7q6pbr61vmi4bGK5rIFNLUQWUTAKnrJct6KUbvsOKlxGDAszCRJO9RKkQpJBRB0rQ8BoVWBhVYKyXFy6KLClv1xHjv57R1MM6H3TqqnNGJ4NrMC6s8kcY9ZkwIwGistdhC7EsqjIcs2FgyMSERKXwkzh8lfRUSge5eEPviQyxdTd1GCU6kWK0y4z1CF5XCPhAHRFGUDIcjdra3GY0neO/Z29vDezg5PeP2ZspiWYtK3bhQIzbrr4oVaGPYS4v4OBy1d+BajIbCKqqqoKwqqqqiV/UkgX80ZjwaY62lbhqcJxTEWSbePRMqi+WTMXmv8/nqV8sY3iflvYsAI//2o1dTQp0MBLKT79Fl8p7ccz3S0rnLiOy7n3E9pe13/bJ/htzVv7fVJlJrV0FKKUVRWPr9Pv3+gKK8AaVoW89yWQe1dUHTgBS375K2U95metMxzszJwo3l7pQK1alcADooi4JRr2B3d5NHj/Y4ONhhNJrgERuh0oqyKlA4atfStG1Io6pF/UUIOiXmLYKaSG4uxtb5bjJKWEcAolaS/TvbHXgf+dL0GvMIRM9FCg1JmpFcyxEyIULmSJvSvaKjIEiRkV4JhW9UYGcXXr2yLOn3+oxGIzY2ttjd26Pf77E3nVK3jpPzK+rGcXxyyu3tjGW9wBSeMiTg5y3ZBAHvPFbrcB9LWRr6vZLhoMd43GcwHFKWwSYXqE58GDPvfShBuUhqvQKs9WljNMa8U11NQBfGKv097Do5EHbCQcjPDQDxSepOZoNd+frOGkjZtx+4nI8LZqUTq7bCrK/vgOe/g9x97Rc1P3YXj5PLGENZVlRVT4zNStM6UV9nsxk3tzPqpROQ8z6oaAICXQUnUZOAULMh1vHU4MA1svCVh15ZMt6YsLc54snjBzz98gGP9iaMxhXee+q6QSkoywKN8NIRgndr7wPXmdD+KJUFDPvOC+pXJl1WSdZFxo7u+bu1JCAnRJkmPKNORagjArhEzZTft6UOqV7xmpEcU2LOxJuqje5UeISrT8DH0uv16Q+GjCZjtna22djYYLuumS8bTs+vqVuhZF/MXzGbzWVsy67gc/cjgH4rXXYorNUUZUG/XzEeDRiPB4xGfQaDSsY50MM3TZMcKTqAXtO2qOUypdE5J2prdFbkXvsV9TST5CKopZYBXPdV3CwzKSz//L72ieam1WicdyGpClqgSjNo1ZmoOtuTevei/TvI/VmavADZ6NzKxJJJG3bsxZL5bM50Ouf2ds5stmAxX7Jc1NR1SxvfZ1z0Ku5iIVg0zJOolqXNznvqpXjsCmM5eLzHP377Nc8eH/Bwa8D20DLuK4wRPjuFqFTWWEzp0T4okkpi05YLRRsAxbkWvMSYdRJBmMFJ7Qwd8clyJt+TSRDBvqR1ZsDxCmgzai+VpCQpcN2GrIicIVgWr7HicdaR+FLrDjTwaOWiIi9qsFbYoqDq9RkMRwxHI4bDIc45Dg8P+e67W9pQ8/b09JTrm2tike280E/acjxSVMeD80okVS/L1VpLr+rR7/WoQm6rmCskpq8oSqqqRBsj3HcuFgwScgLtWrQzoTaEZEREQDeBtHPF3gYJ7BJ23QNwd4PnPxLg4gt8hyS33mLYDeTZD1mlt9X/ERHxDsDRFXvqMinyG8mPv4Pcn6lFg3qXTC7fO+dSFa6rqysuLq+4uLji+vqW2WzBshbGjRg+AUHiCcDmogaisjQuHywewTvatiKF4Ty9QcUXjx/z7//273z31RNKP2dxfQL1Da1rqANgFcZSWA26SJxn2iiUETbb+dTTNEuh6fY+xY5F+1AE2TiZffBkriystRWk0kYQxqmlqygWANIFadD5rIZrkkA6T28kGTVRKowST8iTjS/FE0HRYsuCsic5p0VZJjaRra1Nnj19StM4Tk5O+PHlj1zfCOjFWDUVAqI7zcknLctDsqOKl9cn73phiyCVGYkLbFuUQhhiqorWOZb1MuwZKuFIygrJzBXGdDmvuXTZjXc+H9/nje02no+PF/UfH6XgM3C7z8PLKlbGjWgVP/0aWGaB4DlaKnU/yL2PkXcd7dd3hHuuFqTKrgefnyr1l9vuG5f4fWc/6NQ0FX42TcP09pazs3Pevj3m6OiY4+NTzi+umC+W+KC+KefxrRi0JQM/CDqdy1DUV+8BAzoUaJnPcc5RFSW7W9s8fvSI3/7Lb/jdv/4LTx495PTND3x/9prpxRWVaRj3DCUi9VgTswgczhsKVUo9B2tQyuNc8ByG/FMgSE0qTcqUf9q2KRsi36GjUbybch7X+iCh+HQ+dJJqXHg60bCHa+hOmrHWJObdLrRF3kUb5mO0XdqioNJiLjC2AKVpWycGf6Uoi4LdnW3m8wXPnj7l9Zs3NE3L2cUl87kAvS1KYflVKgEQ6Z7BIdI01HUTWGIanHcYawTQAqjGLAwhPi2l0kYogBOfTcA6jGui2eyksaQO5lMyAt8H5mwOatGw/zFAF3SVTzLfdWrqu68fjADvwIxVk8idM4M2+1GS3F3jZN7Z9w+Aire/x1bwt9I+PC7+zvh570OIwIKr62tOTk44OnrL8fEJZ+cXXF/fsmwcShu0LdAOlG8gxGElo6xeuSmRk8z7LGtBKTZ2dvn2m2/4p3/4B/7td7/lu+++ZWs84Or0tUiPxydMhoZeMQJVhtoDGryjNQrlNFYXmJBbSShHqPAs5552uUzgHQNTJa3Lp77Fql1xUmuCzQ0fshe6sYnPGLMXcseDzp0SmdoiTMUmSXMRcKP2FgQ5KQjto0dY0asqMGOGozFl1QNthLrKz9EKiqJk0O+xu7PFky+/4PTsFA/88Y8/8PrNEcu6xtiWKDOseCkVGdARHAlLFos5dd0DoCgtZWHRJhXV6NRPrTHWZnMns8N6v/L8OchFWkDSWVGweT8Mhauld/RLpjgS7vDOvqyIZPecmau0KyCXnhbU39XVP2vLJ2IMAZlOp1xeXnJyesLp2RnXN7cs6zYYW2XX1tqjjUd7QCt0DN8IzgafzPxB+mnEMdA2DXjo93o8Pjzk3377r/zb737Hr779hu2tTdxyzs3tDecXl5xfXGDoU4/7HVgpFeqxilfSewcOlNEUvYqBH2G1Zq41c5SAXrQoBxySEAupUq99YL+Nqk0ArmjviyqvA6nhQDa9w8InSn2ZgR9WbVLiYAhVrpKk61PVrVYTiEoXKF8xHo/YnDzkwcOHbG1t0+8P0MbQNEtc20jx7qKgKCwHB/v8U/2PlFWFaz03t7fUYbxdpjon50Ek0oyOBDzL5YKb21t6VcHGZCjnZPbGCITGWlGbrQnjH/j8SKZWIsAlE0E4Jj52MvD7LpRkxUGxhhHx1xX8+EXahy6eAdVHHJ+rqkmKDlLo30Hu/6fWhoLR0+mU6+trLi8vub6+YrFcyAvSVuoqeI9WBmulPJ/HgRK1tQ4cdE2g/paJLyowzmGUZtDvs7ezy1fPnvPbf/kXfvev/8rezha4hpOrS05OTjk+PeXy/JzKtCy3RrRtkeyGMYgXrfBOJfXIWovp9ym0Tva/erkMRZM7G5nEdpFqtUKnBoVfgrSvklDqo9NE5SCXrPqZhCKJ/T4woaT0Mi1Oh9zzDB3ZpFYK71qaukGZisl4wvjgIfuHB2zvbDMYDrFGs6gXNLWEzFgnTL0729uUVUVRVlxd3XByekoTqOddYEZRUa0kxucZjFbYwDTcNA3z2YzprGS5WATaKJcAStLRGmxdY6zBKrEtihQc6KUyySXaQcNrwGXOEKVWZbOout/RPnz+8S9By/qwKnv3+LhfBPtvEKV/+RoPcWJmfY4T+FPH8nPPW5Fk/8zvb11N7SajWylaU9d1KkGY1wloWlFZ+70Ka22QjDyNa5jOZtzc3tIu65TtIOA5x7eOyXjM4cEh33z1Nf/4j//I02dP2dvfpSoKrs9POb84583REa9eveLy5DWVani4M2YyLGkHJXjbpWPpwK4R6w0g71QVDldV+NZhtZYsA9eEGLVo2I+8ciu6dXIy4AnqalRJ46RZkyxym1xQ1XyWoG9M8KjmNUrjaUFSVEGai38whWU0HrG7s8POzg6TjQ36gwEKaOuFSMXBvqi1Zjjs0x+OaB1iWjg7RynN66MjLq4uqZs2SF+246GjUz91Dr7JTifZGWVZoI3GGsmEsNYKT2AEfQjPCgqdrpnCTejsgdE5penU/HzurSwKBZIqlgOcv2vm+rnbuqdiRapUH98Hn5+aSYBh3f3ZJLk7Fb4+IIneSZr32Y8cOD/mnnlTHz7v52rrNjiVTfguFCJ4+9KDdUnYMTG9KISZpN/vYwsx+tfNEoD5YsmybjrjvPc0S5E+Br0+T58+5Te/+Q3/8I+/4uHhPlWvxNVLrq+vOD054ejNEa9ev+H67JjJwHJzu8t8MaBp+pK6ZDq1K5V4CD/RLhRVLvC9QMlUQ10L7130jEbpKTkYwiT2TpLMCZJJBCulOknFp3+dFBhVXoiFnWWR5wAXQTRf3LEWq9JChqmsoShLhqMRW1tbbG5uMhwOqSqJF2zLHj4UyyGAdFGW2KJgZ2eHJ0+ecHV9gwfmizmXV5e0TR0IDnzX7wCsKsTpWStOHa0lk6WuGyk/qSJ9ekFZFBTB60pmeI8bQQ5wuTebWJPDC8C6eFy22JItK4KJX5cdssX2SwHdfYtw5V5+1aj43muRdT6XAGVz+iiQW/GIZarIR517L4LR7dL3SaXvAkSfAVf8/C7AWrExZJIUq+yiv/RmlUtyqz/jzq5T4eROPVQpjSd2MtmcgkTi0djwT6PxgQrcNwKYhbFsbmzy1bPn/PrXv+brr75ma2sTgNlsyuXFOSfHJxwfn3J6csnt5TVXuxtM5/MgjXkIhJGScCULXbIcom1R47VCBeYS5y0FDqU8bau6GC66hZiNjNDHBVolVPcvHU+ngsefRDUagr1SQloip12UFr3rJkc8NsYX6gJ0UWJKKPp9RqMhm+MRk8GAXlEEjjkwtsSWwTMcwNp5yTopypKHDx9SB2LR84szjk+PWdZLnG+pm6UUy7bidRVyBLELWm0oraWyFhvUfY1OxaiNDSQMIashpp7Jw0Swg3x235ljAcx0WOg+SICd+t+9h/eqR2mRrp54n6wS75u3dzs63k9npsjmxUpfsl6oFbmNaJlePe8jbHLd4GV3+URR6M7RnSTJSi/Xjln5nAPj+85bue/dfqYUo/ef+rO3u1IdIdTBYmzI5Uy8aFloRZBM2kD/rTEikTjJO7XKYDHC0dZILFxpCoaDPg/29nj29CnffvMNjx4/ot/r4V3N7c01F+dnnJ+dcnV5zWy2lBoQdZuqhUUgVkh9UKkR6sU2F0DWeYXXupNSoqSCQSsfmH4DC0nnOg2LMvwavhYaNkV0LOSbUKxEmFHJpc3AhGyGDuAkTtCFe2WCYwI5ZRSmLLE9Q9kfMBgMGQ0HDHsVhQ7hOkpjTIEtoNUtKpB1CllADUqxvb1FUViWywUvfnzBix9fMF/MWdQhb9ZLNovD4pDAXbzHaEVpLaUJIKfkn9EWY0RFVUkiVem/fB5FCTGqpncnnPzPhRQthQQl55vNSipXJj2vXO9O5MC7kv7vx4R3xeN128/9zd/50P2+clYCurVxCM/v1Z/BJvdR7WPQ5r7N5kPn/ZnU0o9tMWZODMMaawvKoqSwecK6T+X6OsnJs6yXoDy+LFBFIVTZtqCqKupGqL1dI4Gk49GIBw/2ePzoEY8OH7H/4AGjUR+AejFnenPN1dUlt7c3gGM0HFKZVgpP20B+SWTT6CTRBDxKC7gZI4STRtNGycKvhrhEqShJ1h4CEVqaoBDpktZ5/1UCKCGHFMkvMo/oDFhTCltUv1QS+kKfA9AquY61JVXl6fUG9PsDer0+RVkGaS1KjCqFw4iJoSMC0ErRGw4oy5L9/X0OHj5k/8EDZou5xM8tFumhlZJNqvaOpfJUVmdj2j1j90EGSnKCSZJJLPiTnEKuk/A74swsCDkCnes2mnis/MVnipmS4s0fsxh/STX2Z2xx+f9lgNzHtvepp381rbOtWBsqOxUlZVGIoVkpfIjmj5HezkvUe9s24J0QNwZPYlFIjBVA09RUVcX21hZPvvySJ0++ZH//ARuTcbp7PZ8zvb3h9uaa2WyK0YrJxhDXVwJyRqp75dkZ0TkgHQ8/lEZpA8bhQjxXmxZZF5AagWVFwQm0TytKUFTX10YrSrZad2Cro9qpO/r1TloQ8BRTRrRfdX/yKkjRtqAsNVXVlypnZQ9jS4hFnhEql6gSCx2UkBfgHVppyqKkKiu2Njd58OABhwcH3EynTGfCB9i2Dh/7E6iXah1AVJG81qu2pzA20UQU7Y8esWHGfN2ANCvBzsngeX9MZk6seVeayyS4DwHYXwHAQQcXf10g9zfSckOx0pqqVzGejJlMRkxv59xcT3FtHdQzFSYpOKUSwHljM4olAbjlckGvV7G7u8NXz5/z7Nkzdna3sWV4zU7iryQ/dsp8PsfjKMsCr0qUgmW9ZLlcpET3FFwaqY0AUVYjAEiwalEUARQDE0krx6m0hlUSr1IWRCxDGBZ0Upcyleq+n+s1D5LRLbfZBEdBDKhVYbNo2jb0y6JtgSl6mLKHKSqxhSmd0qTE+tg1rzJpKCX8GwaDAbu7uxw+esT55TXHp+ecXVwJKIUCPQQJypYFRVVRVH2KSmp5REICE+P8YiiMCaaAqKrSaQOAcASmoV0ds/zd5fa61d/jWMUHDCrwx8lzH9U+FHz8E6780X38O8jd037ubIx8YqVsgIxFoyxLJpMJmxu3XF/dcnV1jQ48ac6rwOwhbBZLpTBK0ZgmSHg1bduknMh+v+Lg4IBvvvmaZ0+fsLExSaUAXVOHsJWF2I4Wc4mpCyDTtg3LesFyGaVG+T73aMbllnwFSqiKVFESxA0BZa2CNOTWpIwQ6BukCx8KJ6fQh9wBk9t+VPQodiEt8odsnMkETtXFzhVW2DrE3hhyTZXG2ApbBIArSrQp8DFExnfPGK8dw1sigMZ7lWXJ9vYOh4eHHJ+c8f2LH9FKS1GhViqoWWMpSiHIrAYDqkGfouqhjc0cOXI/rUI4TIj5S2pltJOGoYxe5c5z/fGA0mVLZPb2CJI/oz76Lpvcz3Dljwbjd4Lc3bw2kMf/gDfmr6L51U/+454o7qT5wfcbcrmzk8bcwwRyXphBmqahsJbJZMJ8Z85sOmM+X9C0jvr6luVsTt204CXGygcGDq0UbYiMrwNQDYdDHuzt8fzZU3713Xc8ffqEyXiMD0nfTb2kbaTmgQDdjNnsltvpDaqds1iorAyhPKdW2SJC0TmdukXZ8ZpZnBOJrnWR7bfTc5NEF8bHuRbbtoldo+N/0ysqaB4mkbzP6VKd59WnPqmkKktalJT2ayPoBAZka0WiskUPYyuUseJUiR6OAOrRKN8Z+Tujv/eOopTaEAcHh7x+85ZRJL6suypjuiqp+sIfNxiN6Q+GFFVJ6x3T2YyiMPT6PXqLHr1+L9k0PYGCPqy7qDqr4JCPDqv4Pu5LH4xtfdOI7ySugQh2uXXhXqfBCjbkKyffZlZV4g4+u/Xj10/Pr/oOYFzddD5OILkX5O4/UXqjeL/r96+pebo1+74n6l7d3YPvi3+L369POOgkOe+8ANSixntPVZYSyrA5YTabUTcNs+WSm9mMNqhYzhN405bgvdQQXSzRWtPv9djc2uL5s+d8/fVXPH/+lIOHDymKQqjOXUMTpL66XjKfz5jNptxOb5lOb9BuSdNUIkkk6SAY7HVngCdUvVdRsohSV0qMt3jfop3CY7qRi4b2bFPoKIRaKRUYMwaUegfI6U79jfZ56PSu+KICKOlAwJmXS2xqR9solLIUZZ+yGlCUPbQtxMboPZ420+VI1dvysBYQZhEcGGOZbEx4sLfH7u4uk/GYqqxYLISZuGklTc/agiKUm9TW4lAhBKWlnFvmsznLYSibGMYGr5LpoKNSUh3TcaiXIQDnVubcXVC7u2F0c7yzvfq1c97f/NrP7C9ZP9bXTx4Kdu9VP0ICfBeAr7f/1urqn9t+mk+uSLE0m824vbnh5vqa+WyGtZqNjRF121K3oq5e3c6YLxrqOjgkvMe7ltubG+azGcPBkMePHvHrf/o1v/nNP/Or775j78Ee1aAHradZNLRtHYoz18znM0klu7ri9vaWxbKmMh5rjahTvUq8rASlwK/bwuT+vvHgPEpLBP0KpbiSwjhCOdRR66QxQOyR2rkUE5hqsObvR0XJTCeJUk7uwoOjSBD/tJKgn9kB26alqVtaZ9ClxfYG9PpDiqqPNiVoC67J3lgXdJzQLQqznk7y1IpBv8/G5iabm1uMRmP6/T6z+TLlnNZNI8WK5jOM8eAb2n7FsFfQLytKazFaBVaXhnq5TMzOdSPgb0ygj7cinZoQIylZFKub7LotM4yQPNU6OMQNOTxg+muU7NYA5N1az1+m8PPfGuR+PsvDh9v67hkN73Uj7L/X19dMp1MUMBoNcV7RtJ7Wa7S54eL6ltbNJfWrlQrvdSP2rOFwwPPnz/i//s9/55//+Z959vwZw9FIbhyIGCPItQHkbm6uub6+FueDDwBXVfT7Fb1KQC7qMNEWp4ONSylCIG/n+cPTBTFria8jegFX9B/S7wokDCWpoXo1C2Rl7PLBhOiJzY3nqV6D7nJYVeina6V6Vt20tGisLen1RvT7Y4qyj7I2xKjkVkfC52iPoythqbqsFaUUVdVjPBqzMZmwMZkwHo2FDzCo48vlkulshsJR13MW84LlqI/yYwZViYeQtypS7WKxSIJpk9FYSVFug3Ux9csAUi8kH6/8Z/ccPpje1nncfHrX8nt2XhjkVanvXe0v04z1E0DuXQ+UD+xf3gOvt/uALvX6JyCgWvmQTZCwaxpjpJBJr4c2JqVwCRV3hfeGxdKxqMF7gw9x8a5puZ3PcG0r0sP+A756/pzf/va3/O7ffsc333zDZDIR213d0Na1SF3OBeJGR71cMp/NWMxn4Fv6pWXYL+j3QiiLMSkLY2UppNCQmOYVFpZ3eCWU5zawgrStknTkTrcAACAASURBVBzWGH6yprYnEImhEnT5rYI1wRifDWOEn+56PuppAnAmFgaK0o3uzgqA1PoWrwpMWdIbDukNR9iqwiuT2WcFxZNxPnuHSgWKKDqJSGsTUsFgc2OTnZ0ddra3mc5mXF5ds6iXosJraNua6RRurGZ622M5X0jZRO/QRUHR72HrBrOsU3B0G0CubRVtKxJq0xpsYbGNhCHZBOpyTrQhxv7n2mEE5pX3kamq6a1H21nUh9/b7sOD3DHwAf30zrU+ra2v4/wuP1GSW3v4O3rxpzzYn7fli2e9d/flvH7uE6wb66OkopSiLEt6vZ7UdihL7LJJbLFlq+lVSwa9JYt+KwzBjWM+nUkxGqXY3dvl26+/4v/49a/57W//hW+/+44HD/fAwWw6pXZtUtVikLELkkKs/WlwVJVl3K8YlAVlRlEkmQ2ZbdGHANXwXEKzTUihAm09BgtK6lDQemjFON+BRj6oPgMWeRlKC1X4fSEQKwAX05uiXVALS4sJtjWltKjZEFIlPF55oY6yhrLfpz+Z0BuPsWUPVCj2kzBXpNEoxUbm5XzGxF7F/F2FZjyZsLO9ze7ODheXl1zf3lBPl7ROo61OdPEaz3w2Z7FYMF8umDctrdK0SrP0UDtPv+0Lz1xK/xO0ikCV6lkA3rkkvab83VUPQhpzAgCuFKSO0vjaTI8A1z3/hyBoXXpchbpfUnd61xr9vLqrcaQj7vswhj4ek932M55pXZwG7i6Qj7zOneb9CjPKuwHtHkPqB+63YoKNc8xny8J7nO88bjHzoTcYsLW1Q1UNaGtHU4tKWteOetnSNg7lFVZbCmslYb+qeP7sGf/jf/zf/MtvfsN3v/oV48kEEGxpPIEgUp7RhUUs0lxD0yxwzQJDTc8qBgX0raLSGquE9khCYgPluBf7mw+2MB+nAAEMlSSDow0Kh1aeQoEJKmiM1M/HsEtRCgGuTiNhJ3EU87CV7v11qlXkUgvFb6zEvukM5FJ9RgXaGmyvgKpPf2PCcGub/mQzlV50bby3Frvj+kxIEpHv+uhBodHKUBSaQb/H5saE7e1NxsdD7Il4mV2UEJWoxK1zzBaO2k25XdSc3855e3HN9tsTHuztcvBwn/29PfZ2t9mejBkOB0k1hVjysKvO1oT5ZLLsB8G4YCLRakXKU0qFouPhd9+BUR6XF/RburiKjgbrroCQvSm/dsya0+Zj2vqSV2Rr98617kqR8SKfV3c13T33Jt4HKipNsI+++js8lT9by0Tve1lKoLMzfUbLJUT50EkfghNid2laF9QQRa/qw6bGFj1ur2+Zz26YzWtm0yWz2ZLFfElTtyigKks2JhO2tjb57rtv+d3vfsdv/vmf2d7ewVhL00JdS81Or2LQsUYchiH3shVHhHM1RrVU1tIrFJXVFFphMxtYHpagknrYTXRZcCrUG1XBOGaIQoJWCq+DFOm7QNaVvEkt4SRetRIP6NsVW1saU0+whYWRVrESl0FZG0BOEtt1yGHFdyqzsZZSW8xwQn9ji8HmNr3xBras5Jlc52Txd5ZR9zna53DRJtnZW6uyFBLOzQ0BpsImVUqF4GGChNw6x2LecD1fcn4z5ej0gtHRCfunF1zdiLMJpSW3dmQoi0rAPKT6tS7kGtdL2iDVtamYT7hnADgyaiaUQnnd7SXhPa1uJmnAYQXgOvvce5dInD/wccd/RMurdn34Wt1K/G/tePhZ2r1A6Vf+FA27Pqp7sSZe2D2ttZTeswhVua5vplxd3zCdi6OhaVqWyyVN2zIYDNnZ2+Xxo0O+/fZbnj59xv6+hIos64blsk42nGiwV0qF2qQuFLZxQWrxGK2pbEGvKCgjK4bqouyjMazzrurgYZU/O68Q8sqAfytDIICnlA/Aw/0g530Ijm6hbURFip5W30lUxOcBIKhmxgjBgTUoU6CCPVGjwXlaBNjb1qNUSVn1KQc7DIbb9PobVNVQPKteLG06qHgeL2lqmcay8k6jmrxmn7PWMhwOmUwmjEYjUWPXjPZ5rJ/2Bry8m/m8pqmvqRc1N5fXvH39llcvXvLjF484fLjP/oO9wHk3oT8c0B8MxStdL2mWS9m42kZqbwg7Qjd2Qd1yXqy7TgV2GFSioY/Ps2oJ/etvvzzI/RWO0yfFAnbzf+UK6Y9Bu0rrNFw/Ti6F2FPqZc1sNufy6prT83POzi+5vZ2xCKSas/kCj2d7Z5snT5/wzTdf89XXX7O3t0dZFYDE0DVN29mKlEqJ70DwMNYSL1cLrXeBprBWiAK0SX0inhelQZVTasfrggrkci6aAVaE4OBBjewqCUCAFFZCArnWtZI7qhqpEh+kv7h7RzWrCwoOaVDWBq+uTv3V4RlaLyEZTQvYkrLapBrsUPW3KKsxRdFHKYNrXcTzZI2J5gy1or2EJ8tFXQWRiFIbQ6/XZzQcSbHwogihIDnxpYyFMSJxei8sMm3b0NQtF4srrs4vefvmLa9fvebFi5ccPNzniy8e8+UXX7D/cJ+d3V0mGxv0epUET5tQr1drVKsCyHUszT69vPiQWUaHIr3flTyPfED+GhdyaH+X5D6pKe5gn6JT36I3KxnUVQI45SUdyxYGYyV30nvFsm64uLjiKFTqevn6iKOjU66ublgsGpqmZXo74+bmhqIoGAwGPP3yS/7hV9/xxeNHDAf91JUVR2aYk2mBec+yqZnPF8xCAvlyscSoVvqlA3NuWBy5jaZTt8UWpLyCQDGOAuUk6r51irZRAfA6SS1DRxmyIFVESdMTDNux2pY2qLUQkvizi9TvbEyd8SeoanRqbtt6lrWjbhXalJhiQlFtU5QbWDvA2EoOdMs1e9/KC042pW6sM+kyjpGS8Y4OpbIsMCFNbB0jOpAEj4S66BB649DgWuracX5xw3xec3p2yY8vj/iP//gvtre32dndlX87W2xvb7K5MWY06tPvl/QHpZSP9MGj7lxHsR6eL1dE5fU6XCbB3xcb9zntl8td/fj2y4PcvZLOX3p7hxTXGaJWvuuWs0oIk+w22aJRwV4laU+wWDbc3Mx4e3zKn77/gVevjnh7csb5xTXT6YKmETVwuRBq9Kqq2Jxs8OWXX/DV82fsP3iALSx4AuNFaPG+SgmzLxrnPctlzXQ2ZzqT1LHlsqYqwGikfF8AClLpwNj9qFJ20o6JtjDV0ffoVpZIixcnhOuYPNaj64EQBBz3CYf3GrRHGZceROtIo5RJmKEXnb3QdQs4qrhK4x20zlO3nrrVlLqP7W1SDLax1QRteyhtwbUJJBE3S9ibVOrHutdxRZKjm+bR01pVFWVRBk91PCyXcbM5A2hlUFIMI+xWstk0TcvF1Q2XVze8fnNMWVgGgwEbIVRlf3+Px48POTzc58GDbXZ2NplMhvT7FUURQmqQsBOlY51atwroUYK7s1Y7YE/OxU9sv1zu6se3P4skt/6C33+sv/f3+1JVPud6n99U9i9dfe3ZYpxXV2tAB1XNOU9dN8yXC66ubzg+OeH1q9e8fPWKFy9+5MXLl5ycnnM7nbNYSshI2/h0zeFoxO7ONgcHB3zx+DGHB4dsbGyglaKulyFKIsutJKT+CPEa3nmJuJ/NE8C1bYsuJYG9KgyFiUVpnBQ6Dtzk0V4mgCRxbPgYhCoURJGeMqZT+RAqkXtBZR2txtvFUBXtPSChFfm7juOXjbjcLx4Txl4rL6EnYeFKCpynbqFuFQ0FvWrEYLLDaGOXajCWXFUfVc2OZUUpkbwF2qK8E8dXDuicMZAMkkoo2CWouk+v3xWpjhT33nmCd2N1SeSSc5JYhTjPt1IpzXnPonY0wSlxeXXD0du3/On779ncnLC9vcHu7ia7O9vs7W2zt7vN5tYm49GI/mBAvyxD2IhP9XLbpk7v13shJojxhUrJWEuXfHIufsqauu/4nwJ63aWyDSOT9O879pcvZJMbpD713J/oXf35Ae7u9yqoq2T2qqhGeTSNI0W839xOObu44PjkhJcvX/L99z/w8uUr3hwdcXp6xs10hvMKbSytk3QehaQMbW1u8ujxIx5/8Zj9/Ydsb2/Tq6Tak+Q/Sj/y96yUgG0kv1wua2bzOfNFoFJyHqM0lTVCxW2CxOKFGFLK34nK43wbVFgp/JxXticAG4pURwFngExioJMIu9g3lTRNpT2aWBshLig60s34PuO5XqX4txgPJ70lUJQ76hZar3CmQpsB1WiDwcYuw80dyv4QtJb8Ux9JSl0IvwsvM3e/++xHNq86iVf6ZoymqkoBuaCyWmtxoQ6Hdw6vo41TdQCZzyoFkcbdaAmNibYID3jnmC8bZvNLzi4u4KXDWs1wKOEre7tbHBzs8+UXjzg4eMj+/r44LCYTAV4b2YclnrELbs6ol9ce3Ie59amS2X3H/3Tp7uPWdRzev9vkPqZFaS0F6QTjtg6FR7Joc++lJOB8UXM7veXqSuqanp6ec3xyytGxFJA+PTvn7PyCq6trbqe3gWQxqHCISlu3LXjFpKzYe/CAJ0+e8OjRIza3Nqh6pXTN+1Qk2a+76pVcTwfJp65r5otF8sB6L4uosOJZNUipPqFucqF+Z+e093ha71EttK2hjXVWk+ooi0FAXweNuTtbNoSOxihKwQJ30TQf7qfjthIkQO+C9tt5qQXgosQoXHZ46feydjStwquSajDA9jcZbe0y2tyiNx6hylLUategfYNKSfkduHV9fL/FJQKzwqO1oixikHfHF0cjGSEuPL/23dlRSgriXLjSuu4YPcsKjAoStBaJzDXUrePmds5yWXN9fcPR2xP++Mcf2NzcYGdnm93dPfZ2d9l7sMvu7g5bGxPG4xGDfkVRVaEPLgWMx/cfN5bMVvCztA8JIJ8DpO+65t80yMXd/VObv/eXmHjeefBUoL0BLQwXjXhCb2+nnF/ecHJ6wdHbU169PuL1myPeHL3l7fExFxeXzAKdUpvCJBRKW7SROC9ClIkCer0+Dx8+5OmzZxweHjIcjTJbSZiIwQ63Fjob7PId+Nah/GGM0TNaU1pLYYSVGOdShSrvRCuNwirBLtd4j24NJoGcIS6AVcEkFyvTKIoUk1TXbpzj0Tqf4NHu5oA2y2mNtiUc+DYBnI91SxtH4wyYgqo3oT/ZZbixTW88puz1aY2haYME51sM8boqCk2fNFfic2ilsYWlLEuKogw1G+IGKHGSeuWdyVVUIhyI7zEbtJXNlVQTIr5zF+i3nGtYLFvm82vOzi544V9SFEVgt9lkb2+XR4eHPH58yMHBPgcP99nd2WI8HgSJ0wT7pxEnkPIrOcQ/Z3sXIOW53Z8KdPe3nxwn59fAfX33+bnUxU9rCdyUSlJD+j7v0ppYnsxrPocLATNrijBpi1BkBNqmZb6Yc3V1zeXlFSenxxy/Pebk5IyTswtOz644u7ji/OKaq5tbbqdT5vNFoNLxgE4sFfh8YgdJUSmssUzGYx49esTz5885ODiQgjRJzIiu/7Vnz5/Md0WLJUYuxKT5Fq2gsJqikHQuUF0aGC49v0bj2kC/TUj6Nw6tXZeQD0j2gk99iwuxi6L3HZD4TgVV+dMrOgqsqO1KuoZIcPF471bGLjohfKBvar3CFAW2N6IcbmIHY3RRQSAFEKTNGY/T66fr0d2Wa6gxzzWOfk45Za1J5QBX+hcCcYMMDJkkd+89I9YlbULhsnoM4pnVKCweLU4XZXBtS9PC9c2c+eKEy6sb3hwd859/+CPbWxvs7myxu7vN7u4Oe3s7bG9vsbW1wWQyZjjoB++w3MWF8CQJdemKYedrPq2mFZsJK8d0o/znaHLPnwBy75wCn3/Jn6GptZ9pKmRqR6YpZGYXlSFgjO8K0luIwfJK4xBwq5c10+mU8/MLjo/f8ubNG168eMGLFz9y9PaYs/Mrrq5nTGcLFo2jdWLQtVYqMhWmS4CPE8cH21kMnyiLgkF/wM72No8PD/nyiy/Y3d2lLEqapk2LXIWHyoEuPWKwm92xhzmH8lIr1Rot3lUTnlXFAqstUsRYhwR2j3dSnq81XR6uUeIVjfDgV7x3sVM+SJT39CXBSvaCVPcGIyJGm5aoqfE7CUiOBnICkBAom5QtsL0xxWATU43AFAIC8dppoKJjZJ30/ENzrQtridK+0VIY2mgTJK64C8V3sXrrND6rO/A9B3XSr3JZkZ24KRqDNjaNuwvj1bQN80XDdHbJyek5WhH4C/tsbkx48ECo2x8dHnB4+JDDw4fs7W4zHg0Z9EqKIjhowjPKM2Wbsl+D52hQjUOcL8BfrL37nX0GyHkSodZ7L90d/sl3uGOIVe/8m/x95bfsQhHgugH34ZAUC54kqJjSE7i6Mq59j8SzXd7ccn19y9n5BScnJxwfh39vjzk9O+P87JzLyytupzOWy5am9TQupFVpQBlQkVFErSS7m8D629Q1raslcr7fZ29vh8ODfQ4PH7L/YI+NyViyFhpR0dYEEeJCis+bbDnRwC97PVZ5jEL2fiVl8kxhsWWFKYtAmd6AF+oitMFrj1IBwBJYOTxtJveEMIy1iPtku4vvMEmLGbjl8XSZTd55sQW2wcOowgNGgGu9CVKVBkKMn/cYvEjgvTF2sImuRqDLBIgqeKTxCochRv9GGqm12XTnt+QFTVXCxCMrdtoIdJEHrzs/mi1dtLHlldfvVbvuX0Q+ED2knkYsjd5GwGuNJtBZOZUo95dNy8X1lOm85vxqyqujM37/Xz+wu73Fg70d9va2ebC7xe7OJltbG2xsbDAajej3ehRlJaExEKif2uynS+tq5ZHWMPveFND153uPCppv6XFs1y8ZpeNPBLnPQKyYu/mxd/iAQfL+c/KNY73+YrajrHaMfP9R6GRji3ax1kO9bFksFlxcXXN0fMrrN2959eo1P/74I2/eiFf04kKyE+q6ScBibIE2JYXVaB89lcGWF57TBeO5DqEHzsOybWmWNaU1bG5MePzokC8eH/LgwS4bGxOshdopqbgevWFESeJdQ60Shmglgb+l1fSspjAKq8AYJZQ9vQpbFmijiIClkIR3rQxaOZwKjo4Qn6aDCiVdCCn9vgO61Ics9CKCcRRy1CoSR5kwEQREkoDkrU8AGNhD0KQasWisNmhdUJYDysEG5WATWw1B26Tqq2h8i6En+Yy4I0h1cyotpghc2eqKG1ZhLdaYVE2ryw2NTxZvER947YYfuQ5SGEvogst7qmRcjTYCdN6mcyIj83S+5Ha25OTsEvPyDYNexWQ8ZHtrwoPdLR4+3OXh/l7y0m5tbTIZjxn0epLNoRRKST4t4T26GC5DZnu893HW9a5Paeqez2tbUjADfJ4k95fYvErP2C0r34FsjntRfgqLXofK5daWgKJxnsViycXlFUdHR7x69ZrXb454+eoNR8fHnJ9dcH19ze3tlMViGYgsvQR0BnVPaTHG+9CFlCrmfaD0cR2gR3oc70PZuZaiKHjwYJfnz57w5ZeP2dqcUBQq9T8mnev3FvoOx+fSqoaiMPSrEt+vhEOutBTWUJSFGMxDbFckoRRg1mi9Ss/jUok8E+6WgbjcOKsTmvUl4kjagTs1tnt/q6ptEsFZlwT1mmqkUaaiqDSqHNMfbzMabzMYbVJUg2QDTeES+R6c3eMeffKOpJAewnfAoRSJwbewnTSXvH/x+eOuk0k8vA8P7mnJq0iUkePGrd4PGyrGc4Yz4/zwsFgsOW8bbqc3HJ8e86cX3zMZD9na2mJ3d4fdnV329/Z4sLfL7s4O29vbbEzG9KqSoqxQiINruRTSgJWxvNMpf9+Xn9xyIaf7rhvFz2Mh+STR7NPv8Okt2/6BaLX2KwDns6O7xHXZhQSYnPMs6obr2ylnZxe8fPWa3//nH/jDf/6Bly9fc/T2mMvLSxaLpQCM1hhjpUh0aTrvK2K8b53PFlEAuCSF+JUXkTy2CrTRDAd9Dg4e8vz5c7744hHj8bBbyy7qqKuD6/Nrxe8ieHhJGyqMoVcWjPoVul8x6BWUhcEWoYZrWWBtkfIqVfyXNoNYrDjYw1zwfCZpci1da8X2ti6pr0pAUT0VzdZ3iy8cmoKHAR95T5R4Gz0e34LHoGxBYQbYwRaD8Q6D0Sb9wQhVVqFP2Qaj0qu506NVlShKKtzTckeN0EsVVngBxQZrkrMqSrGd8s7K/6NA/CFBLg+biJtF8kjm45ZfO3sySaEz4T7d8znX0rQNy9sFl1c1zjdYE8pmDkdsbW3y8ME+hwcHPD484PHjxxw83BdqqeGQXlWG9RU2+pQ/G19u3id1z+fPaR1Y39f+JkJIIobFVKr4rGmRhUFWSuwlpbUYExayMizrlpvbGWfnV7w9PuWHl6/44cUrXr5+w5s3bzk5OeX6+oblYhGYWasulSlKYUqTCvYlae0e9TsBXLRLxLqqgUzRaHq2YmNzg8NHhzx79oyDg0f0+yOaRlTbVAP1HVKczPk4aV2SMApb0O9VjPo9xsMeet6jVxYYo9A6qKxBAjGBbSRWztLKiiSndCiy0gawCOOdAqKj2hlV2DU7U7RD5UPiPQ6HcqtG/O7icQlkanEQkY32oGU8a6dwTqN1D9PfpBrvUo62KXsjbNEDbWl9swI08f7xPivkkGuItm77yd9tDsgiyQXmXmOFJWUtST+GDa1svhlYfWqL8tu9NutuAFdCNFbOzl9ReN8YjfYFSkHdwGWw4Z2dX/H9i5dsTCZsb4kN7/HhIU+//ILDw4fsbG8xmYwZ9AZS5nI5T8WY7vqsfy5p7p7nDpf9mwA5WN8gMh09rRlZcCoCkoe6bqnrJdfXt7w5Oub7F6/40w8v+cMf/8Sfvv9R0qxm8+DJBGsLql4EuLgXi4oZpRUJoOyALnYpdS9JNd2CjvYRraEoC0aDPnt7exweHvLo8aPgUS1oGgErFwLo3qmpdpp7up/WmqosGPZ6jPo9hr0KegVVaaQwig61Pq1JBWCimi3FUoKX1XiM84F4s14d/ZQClAMdK0CnUCvgsQ4UncfwvofyCTujqVUriTELyRm0XqNMDzvYpBzvUQ63MOUAZSwxQDnJTn51cUOu9q19r1Z/rjTfSZ0xl9cGVdUm25yhDXOjE8JXflm738eDnYcUd3hv9+7ZWGKqYXePbk4qbUO9jrBe8KE+SMPtbMHl1Q3OvZUYy6JgYzzii8eP+O7rr/jm6+c8f/aMJ0+/ZGd7K6Tl2bBegp02EqP+dGx7b4tS7k8GOR/Ur89J0/icHau7T6dK5PMkfasD64QN1c6teJiaumExX3BzfcXp6RlHb4558+YtL18f8er1EW9Pzjm/vOb6ds6iblG6oCgLQGEyyqCU0+jzqZr/t9qf/Jm7QEd5liZU0SrLgsl4xMP9Bzx+LCk529tbjEY92sZT18vMnrQ6OcNISL981xeU7MzWGnpVxaDfo1+V9ApFbaCyirLQFGVckCHfNi5c10md2kiwqAeaJtqZHMZ0tRQiAq0D8H35heuqbPybMbFS2OpxOZigg1rmHbSethVpo/YKrUpMb4NytIMdbEBR4ZK9ihVzwfq93z3fur6sN7lmkKUUwd5lQrycSZKcMLjcf/6d77Pf7+vbHXNHd/Ddr+7e7R3PHXfHyKqTheYogzJgZEKJJO8cy7bl4vqW5vsXXFxc8sOLH/nx5Wv+6fyCZ0+fsBtCUXq9krauWS7nIX+307zifP2lEvl/uiQXwcV/Wic/B+BW2/rLUR3Yhh1IG4PSEgLStIqmqbm+vhVwO3rLix9+5I//9T0vf3zF2+NTzi6umM6XoIxUVzclRWHStX2qIhUM/5ktJoFbzuGVL3zWtLakyflUC7UqCzY3hWXkyZMnPHiwx2g0RCtwmqQiZqOY/RTQXFWA5EZaixpalYUAXGmojGJhPKVVVKWlLESCiyqPJJQ7SZk3HcGn1iYtJKXEPtfVSO3iwGR4ul+idPc+KS63MxFCFHJJo4upi2OqUrHttlW41uCVQZk+tr9BOd7G9idgivS+IlDyLpBYGbpPmc/xPYjEmwKCiyKo/zHDogNqn50chYX01UffOZ7/cf3u+rnakqlHdUKmx0PrkulBa8l5LYoCCB7apsG7loura85Ozzh6c8Tl5TWz2YKbm1u+/fZrnj39gn5/DN6j60CTnz1ovpn9vEAnc/KvWl0V97ksbK2kapItCkxR4JWidZ75subm5jYkxp9ydCQhINHWJp7SG6azBcumxSuD1jZ4FnXa9SG8jBgGEQHNx5CJ8HsI6kwA5xUQPZJ3xBuApK4aa9jb3eWrr77i+fNn7OxsYwsTntVlQBDP92TRzPe0MDohDchoLeEjRlEYJQBXGKpS7HBK+a44SmAOxiGTW1kUBoiqukYpgzEdkOeBx+J4cYmeKXeGxHd3Zyz82vdrwJTGAGRMvcc1Lb5pcM6gKLBFj7I3ohpuUo62sL0hDtUl4jtH7ni4T6L5LK0kW63Ju1qUyVutjcbXQlkOYNo2APmauhoBMOtXXPzrffwUQWHdQZF/H59A/saKphL7JDdNMl4wYyiUMTgUXju8blnUDa+P3uKBm9sbwIskV1USrmQsXmtal8XUJZr1n7tJX/+qQS4um0gppMOLX9Y1y2XDzXTO+eU1b49PefHjK358+ZKXr97w+s0bTs/OmM8WuJCojtZoU2GKAG7h2jHFCeKQ5QDXChsH0bMW04zi+lTgJUA1Ta5Mre48fOIQGfYH7O/v8/z5c7588iUbG5O49iUN6177TT5B7k4WvzJOgTvOaqpSU5eWqrJUpcUWoiK2bRNqHQSabOfxbcdKolzwEKtQvyFm0stszW7cAR4qVnzXrDcdQzqc60IaM1UyG7IAhCo9j/NOUs1qh1cWW/Ywgwn90SbVcIOyP0IVPXyzxLUhv5XoGb5fkvtsScL7pFBEm1xZCq9cVZapjq1zwiyTyEdZ1TDjvMhB+GMB+F1/C6/gjhS3AnbZgd29Sa9UrUmaUd0UVmKFVhXGCBfeze0tf/r+B5aLOZsbEx7uP5ACP5MhpRWOiWQHRgAAIABJREFUOxokbxsv4/CLaKp/dZJcHORONdPBDV7YgsJY6mXD+eUVx8enIXD3mNdHx7w9llzS88srbm6nzOZzlnWL86FWp+qS71PIZlS3XJTMErwlgEtSXLR/+eyokJ9J8EDmSdYR8FzbopSiMJZeWbC1vcXhwQFffPGYhw8f0u8PaBuHVy55p+4ZlezTurLq0+RNSp7WFNbQq0raXiXxTUUR7GpBYozqljGSr1sUYlcKoRBKxxkZ0r9Ud/80joFLj+CkMcYIG0fsTwA2lwAuW1zOS31UyIzjUVUWsIj2QufEFKHLgt5wg8H2AwZbe/SGE0zZwxsLrgaXG+Xvxryt2ww/VUrKj+5ArqTf69Pv9ymLUiiN/KoGojIJN14lt1UJcObmjk9SZFf6eF9bMXGrbBblpoN0AKv7aeyzlz4aW4D3LBdzlssZp+cXvPjxFX/4w39RWMOTLx6xv7dNUZSSuVLXK0D6s7cguf5VgJzK1ZbwnTYSo6aUSALzxZLLy2u+//4Fv//P/+JPP/zIDz++5vWbEy4ur5kuappW1EhbWPlnI+ssKN9JWvIzSzTPwSuB3F3bStZNwiWSNAKdyqHoPKrWaPq9islkzOGB5A0+3H/A9uYmSiFBldFGxt1df00JzEetk5CilGFEnZcaBEP0YihUO4WE03it8FqhjMaWBWVRURQl1pZYWwQmYJ0mj0//R5hF6CQZ7w1etxA8sybEi8k4BYBTSgrWqGCnycbaEciXkldcpVQi74VkwDuPV5bWKHQ5pJrsMNx5yGBrl6I/FNZflHDc6bBJBqOTSu+FO6pg/O5Tga47VzYJoVyq6FU9CluIvdP5blHnUQD561O5Brcmmfu1U39CW3lm1f3IgW71+DXNMr6uOLeDJxZtaF3NbL7g6PiYP/zXnyjLgtGwz/b2Jv2Mmuw+R8zP1kJffzLI/dwekY77I99BJJlcvpcJWVhL1evTtJ7zs0tevnrNDz+85Pe//wO//88/8vroLde3M+bLRqQ2ZPF2QYpKchfVmnsgSnCsSUk+snzliyUmskdpTSd7XTqGfPIrYXVQirZpqJcLdFky3t7kyZeP+fr5Mx4fHrC5Maa0IV0pOTtiD9cm/cqvPh0VP7eB8dUrQ9EbMBhNmGxssrW1TeWmDCoJLbFG44wBYzBFie31KasehS2xWuLmYkWnpNp4na066HKFwwTWXfiJDiprkkq0DqQEMnYqJNWDBqNRugBjUUaK1KQqYd6J+lkvRTor+3ij8KNt9MY+xdYBdrSNtlXgqopst93yFekhrNj3rLEPze076l68g0aYa6yhKgqqosCGjBbXtitEoGmmx40xfdu96zvbWDdR7+3r/Qb8NRFsddav36ET0NP1Qx9DaJHP/+C77TYNrdY0znNxdc2Pr14zHA05OHjI4y+WDIYDWedKd1E9Wd/Xn+fOc3wsLoYO/YVJctmLIl+sgRsi2N6UNigUTdNyM53z4uVr/tf/+t/8v//xB/74x+/58eVrrq5vUMZSVD2px6klTkpFI1ecoC6bnuueP786kXzXna6vAdzIYuU65TaAdtJU40IHfItra7Qu2N7a4Ktnz/jm66842N9n0O/FTiTVDu5KG1mvuO/NS9xeYCrRhrLqMxhPGG9sMt3cwjY3lLoJTLEBXIqCoiopez3Kqk9hC0zijlUhY8Ov3U0loUPFKvU+cu+5FakjMru4uHEF9V3CLpSoo7ZEhX+6KNHGhjKIDlyLV2LPcYXCUmBUhR1vYzd2sZMddH8ihAJNEwrquJWt85fSjsItINgfY6J+Ya0wtTiPbx1ed/Mqn1PyOTdrxAt2H9U97/u+afFuT6V6x+fsu1wqTRcMN4pzfx0BlUjYIAHjMWTrdjrn6OSU8caEk7Nzbm6njEdDwIvpw3cs0x/V/3ztfah5QP3F2eTyKZgJzgFvjDFUVQ+UZjpdcPb2lJevj/jf//s/+J//8//hj3/6gaurG+q6pihLlAkqUqA16hYUQRLzK2J5DFG4z07gQWxAEXQ8QXXNYuU8ndFYrb6PpFbGlxnuXRUFD3b3+Prrr/jm66/Z3d2VKliEoN+fJM53fdVaY8oC3+/TGw7pj0a0syHGzaSASnB+qKIMamoPW/QkuXsFbLsmwJbrzyoUPjZCyaRC0Wnf/XMeItFRSglTWsgBjHi2vSmkhqq1UmpP6yB1NXgcTmswBYUq6BUWXQwpJ1v0RhPK3gBbFPjIuIHYNLvN8uMFAViV1j7EhiNjEtPaOqAzYVPucn2DTU7pbr7EsxV3PufCcvpupY/r36yq2+92SMQLR9KIu9fJnyudlxC5u3ba9rwX04K1aKWpm5rrmxvOLy64uLjg6uqKjfGQqipSkZ+mlXKaIdLw/2PuTbskOY5rwWvusWRmVXU3ugGSAiWAeiIl8sx5573RzP//DzNHI4mUuGAhAALdXUsusbvNB3PzJTIyawG6Ae+TnVmZEeH79Wvm5maL+X+f9BMDueWkB8TJm3eMjnF9e4f/+uOf8Ps//BH/+R//hd//4Y/49rvXILIStKP2fsMo6nY4e6a8h6NYiDoaXcz0nlT3NjciDTq3FPRSoGQ/QAjizJF1l9PIjtOLF/j447/DP/7qV/jkHz7B8xfPACAEleZZeR+VkkFLhmCpQFnVqNYb1BeX6PcX4N6BIWYjhgxKW6IsKpS2QmFKYc7Qncn7OgrSTwZg4/V3MJDYLbJRYHzoO8AfffPHxsqyRlWuYGwBNhYwftNCdYA8CUhC+gVGbCCrcoNy/Rzl1Qus1hcoqgpGTxd4kINhhPPMaWHva74FdvGQFADOiK2cGgNLBfRIXlxs44ZD+ox78sApOIplfbCX3SNmfiLD5NnZT2r+o/UgEzayxnHAoWmw3W5xfXuL65sbvHh+BWvlUL96LZmAnOP8gOmdg9xjFbgh+VsMEawtJSYokbd7O+Czz7/E//P//hv+7d9/j6+//hbb/cEzt0I8vxpv4+Z9trE6+Vs4CxWOvagVPXRSyqrrks8pLUkBUOlmCnSp3xthgg7OjSitwWolQUc+/fRTfPrJJ/j4lx/j1YevUJUFhsFHQ3fnV+LHJQ8MRQFbr1BuLlFdXKJ3HcZ+gOMJxnlRgwpYyAF9A8+iDAPsYNib1WjdE9priLyLJgJQyFE15+N+TgyexiAwGq+zK0rx/lJWa5TlCuRdTrlkESHdxVEDZQeMDnC2AFVrlJsrVBdXopow6opd+yHaMmJBp/nQdK+5SSbiCUuzRYGqqsVGrNSjTcjQiUhBIqo41CA7qFayUntdourAMilkuWznjYNPz81zp0DyRV6P21EEb4j4OkzOs7k9rq9v8PrNW3zw/Bk2qxrrVY2isBinY9OiHzK9+2hdTxa34gQvSlF8971Q32/+9hp//svn+M8//Dd+/1//jf2+Q1muUK3WPgqRnHJwyha0HKo8Rb5SCtPyOi+KQKcXKYtLB/Kc1c1fUVTkcMc4yMkGVCVevXyJT/7hE/zLb36DX/3qU3z46hXWK+mOrvcmI/c23ePalonApoCt16gvn2FonmPqD+j7A9w0oXRis2T00Q5IIq7E9iKK8U2D3tLIYuGVyQDDFj4gCo8hnoIwRgJbi9KIwWxRiXhsipVMcOeAaQztx5gkNmoIlQiMbMBUoqw2KDbPUKprc1Xqh3KF3oNShVCj76MJwIwtaZ4Jy7fWoqrEILgoS+/I4TjjoC9U4PBMT8cOhSvS/3R+nNZo3Mfg7pubp+4P9yXsTeaUGp/rdaJvm8YRTdvi9m6Lt2/f4kYDYnvG+66Oc2l6b+LqU8BOGtmiLMS/2f7Q4dvv3uBPf/kMf/7sC/zt2ze42x4wTkBRG9iygoZyi2fuEMW2ROyUcZTs9iEGV5FLWS+SlcsDYGBuCaA5l5uUKJLG8SwTfBoH9F2L0ho8f/4M//ybX+N//s//A59++g+4vFjrneHAvxT/WA+U64lCJrOkFZedWSa/W0sWtt5g9ewlXN9gbPcYDlu4qfVBryT6l5smODNJO1KMSxpsAmd5BUbiN1dgLIwtYa04tiQ3gpnE04n3mltWpfiuKyrAlMGNufralHbQP9jr9AgTDCZjgKKGWV2ivHiOcn0FU4q+NuqWOGkL7TO/E+4dO2rfx8bkrDmXxm2qy8KsT+J48Ep4r5cLk/kUIGlpEwRW4EivUfDOxVXG7AtfvCiuPjUd28stgxwgZDtsPHnWrIb10+RwaA64vrnF7d0WXduJGiOxTV3Ke1Yj/WGxnovPwHsLLv3ERvYbBcbrd9q2w7fffoe//OVz/PWrb3C73WMYGTBFiHQFr+AVsApKsTBJAhDlVC5fldIV2Qf1FKDTCiXcIAW6pOgmPJZD4Bh2E6wRUfXnH32E3/zmn/Dbf/kXfPyLX6CqSgDwHn+TDCjmkxZYSSdRclEoU3q9vIt5FsHBwFYbrC5fAUOHfneN7u4NxnGQekwjpnHAaHoZolZct5N3eZ/pHZMaU3j5/8nCGgYXMQaDcw7WytnHoihRloV4UDYWDsafJPPxGdLdaq/PY2ZMTJiogLMlTLWBWV2h2DyHXV2BikpMhXxfqwQlOjyAOR7TmxhijpK262N1cOmC579yetTPmzypIbQ1y5M5heKjHyh5D+XzYzQJQRDuP6OoO7lR8gAW9SDdJCOMCHIUTzL6c+SOGU3bYbvbYbvboe07P08xH77nSoKlG+5jrD+pjYd0JYsueWRyjOOE3W6Pb799g6+++htev7lB148wRSkurcli0niZrOM1gpbq1IJJRwpURwVJJ1iCOcnKn068uLJFEYJIzvZJYOkO0ziiKGww+v3000/wP/7xH/HJP/wDrq4u4dih7wZ/1CUtygxIEh92hY9FQQkQOucwTnlEJdErwjMkC2PXqDcfgIYe3eY7NPUG3LUAS1hFItVnOn/Swfhd06TuvmEESEjXIw8igAS61rOtEmCFmWETw2Dj7RaZ9dyrB53gjM8F05xpchLCEYTJlEC5hl1dolhfoVhfwtZrACXcBGFpfmdafAgSTGHEGWhRghnoux6dD7LtUn1rMj60r7VP54tb2keB8bgI/taYaEJi9LSHWi2dV/aHHcxEIHkXSvlzuryl308+J3vnIEmpRxaQwTCMOBwOODQH9P0Q3KQv5ftDpp8UyKW9TqR+8cUerut63N3t8PrNW3z73Wvc3m0xTgxb1IBvRMeqcE4ex/mklG9D5OJlcSTTN+l8i7uo+tIJv1QP7TPHDkPfY5pGXFy8wC8//hj//Jtf49f/9D/wy48/xgcvnwMAunYKh+NTMWXpXT9PPgCwFsilGyWh/BzEZmFUBsauUNQE2nSoL15gtX4G7hq4acA49Jm4LGJqATH8iM4JgGTOeYBT5hptvYzf1TUw3kW6HMXzjkaRghtkYjADIWA0h/pMDhgcw1EBKlYo189QXbxAubmCrdbC4iby9ncIZ2VJhobs4jGL7RyrT75EJzRjylH9kIAZIVroJ0CYHqKXkzgWzF5UTXaIAwAEzpPStNNJsTcdVz9EytUeUbR9EuAkt0Tnsf4H3z5932N/aLDfN2i7DuM0eQewCVl9Qj3uSz+pGA86SQjkPdOKfqXvB+z2B9ze3eHtzQ3e3t5hd2gwMcMWpRgHBytynW0JC4sf4pJ8pkpi25Xo2AJo6E7dCd1UsmmhADNNE/qhBwF48fwZfve73+L//td/xe9+9zt88PJFzNPvQspjKMTv1DOk6dn2vh/Rti32+x12+x26tvPR7IHCFlitVlit16irSmJnWrFZgjNwEM8XRACVG1TrZ1hdfgA3NGj3dxg96yQSi33nvEqO1L17rifUagc/eyw7mnFW64aO2obJd8q0FaODrkwZHHw0dxYgnxiYIIbC9eYZNh98hOr5hyjXzwBTwbHxO7KEorRYrQoURvKdaEQ3dLi5ucbNzR3GYcRmc4Fnz66wXsm50qIoPBA6H592xDiOwohVfZEMFt0K0L4SKwCLzWYNsgRbWGw2G9ii8O2CCGzMQe+YSJ1h+M5ZomJw+v5AfDybHrIDe4rZMWsAHW0JeL11vM4lC+44jjg0De5u77C926JpWgxjwuaUqjLPmyPmnX2K85hAATfir/Hqdx/j4dFP52hnZK2wuF62oG/udri52+Fuu0PTdmIR733Ghc7wE4XDeIrMLl6QKjBnKtyEPaQMUEEOEFfdYchTAnbJRBidAzkX9HB1XeHnP/85fve73+J//e//hV/96lNsLi8AeOmMhL2CEM/1kXdQOU3gCRgHifV6e3uHm5trvH79HV6//g6Hwx5g9rE0L/DRhx/how8/xNXVFcitQVUleks2IeyiOEGsUayfY/X8I0xjj74fMLUN4CYfa7MCsxHTLpJTE4ZsACrpsLgrHUDAA1gKhqF/kkmgE5/ViZnqUD3IOTgJRQhgMgVgC5jVFaqrD3Dx4iPUV6/A9QUcSQSuME8gB/zd6NAPHXbNDtd31/jyy7/ir198ha4f8OGrD/HLX/4Sr16+xLNnz3Gx2aCqKqmHKvPUJCIdIax5JCPHl9FNE5quw3q9QtM2eHN9jbc3N7i53aJpWxlLPoZvGH+p9KKTdaboj2NzBnThvoUZ6dv2KV5LTl0z34RgeGZLqo2NIKMLvUo70zShbTtsd3tsdzs0hwZ9P2CcXFicct1jqMaJlF7Doe3yXwWIHwlyyRLyCJyLO4CREi8nDlcZI55oeXRougG32z2u73a43e2xb1q0w4DKFLCFrmwMcavMR68oYiTnBGerQSgB+6DJ7PV48iXioXwXO2/+z9fTOYdp6MHTCEPA5eUFXr16iU8+/QT/9Otf4x//6df48MNXMIYw+uyLaoWyBorEc9HggKZpcHNzi++++xbf/k2CWH/99df427d/w7d/+xvevHmNse9xuVnhw1cv8cu/+zv882/+CcYNwNhhbNco/UF7VfJTUQHWgmwJe/ES1TRiYIJtGvD2FnA94EYQS9xV3cgxygApGvpCGRyAaIMoboQysqEolBi/Bl1hADjyixx7oGIM7DDBgssVbP0M5cUHqJ/9HNXVRygvnotDTPIBoQ0wuRF92+Jmv8PN7TW++dvX+OLLz/HFl1/KhtUXX6HvBrx8+dIHYfk7fPzxx/jFL36OD16+lNiim424R/K7ojqJ03Kz95U3Tg7DMKDrOjRti7Zr0bYt3r59i//+4x/xb//2/+GPf/wTvvn2W4zOoaprb04SQTkMX8+S5yCWj0/4TaBUxIs2c6kZyuIic/S80xM5FcNTBpfpoSmBNs4QQvrSf3IsEsjh0GK/b2QOdz36QSQQ9vaYEff9yn9UqMcTrKcxOc6G731XJ4Divzu1Uul/KgKYxMPIbo/b7R77Q4u2HzCOE4qSk9XEQY9qZR0xy4fSfMBCsYHsPg3+kuvlBETnwOYQQU9JjHMiovI0SryGDz/EP/7qV/jNb36DTz75BD/7+UeoDDACGAaXlW+c5P6maXB7d4fXr9/iq6++wmd/+TM+++wz/PWvf8VXX3+Nb7/7Dq+/+xbb2xsYIvzs1Qf41Sd/D5pG/Ozlc7QfvUK3quCGAcZ7xKjKElVZges1uFrJAfrVBSr6COM0oLz5Dqb8Bjx10kBuBDs/hD1AGRYPI8HrBBnfjtrO3ryB+Hg8SmeFsRA2GQDodhxLZGhpRyJMJLuptr5AdfUSq2fC4Ir1FWy5kj4YRzCLaNv1Hd5cv8FXX/0Vn3/xOf74pz/iD//1B/zls8/w1Zdf48131xiHEZeXV/joo4/w85//HH//97/EL3/5S3z0s59JiD0fSHm1WqGuKm9grFUQgJumyQdpGdA0LXb7He62W9zc3uLt27f47vUbfPXVV/jiyy/w5vUbtJ0wuaqufQAlQuS+nrVH3Aji/HHiDOiyMa1XzMf8EwBOf58D3OmLAT25T1onZXdkACYMw4im7XBoWjRNi6bt0PdD8L4t5VR/fyfE55PZH5dNBemf1sZDksJBbgbarsNuu8d+t0ffR8W484BEhkKUpXlna8dQfDCgIkFyHThfocVDRiZLQA/YO3bgyYNich5Rk3MO4zAAbsLl5SV++9vf4v/613/Fv/6f/xu/+uTvUXlppQDAhUHfT2ibBtvdFjc3N3j9+jW+/uYbfP755/jiiy/xzTff4LvvvsX19TX2+z26XnYGD/sDxslhvaqx3lzg6tkzPHv+LExQa6zoldoOLQ5C3YsCq80l1lfPUK9qVFWBer0GLq/QXF6h2WwwcguQd6BJABXkPbdwNvlSqTV+O/tyllKWQgR/mD/reWnLQHNKUFGjWl/h4vkrbJ6/wuriCkVZApgw9B3a9uBZVIfbuzt89sXn+Pd//3f8/g+/x2eff46vvvoKb6+v0XeDBPSpVxjHEd999x1u7+7w5ZdfYnNxgc1mg4vNBuvNGpv1Bqv1CnVVi75O3TwpU5/k2J2wuBaHQ4NDc8D+IK9D06BtW9nBnUbRM3tmaAxl4+9dpWPd3iknDw97RpqOxVjEARDmIvkoZQBI3Pz3XYemadA0DdqmQd/3sLb2TkVTgP/h0rs/8fCErlRFtmzJOwk8s99hv99j6HsffwCRfUlGiWfZBVqN2DG5jkVXKZcBZwpcaslNRhTnBsZHkY/5OFXEhnqLbm2zucAvfvELfPrpp3j16pVELT80cAC2uwO2uwMOhz22d3d48+YNvv7mG3z5pbCQP//5z/jiiy9xc3ONpjlgHEcYY0Tk8WYYVb3CxeUFnn/wAq9efYiXr17h2bPnWK03KMtS9B4+0pI66eynCRMBDhewdoOqtsCqxmqzQb25AMYGcDI5DRjWWNjAihMdZzJpAi6F2mtLzzt34SNBzRH9KRWWnWCyMGUFW1+ivniGzdVzrC8uYYoC49hhGAY0zR77/Z03TWjFUeNnf8Ef/vM/8e//8R/46quvceNj5db1CleXlyiKMoqYTYM3b974WLLe7KMoUJbi1bdUh6EhQLR6JJ7CBsUwDOj7Hv3Qi/5UXWMVcuJB/fUpyGWjZJGxPHGWUxRQ5+LlQ495PTWl61KQxiD6X9kTlA2k3rf74XDA4XBA33Wo6xLGSOhD7YcfMr37s6szheB910Z9tgDL5BzarsFut8N+v0PX9cFtsjDh5AzfTOScg5zkASBYWfv9rkQHNxdVKWF+et5S/fTPxWJGBOeqqlBY8a4xTg63t3f405//gs8+/xzDMGK73eL1mze4vrmVuu322G63uL27xe3tLbbbLbbbLQ4HAbeqqoSdWZmAxhh0tsMw9Ci9I8zNxSU2F5eoVmuJdVGUKJhQTgwig4lGMBjjOKFp9mBMKAugLtcw1qKoVyjWlxj7PcZmhJs6GHaALWEKL0aIG5HQXxqlgIhzaIu6h9CfWeL0etHD6U7jODFGEFBVKFfPUFy+wPrqA9TrK1BRoukabLe32O92OBzu0Bx26Lsejg2GtvNnZAFrLKqyRl1vQFSKLsyWMLZASQQYg6KqZAfV76KyF5/HycG1ojean4wJm1mJYp2BaIdH8Lvj4tjVagS0GfvR2fFQ1U/WfElbzz8vnXR4qL3bYl5n7k0lJSaC30GDKhvFsUacK5M3BzscDtjt9mjaBpdXm+R41yQbXTjnKupxdflpMbkZwAGyY9W1rR/QB/R9F9Cewi1RH6Yi5JzJnWwwdhHoFnRxoTyyLPm76EQ7exc71oLqFcpCgny8vb7BH//0Z3z2+efY7Q+4u1O9zWvc3tzg0DToux5932MYeozjCMAH5iksVqtVOCUgbCCfcMHb79UVrq6eYbPZiMPLqhYxEwQ7ig5p8vUbhxG9aTF0NaZVCcMMKmoU60uYdgfXHTD1E6wj2NKfG1UwdwxYXTCUPkcdkzZtBLuYsgmTKcm9KMgk5iJkYe0a1cVz1FcvUa2fgQqJPbvf7/D27Wvs7q7RNnv0XSunKYoacBKbQg1xq6rGeu1gi9HHI7DeJbtB7Q2UIxt3cqRtNg7ia1ahxBmoxqXVeKUwERjJg6CO29gGKcB9P7B70LVn58Lp6x9aDlW3eu+PIS8ZB9J+0zR5e7kDtrstDk2DaXLea3QyoxO1xrxMjyWixfdB+KUCHKVHFij3W+UwTnK4d7ffYX/Yox+G6GQv2VjggHJpxifqRrOfZxsOwedXaE1/QwKk8/rqah/0LiS2fk3T4r//+Cf89a9/xTRNQR/RNC3atkE/DBljNKZAVcnuZWGtD/YsLnuMiToduceHvytKbC4u8OLFB3jxwUs8e/4clxeXWNU1hmGAMTacGJDwfSOcm2BAcJPD2I9yxMlUMPUVqNrB0Q2GUaKPVeoeyCv39aC8Ap3qXLI+5HzSpmJI1m6+E1xYqERMha1RrC6xunyJ1dVLmGqNbhjR9g22uzs0+x2GroUBY11XMilsBcfSnl3f49A06PoeDB/LlfxOabog+qKITldi9JJhGNaddCQDJQ4a5WHS9wocshjG438xFCNnABfbhv11eq/8SUGJjySfoJoJv8UIXGmag9lT5vh8jKfG6EsqIC1pXhb9bACIq6zJMfp+wGF3wPZuK3rlsKhrG5wHslimNI/T1777jYdHLFBB16zrOot9jcjwTTAgTO10dGczbmQnu6r39G3YI52BXD4J4/EyBVLn5qcKEAAuvDzQ9f2Av+2/xTgMGPxrCicbfEzUUuJzWqNBdSI7MN5inkwsR9gk8WYX1hZYrTd49vw5Xrx4gaurZ1h7Y2DZGTQYJ4eC5ZTENAxwUy8mISwnSohZQG51BbvaAabC5MWG4LwzZTUq6odNCJpN3Vw0W14YkF8DwJEBlSvY8gLF6grl+hmK+hIjEw5Ng0OzR3PYYxp7EBhVWaIoCjAIExs03eRVHL2YKfS9qCeshXqbYcDrXmcitveFl+m1UkaRiptyQQJS4Vv4Dsq83+v4yut+SiLIVuvln9U/3gnG833Sqd3UU0B3nCLSRzGfPMi54E3o5voG27st+r4P1wZd/OLzdRzFXjsLhlKSn9gRA4DHAAAgAElEQVTuqoqpvu/ZiQzf9z26rpFNh8mJqx5fOz0HSPALXAY+fPT8sAvLukum5gBTALk0MflnEbztl+6q5hsTAZCSF0EC7pQovUtoEZ+cZ0I6xYKnClXWAl60Mp69qTcHRLEq7OoCROIx+eLyCpdXV1itRSdnigLWOdipkAPqIFgHsC3BUwliB2uMnKKCgSnWqDYfYGgOoHIDhwLEfagvrAYsSZgFw5vLqViSQhyFL1LdlZ58ECCXa6bJ96UtUdSXMOsPUG6eA+UGIwq0fYfDfofDYYupa2GJYMsaldc9jo4x9iOGyaEdRjRdj7bv0U8TbOm98xKJI1UdGclWHi/OljgWlxZqPeaWMryo1chZVDYm57ucy/NZ2HqQ+xPWFL56GENbOrXwWEPgB+SSveJI9kxXF2fH6NoOtze3+O671/j5zz5E0zTBecNTdoDvS+8e5B4rrgbKDjDLYfNxGDD0Q/CUoTs287OUch9H0cDnryJDdg0QzD+WdHHHinIknh9yXU16QiH1j6VmMNZYFCXihFKADS55IkiQi4fejbrOVtc17APTuMgyABIFe1Vjs9lgvdmgrCqEc2AUwy4yJEYmrAVNBcCT8FN2YBhQsUJBRthTdQFrV6BJnFRO0wQyE6xxAcgc+yAxyFfgGF1NOyBKWOm1KuY5BiYGRiaQKVGsLlBePIddXWKiAuPo0PY9urbF2LVyIsOImF7VK5iiAg0TmuGAfnTo+gHdMKAbRwxO4jtYaxADAcIzrePB+RjBbr6MKtSlTFAXgnxsYXblw1OmQXlCeuoZ1Uddiyiyx/b2LJrhN972ePv2Gje3d2iaFtMop2zmZVx48oPLoeknxeTi6q9xScVN0ThNGKcxsCxjyHuRjqITBeaf/n8+sU5w1hgAUeyKF+kuayxhCnKh7MkKFI85JbZ7qfTsl3sxdo6Dx5A/6QEN2BNtqqQo7APEOKh3h6IAyrL0zhlrFEUFkIFzjNFv23MAGzmlQMa7gnIA8wT28VPJiLeMor7EanOFcXOJqRU9Xtd1mBxQcgGgBJGDMbJYKCNTvSLYb/5AGKswWhu874QD8eztzRyjGyYMsCgqg6pao9xcAtUKgwOGQY6cgR0KI26bDCysLVDVaxTVGmwGoJWwk/3oMEwTRifHwtQXILzIRKw9PR8n0RxJunvpmvz6AOyhY5Pd9pTBcnxe3LjiiJQBIeN4SAxC4v9eqoCOyQdiz7swG1nIZeEVfxJHBXIeves67Pd77Pd7tK2oocqpBIfGx1Pw7Kg0wPsAuUctWMFGGuBodDmNE8bRYZo8FyADo6EE/ahVlsDAPBJgXgTV/SAXbaMogcC4pEh0NJjOqSOORYPIHFMRI1VUJ1nBwMBSynbi9AnvXg8jJgqEuipRVzXqSuy6CEbaitn7aJszDlKZGNAg2CAYU4BgUJYr1KsLjJsr9K7HNBww9APYEYgqkBnkHKsXpSUYDcnzQrvKTiW7KdMbBXzz+tZxmjA6Qs8Goy1BtgbKGraq4YyRXeBhDDo4aw1ABQwItqhQ12sUqwsM3MG5O7Td6I8LTUGXqBhHABIy7rs7NXGipHMj6/PQtdjXGSNiFc0pLI4uGSypCBdYbviZs05eBlcvtbCY3ITn+AX4rJrsB0yn9XEJWnOsj+61ajhQBmEYJ1EpdD2GfsA0xv4KKY99iMeinpbmPTA5OlE2wrxXVLwjz4IcM0bHGEaHfnAYRue9iapRLsT0QXUX/rk6qUlkzKR5vJjK3qAz2Nul4MZ5kT0BooWBlzG3UP64QeB0NfdsSvVQuolg5Cb4ooVpldqHMifh9Dx4iCtwRkGEoiiwXq2wWa2wqleoyhXIFKLfcgTHJjYzM4gmABKPlEmCODvfRmQIhgmFsSjrFcr1BtOwxzR2cOOACROmcYSxgxfLAcYE5wymxIqfmcFqezaNCOYn8KIuy5nVcZowMMC2BlbPYdYvYDcvQOVaFiE3AtMImgbADdJURmKxWmNRljXq9SXKeo22d+iHCdvdAbtdg6EbwBPDsAzy0otKCrChUQILSzpc/9dOiw0YrtF+igBHAUFFX2tESnDwkkYedzbPLgU476GaZgsbAEYEgQg0CrTH4zIFo6VNhCWRNdUhLunHjiWY9DdAwj8STIhD4akHsSyIxoC9g9RxdIG8OBfBm0iPdvn5yTk7zO0N72NQ7y0k4UJBgsI2vSzfQXQMTBP7YBgSDGVSwICuEPkZyZS1BOhLFj2xxdLdUZ18/heKjE5KZ3yjR33T0iqWglu8NmFxKq5ANz48GzVBeMnFJNUZskMQnn1FOJhxMKwhVGWJdV1hVXsmV1QwpvCroj+CFmHSoz+Hs6YazUzrYZnAxqKsVijXFxi7HYZ2D+6lPGAHjd7FbhQnlWzgCFkbKcC5aQTz5GNCuIRJE0YHjGRAhUW5ukB99RLlxQvxDecYzB7ceISBhDgkW3gxvfBODVYoyxqgA5q2w+3dFtutGI2LzRzBMGBZbfBmg+W+kbrQ51H/T9l3YXElD3BsoMAeVsuQi/brjLmkP8+nB8/1z4jPATJQUpBaGrNLAHffjmou8eTXBTVFKLSO62T+6fV+IRwdYxgchmHypk1RbRR1lvoKOc3URksp/U1a6yelk4vJmyjoGVXHmNj5V+K5ArFJA7hlrCVBfZpVnnW4JIphNxsQiWgljzxx5Ivy3dWgc0rKE0SmdPUPxdIycpx3nrFqGUl/B8N5JmeteAeuykp8x3lzCmNsYh6hA05XRFbhIbQJkYGcAbEefEsU5Rrl6gJDvYYpC9AgereyMihLi6I0MIXoDXXTJCFH2oN+JUbIhwyBrAWMRWksnK1h189QPf8Q1fNXsPUFiMSuT4/YAfA+2yQv8bFXorBl2JEbxxG7/R5vr29xd7f1Ojw/0Tybfkw6BQ4nd/88U9MxIse3HKaJZn2evs/LlP8diOTs1yVd8Cn2ds4MJL3m1OJ9aoMiB8iFOvjJqFwmLH4sJljjOKEfBvS9vIZBgh3FtqHscce89uHpJwZyScM5Doegx6C78aYTOX5keK86i5Mp/VnFSZ2M4Ws++T5/pYMs9wMXM5qLszEfrfZCeT1OBuEpqDo4MLmCLMqiQFWWKP1LXKIbOOfjfGpgEY3IxwQfhitkFNdcC4BBpkJRiUPNod3C7muMvYWxBFsQilLejfWit/carCY8oKgHMyasFFEdYS2okIP3VK5h189RXT1HubkE29qLMGNwBS+invFMX3arrWd0RAYOjGEYxbHq7S3utmI0rqJNWMRmY+whad7Hx314/qmZtHt01RLQzRfWOaA8DKxPAZeUiY6uO8X2HvK8pQpkenEPbGoRwCymYWo7Og4jxnGCm9iTXZXmUmB7aL8dU+CfFMgRQTyKOMY4CdK3XSeKZO9eSXVyiiHOMcIMno2ZsPOqSja/oiB0LOQGnpcjNpJzLuvwJaALvyWrmH4jzxNX36f0H1q2o248sYqL626xryurCnVdo6qqGDvBWBjj4mBznLcNGx9VHqEd2buPdyDAVihWV6i5w9jv0OzXGPpCdCVW2ptoApEV3QsBYiwnjNAGYirOL9N6SR4GMCWoWsFWG9jVFWyxAmABH61LdNDR1ASkrFFATkJPepfsDujHEfvDAXfbHfaHA4Zxko0QZ4KKImvQe9J5fevxdWmf6qbKkv7qtHlE8kz/X2TGy6LkPN9zurhTu6v32dA9JO+jssgNmkF4yxlntE9VN/6pnjEHtqezOOAnAnJhtdSVlxiTc+j87kvX9egHATlARBcNGi2Dl6Pu6ujhHnwSJhSBbna64cQAXOrgxZVtJtrKx1MsLvfVlZquLHWlrowOIrobSDyBqqpQr1biEKAoxFSDyLt5I5BLooyp7EM+PwV5AMQCUg4EYyoU9QUMjRj6OxSrDaipAe7hCHA0gWEhpiysqxOIbAAi9TVpwGGgs9fDsSMwVTDVBnZ9CVtdALYGM4nZEHuRWoHF6PNVJWC96CquuEanh75b7PZ7NG2LaXLihdfXWxnmY9jcKQZ+KgWR7MT554U7EuLB6bePKl+a/7wsj3nOEsDNGd1j0pxTibQjA3lyDsM4hlNA4mreoTDGG5vnEk8sYxhOD04/akjCo+9JWA+DMU4OnWdyXd9jGKL4ojt7gEwcUTclbvrONILYLR0fwJ6PrCX6fs6zCSGyrKCTWxJrThSOkw+qNUvUZuEaCerig7BYg3pVY71eo6qrcGrCZyhAPitlqhsKenD9m4VJkSHxnGEdivYKtr6AKWvw6OAgR3OsFTZJGnvRZ8GekqpAHOLVQhicIwNnLNjWsNWFPyu7BptS9DW+9sY75JSdaOMNdykCqrFg8tHQ/DjRM8F938M5hiEDNpD8Q72j3vMcSMTf7xlPC8ByCuCW+j5lPdrvydpzMs9zoHvfWNPf5nq5c8+a3/vQlJaVjKgd2Ikaqm07NIcWh32D5tBguLqELWpYY72zVvXp6BfkoPvN5ZtMr518r+ndeyG5r/FmE1EH1jRJbIe279ENA4ZR/HcpY1A5KwUHeNZgFsAFyXVBRzMDt3P6ifk1swuyhzPyZo4rWuRq2ThJ/1DGScfdpiDnHMNYORFR13V07uiV8Kk+J85oxM07innGAUIAG5AzwoAKA8Iatr6ArS9h6wuJuQAx3rV6LC0sugpAqYjN3h4RYEgQnYkKOFOByjWougCqC6BcgdnHXYUsdJG9KZL6NiDyjNGCGRinEW3r/ZM1DZq2lXB3zP7cLoESNE/Z65zRZcz6gewtPncZ4NJnL984+/MeQL2PVT2EdT2mXj9EUn2ozm2G895IBvEUfGhwOIgzhXpdw5Du1pscsE+IOqfZndzwo4urHP5Pd6FImFw/iKjai3JymhzIirGsDlZmNTRUKJmT5CQvBbjsO/ZmFpyJm5miGTP//nqzatdDiiKWXqsZc6hjrl+IO6hJMhRAURkI+e/hxXkmwNpCQK5eSSR6z+TUo0csZhwgS2J9zMHbMRnGZAjgAihWqNZXWF08Rw8H1x0wjCMsMaaCYQ2LaGoI7D00BzZHkZk4lsP3bCuYYgNTXYCqDVCswaYST8vaRiqyEAGsJU4ZqIWxsgM7jCP2TYPt/oD9/iBMbhgBiOMCgIOdYwb+iF2X73bnO4opMT5qN0pNi5TJ+4P/7JDuui/dK5NzadzyQi/lIPzU9GMAHJDgU2BjgPPxMdq29Qx8gHPqXQeIK+hpgHtI+tFBLtBzwAOEAWgKfqcCyE0TnGNY3X0hQE9jMUKEgKNBqimwN6Vy/stss2AJ4Dw7OSU+kC830muzjM/UPQGwdBBE+Td5QPK3ToeiLLBaraPHEc/kUjqQWu1nhTpaC3LbOQcCyIJKcT0+9S+AcUTby2IzEsONDGeSEwUU9X9h0SBp7gkAkxGnldUapr4AKcChlI0Q8oakiV4mAraCjjotsJgmRtcP2O32uNtugz5uGAbvMslCHHLGOi/DR+yLJYB7WEpZXLrznj//OM94yD/GbSAslfT7AtxRiRP98btMcV4ldoJetTOOI7q+R9t1IeB0ZNFBTPhe6f2ceFhelxA7kqDKcOMPo0/T5HdWZdCqs8dwvVdOC5Pzu6i03GFRLI2CJCNucwcTEoqgAORgp2Wm5Ir0PZNYg96H411EITgPzQFxLlaSj1wkhQ9F53Cp8POyLLHebHBxcYG6rmG9tj8rH9HyMNHdVSSFd84HZ1bQtjBljWrzDBgbuK5Hf2jEZ5tD8IRC7MKh/Ph/bHcHD5owgK1gqzVMtRZzERZXUEQGxnLSlkmp01XdO760tsAwiF7n9vYWNze32O52aNsO/TCipAI23Myh/XSspWlpo0mZ1rmk90XbSW/MihhWMmXvOdD58c/6O/u+So6ZzfR987K+K1b2kB3gpz1Y55Sye4dpnDB4iU2Dq2dthqChflqGeA8nHig1cA1pSWRSQJGNB/HfLw4m+6EPnkUCth91sOQTzWeTX5IBEtic/p0AUSzzsj4mfMPwx+pYp24GfqEArADo7egUJGfPTxXOlEzCXIgRBqrAQUQoy0qCr3iQS8WiIAanDTFnh3krCZNj3TIg8XxbrFDWz4H1gGHVoiju4KgBePLeSRiw7I/XudCSzPDH5sQJprMFyFagsoYp17DlChOVkFMBScR76RikPaOFj4uOsDkGBOTuxG38/nBAP0ig7cLZrM73TddTQHffPfJycDxBPcrowpL281wkzp/jF/l00Vso27tgXPfpEU+Rhu8DsBJml8POeD94r9jBy1C4csZnHwt5cu8iyP3QjalxNOXZ+qW+qUzj/yLC5Bht3wcvBUPXgb3LHPV44RjCOHxdYuUVKiKgpfo7HZSp6UZaHilvHJgpd2NmsZzXc3aAP/aaAJjWA+xP8SGAnQKVBphXhqL3hAZyWg89m5ACnP+eDKqyxMUCyGWMD5m0NxNeMy4KPTcou2CAgQXMGlwDPBKKukFZvIYzWxCzgJyTNjGOYYhRkINhMQOZJpaYqYUB2RpUXYDKC1C5AgpxJGCCZxlxKRUYq0tK5kVejWSvrNiB0PQDbnd73G13aNsG0zQCLOdzidQ7jYrn3lDnzPDmbIDGJSaKy1EcDQDnxFNLdMvvXaGnC9kiMMwX0yhpqFQxB7gl0FwC6CyXe66dA52Oo/kO7Py+rOx+LAc5iXXMKrOXtid4CwE/pgc3oZsGtGOPYZQjgETKikcwRjAbqFdnlWJT+VAXxqwo4ff3cXaVdLIuMbrkMoqd4Ryj68QP/OEgHjDALBMvbAb4wa+0wb8xcTgcHL5EVAwvveSyOIhE9J2BX0QO/9Kf4z+TbYlGy7ec4UXgSYup12Vi7lyc1UnO4lq9rips1muJ6VBVYj+Y1mmxof1bto0XENcDgzo9MACVstlTMYrqCmW1gfPmJIwIcswQkZXFWASOwZPo4qiwMMVaTEaqNVCUgBFPvdY3rPGON0HwTjz9hEsagVjLJY0zOYdD0+Lm7g632y3atgVPk1xL/lyzp0gB6B6V5otBOpcYci7VgZOXzsBQ6nRcJWIwpeMkOfHisRjzINwPTY9hXukcCAB9Qqe9xOo46QsAebS8UJ9QC0jnsmdxDJCAXDv0aPsWw9jLaR5EYsTs/Pl8bVTKAA7JZyUdocwQldSPoJObyU90/C2zwzD0aJsD2qZJfMCrO3BKVgofj4GFfSSLtlfCG5lwHF14R9BYoOuE4G58zospvCgTK/NrlLMt0Oqwqi2sRMmgP04coomBZeIXxqAqK6xXK6xXK5RF6UHytJnBMs1PxCgtETuwIyGcRKLoLyqU9Rr16gJYXWDoHKZJIqfBaUwEWWTEAYLo4pgsjJV7y9UGphIvKRIxDT6eKQXmoyCfmwxQKF9kdoxhHLHb7/D27TWur2/QNBLA2ZCybwo0MNgunmiCZc1l1JfFxSduLsRBmzBtKI+/h/mEfDkbAPOFbj4+T9pZ3gOEaf5H6psF5nefHd5xfY7ng7YGJV/o1NMxPUyjt3Fs0enuqjf2h+5oQedT7It8/lDMj1Kgk6t+9N3VKCrFZcC5uLXcdq0E5yU6DuuGQNSgLbi4e5aTOsTm8asYu/QrsFGd0Bycs2VC3k4MhqwTEkJwtIvHs0FOOKoBMzxQCzsxhlBYi7oqsVqtfDSvIjwXCwP3fIqDRIESfqPHGAu2Ih7askK5voDrLuF4wNhNYB5DNCpAJXkKAAdbwZYrlNUaZb0GikpMSdgDKKkdW8om9YRCbDxSIPIA55xD3/fYbnd4+/Ytbm5uhMkxIxMVH9AMpwEubZ8FhoR0TJ1Oc4A52liZ5fsEyvmgdB9QPul5lIPYyWoh9p/+BTCmyaHtOgnG3XViC+vLmC1UysYXmVz8fim9R5A73XmE+BOz2s/06DpvvT5NfrxTuCYfXAFx/O8J/dcJT/Am+ID6mMsYHRDz0KIq01Mw1FCH/oallTkXP3WCqlHrcUekZiTAXJSZiT0spTQkfuSqqsJ6vcZqtZIo70CIH3o2nflZ20qYr7arFxNtCbu6RLF5jmHqgVF8toWBx4wJEPbszU+KcoNitYGt1rBFDWcLOdbFLM5BjYGBnGgIZJrUa3IsKIXBLs0wDhO6tsP27g7Xb9/i9vYWXdeFe6UtlxaqvF1DnReuyZsxuZfEO7H6yQvs3E9MPXoWnzE75J9N9sgSU+xbUqtkuuKZvuycDd2575d0fad0cUuibGopsGjInICamgUZ40NDQjanula8BIvUNom7w0RmmvfaEfM8h6x4ryB3BuACOERmNQ5iP9P3Esk9yP+YI4Dw07SioRE8s5sP9gi3FP6SR2kOKbOMzwiiyqMWWsr0jdkviztv6YJICdjKO0GCJhfWhoDTq7pGUUQmd05knTXAckpEd1ZRDBCQqy9QrK9g+gPQ7uHc4NcKB2Z1WGpAtgRVemJiA1OuAFsBZJN9JhNYXD6YFwpKiSujacIwjTgcDiEg9263wzAMAnLWBpE2rxcync39aeniWCYh2EkgcihAp+KeXwRSEVAV6ApwOrb8o1M92b19iRx8lq49B4CPTfPNhgDYdMywFu83qYG01LFtW+x3eznaFQyC48IWtyxOZRAF16X0Htyfp/CitmzhT0kplUM0Euz94fxxGKMX37DyRHEHQHDum+Y331SYN5AOyrn5iL5ntmzzNGNtpwcjy6qfrPYnUyaaIUz7iSHio3MglsDJZVGiVg8kCnKUHPJfGtg6cFg/x7JrlbIykLaDAZkCXNQSXGbqQM0d2BZwg3fM6SY/6S2cMbCmQlldoFg/g60vvZhqRUdHfksgUSbrZOcwybVcUjb1qMwOPhav7L7v9jsfJ6CRWLJGXExJ/XUbO3aZ75LFdtfP+R2pvZwCvgvByAPDT+64R2rLEyN/PnLgPLVpACwztFMbDE8VUU+qY5bywfH6ycl8TW4Wpu4Y0+jQHFpst3vs9wd0fY9xnGAL459nvIbpvPnIEeuXDyC8j7Or4f8Zkzrqn5yJTdOEYRz9ca4pOLQ8vi0FF0HQIG2mmWTsLs92vlWfbaEvNetDlqwkZeXDwmkMpOAarwwZ+YnkvL5CIsNXEtdB3SxZFY9yESSfCEkeC+XXQaoGm7qIGCKALFBUMNjATJ0cybISNAc8ictvEBwsHCyMrWGqDYrVJWy18ScbLCQiteriIpBHtprvhGt5lQEwO4zDgMN+j+12i91uh+ZwQN91cM6J2K7qCWmQ2Kj5MDyuOHAEcNqO+qggGXAOdEIT6eh5WTYBbOIF6fxQsRX3sLfH6tbScfBD6eOOC4UHIHvsAFk4ZWe+63oc9gfsDw26rsMwjiBTQhiwCWNCRgtjXoW8NemoKD+eTk7nL+YDSxIDMoh0gjOHUHy6egZLc8dBlDMku69IQCt/MsIgOrcDpmYqYXUKUtNpkSCKJKeueUAzzZrIozXcJA4KVB8nALcKHoGtGgIH3V2eKYVXDqbLZVARKz5DWFcFkAOqDijX4vTSFFAHcAyCMwCbAijkZIOtN6ByBWdKD3ImPg/abyn7DpWOgO9X/sIWYB4x+ODEt7e32G134byqUSDUZ1HCCFnroWw24xsI0yT0s7ZRZHOpFJICsY6boDdEHEvHhr9p25NXTyhbVAZ3rmv4SaD1GHA7vUguPBd+yFJ+nnxJstGuJYg0or+GTcamRddKYBtZtL0UAUYwnMxzPVmmNB2fHH5fSQcTEAaH2s845/yklmAozDHWp66iYQ1UZpYA11LHcPKeikSRSCw0WqZ8jRPhnKIzFfOelHxWkdVEQGc3gUhCEKouLviRU0PgJbYbS5f8/8hEBNgCVK5A5Qa22qCoVrBFJZNBjWFJ9HGmqGHKFUy5AhU1QAUYRoCO4lEuARxK2Msy3TJkYK2YnfR9j7u7O9zc3GC726HrO0z+SJDqxECJPiHt/EDZchF1nvK1QplWfI9xQhIJZcb8l/EhlSjO9dXpNN9Ye1fpIc+Oi1O0R5hLUbrwh8kHyG69MQAB4yCeZLq2Q+ejd4nUQtG9/lEfnR7F81K/+2NdIdMTDUbJGPOMZRxH7/tdnGVOk4vNxxyizxOJv3/2+jo9fTBX6mZrdrbKJL/wQsfMlKz6PWuoNH0Ox04OTngDI0mekSzjmYoCyGeEzgN/fpWZfQQoEaXrqsKqXqFeSQhCW9igrzraefJsJGVx8/zTtsn+RtJ/DHHBZIShlasNqtUG6FaYXItp7KErry1rFKUP+mxKMBVgWLD3Hqy6OOLE916oYz5S0s/KLJqmxc31Dd6+vZYNB3+wOyxcBAQ1BsV60+xZczF0sQ3C33EzYPKBVwLIkbh51yhsOh4iE8wXvSBF6BgMDCgfn+8SwJbSfGdVy/qQlC5PYaHlVDUjHaO/iQrEACxR2/q+R9d36PtOzqpPU/BGw6x+BrMRuViGpXH9zpmcx+0T2fuG9WjtHKPvR7RNj0PT4nBo0bYdxmmSweoNdOOWvXZMNNGYZ5OtNIti6inwzbfReaEFk+HvrwtrfiqAxfsS4EwhNluZk+GSfnI6OIwc51qtJHhNWRbCcMgcPQvwoL9QvXNDN82Xg6igroMK2KJCUdUo6xWKugaMweCA0RFgKhTVBWwlXkZgSmFuqdiciHZxYmh+kaXHRtU2lDCPTdvg+vYW17c32B/2mNwoCw8helK5t25Jf6TDk+KVccy4XD2SbgyEm0xSr5jZEdPLxtR8sX2/oHYqPRlcta9SGpxxCW0tmbOGxH39OIrvyKbt0LQt2k4sKoB4jFPuQ9ThzrNO3rM+xns68RAHgs86uKFmwMiWPzNhGBmHpsPtdo+b2x1u7vbY7Rv04whYI+7UDCHYAfgzpHHQSaOwrqCUsixkAKcugPT741IjYRhRRGEvXSHkIedtHYXYykB4tiCjoXhdaIXwn86z/GCy/GAg8IJw1o8MoawKrOoSdVWg8DEdHiIeZ+CuBIKyr8L/ZnYHQcL6SdUtSlOiLCsMZYXJFujYgFDAFhew1QsU9bjW1tkAACAASURBVHPYcgPyZiNmivEejCe0EdIYEzGcRn7mpP21SCztNzrGoetws73D9d0tDl2LCWIlD10E54u9Sq2Bkkpy+hvJ81NwAoCkOFoIz6oVnORgmoCbAcHrkebtyg/Z3UzG6hkWd2r3dOm6lKki6Ukhz5zdO9fz3auLSzdZkvJDGWp6P+lim5QJakIyYnKTnFVvO2ybBtu2wWa4RFFWortjUXS4sNgtlcdnBD9q/d9M9D50crLKpaWTycWe5hsffMVgGEdstwfcXG9xe7PDdnvAoekkVBmR9xGmg9E3pAc6l+kEdLBT8gpzJQ/ejLyzgdlAUr0YK2H2eRABRp/HyP8huS5hDUhWGUJ+j14H9k4x9SXHqyaW2A4gQlkWqOsKVeWjc81OgtyXUpamC4BDUuakXeB/JX/g3QCwJH1mywKmKOFMgQEWI1WA3cDWz2CrK5CthcX5dhSXTM77CJZcnAc6l7ZBCHOf444EpHbYN8Lkbm5v0bStHD+z4tGYz7VDMi+zvtHfTr1CwyV9yAiTVpnJOYnlGLjS8cCZyAwsg1lWlUf09z3qx1C+pc/LD1z4fIJKEfxU1wDm/mX8wgCGuELvBxzaFtv9AbtDg7bvwX7xMpQc3DpVNkoWuDDXpUXf87EuWWL1f901s0UBHhz6bsDt7R3evL3G7d0d2rbFMI4AGRSkfvopNGDOjCO4ALrKYtbD+Qqmq3JWQorlApLJ7/UxKRMMlt7JNcBs4vg0X83nZMMXOZngXpRj9eghh8FBiCBXVp7JRV1KWK/vmQR53rHckaQSgrDryxVXSBbWZAugKMCmxEQlQCWoXKGo1yhKATjRpyLEihWp2oSdyqVd7qwvfImUfQzjgP3+gOuba1zf3uDQNrLS+4Xy3qlPs/fQFhznj7I0FbEJchY/sSRODXDztj4PEKlZjNpPajssPfuxouOpXf2n7oMtPVuMc48/ZwC3kOISQCoEYZwQgto0bYfd/oDtbo+26+CYQ2CkgGAPqEcqfQA/2u5qHGkaYo6I0HUdbm5v8fbtNbZ3EgV9Gqegj0rwfLbO55/nbR0UqiYfkNEcxT18MHF8bswj/Sb5E7MJcDKL8wdTApNk2XiQkw4avKYIOs3YrI9gdal4pG1AiWgRRG2Z5M4zTXgDYdhKbOBMBdgapqpR1DVM6Y2T2fkdcs4meNomIWuhcaGdCHJeWezjgGEY0bQttrstbm5vwlEulQieuqOtqg5dVLLePEcME0X9o5iVTnW/0oX8w/h4HLA9NT1VJD7WIecsdPmZ6R/5iHfsjf97H6vjcAjBiB7btnmZ5f1HP6Cfsqau63B3c43rt2+w220x9D3c5GC80SAbZWG+oSmu9scmgMf5pEpffdfXsT3T8VlBY4yYSXDapUnnpgOePVvF8SSIg0SNbpOi8+khThBD4LpeicvzuvabDrEc4eNCU6T1T1lCqotJ66s+vJgAFxT0AnLOENiUgKkBuwKKHihqmKKCKS1MYeAmBzcJehFw7BlZd0QTO8dQU4YYAFsLhrhV6oYe290ON3d3uLm9w3a3Q9/Lrq7Gt5jX6VxamrhpvxIi+M53PVMW9zjR0bcxa1m1w708wPr+4EcuPv/U3/M07/v5fY9hkunGnkoAam8q8r3PgxEsFLT/xSnHiL7r0HkX9sxOVWu+UDg3xY+S1uE9g9yM8QCh4MwObdvg9u4Otzc3OOz3Ic6q3iGDLh0AHOS+qNJf7rj7qH8KajnroOz+qHBVCqJCnQJayHDxnGQuluQtkxrFzppHXkQoCovVqsbax1o1ajQZoD6Ku+eSFmNeVx2U8wnMEL0ZaIpMzpYwhQSILmqHolzBhlgTepd/tupWFgA/Y5EJoyMysLaAA9ANA3bNQXzH3QnANY2oM8qySkTbJ6QT40L13Dw7ZqXpqUwuVjT5zAh9l4/xfAw+NJ0qU1DtHOkIH55OlSNqpBGBTm5YHJGs9WZIQPkQ1OaAvutDEPXwnEwOfdgiRkQ/LMhl6M+pEjvLWkXyMBGYnY/D2GK73eJut0XbddJQhnxsTz8AoKurXwHDDivHhkxac3nLPjLI72uLNB+AYWL4DkwxMbQNFDS9biZdzVO1Q8RtryaSCFRVVaNercRGLgRQzgfRfYCu73P25v/IQCMRLOCYwJjAhkC2RlFeoF73GF0BW9QoqpVsACRVACi4N8+MljNR2V/N7B16EogsbFEAzBi6Ftv9Hm9vb3G73Qa3+OpxJRzFC52Qs9alPgtt4RWERy2m5cvMRx4HDkcLbnbvMW0/9einAN1SWU6x96Vrl/I/99z5/Dq5mRcYGYXPzBLyYH84YLffo+1a78iTlNh74IxAnT771A4z8zv0J3ec5QzuEurqJodxFBTf7XbY7fbo+g6qgyKTrtHJMxYqxsnAWRJBH9N5D01H+SBOWg5lWbovfILnSTiyA/KDgDz1t977SF3XqMoqiH/sH3iOsZ4S5eaMN807158xmCc4yMkGW9QoK4f1mgFagWyBolyBQWG3W5+Z6syWRL8grur2N4n9pCkKsHPoxxG32y3e3twIyHUdxnHKmVTS2Mr6T9Yt+S5c51eoefNFF+cum8T3sbhFPVYCdqcAbc7ifiiAW/qc5vNDppMLqPyIdAXXvhrGEU3TYL8/oG1bTNOUsoPkuafzWvr+R9HJpSIYsz+M3wvI7fd7HPZ79H0fCmk0cGbCbIDZ5AQALKzGPs07+VRHz1/ndrnmkzYHCIrsDEou5gNWxdu800+1WHSW6WOtluUspmfkT0sDYek9rcdSnlK0yJbF44aTY1bFGrYuQKhQlD3YEIqy9ueMp7zOp8TUWOK8LB7krC0wYUTXD7i+u8Pr67fi6rzrMLoJhS2g4roQfBeekbLGo9otqDK0nEF8DiCM8Ldev6xjXW7z0228nH5owFlK59j8Q+qW/n5OV3mk9kgAjpP2ZWZM44iubdEcDui6DuM4eIe26dlg4CGiapp+pI0HCpM8gNwwoG07idDVthjHMTAXCmxFNW+c6b9UCxBVfirWHivY55T9IavaQ1e+uMqkv+WOMPV3rf/RcxVUjvKTPNVZZl3LkS7y5/+CuIfjlW5ej3l95vrIk5OMvVUbS/yHwlhwUQBcwtgREzuwJS9COqSbLhkX134IKznl76QTzogr7InQdT1ubm/x5u017rZb9MMQWRWCxHl/HRbqLHlqB4X/PCNPJmNy7UMZ3Mn8gWCQ/mOlU/rFHyqdfqbM1cDg/c/TNKHrOrRti77rMI3q3SY+775d3KX0XkGOdb0lBN/+YGByE/phQNd3PsissLiisD6iu4ojstNnVDzLZHMKuXD615mJPV/NVKw6dQ2Qs7f5dameLStSliLA5aLg7LOej0Wc9GJTaFFWpTcELvyOYtoMufp9DuSBmYBDWY8HYf436fUQ9+tg9ipSI3b+RGAyADlMPGUKY2HiFDYdUl9poX6xcAkwyrEfgvgda9oW19c3eP3mLba7nTcQN34B1Odw5hX5vsUp+z2QhJlInX5eAM/7FsTTYm3cJoo3HxX36NnvmuU9Rt84v2+uk0vfl5Ku89I2akoyYOglBqtzYnqUWyioQufh5XxnILckfKUHvDTYCIMxjk6iaLce5AbxDmqMRUGAo7jyUXhX26bZ7pymhUG5xNxOiRRLbG9JbF0EQa2b6pmWGNt9Y5UpdxXkn22tRVmWKKsKtiiguqQ51B89LkPCuT5oLuZy8n2uEqBAQXTAkYCNggScrzdH4EhJKx9PiDQnDoPem66AMUwTDk2Dm5tb3Fxf47A/wDkXghrNaxHrmydSFYIfnCnEEAd8k7GkR/myoObxOedYTyr+np7ksz5I2udUeizAvQ9QPJXuzZfE+oCIwuaic4wheAQfMI5yZliPRcpQV2RJEeZUXvL99wa5k8hPXnQKk4u9voRFn+OBYJwY/TCgbXsc2g6HtkPb9RidQ1lUPgKXGKGSAor3MOEQB+BSKeZs7r4yL02++fXnmBz7eqt4NscLBfcomCGAc3icslT/XBeeLd8aY1EWFaqyRmELkJ4tS0WAhTrFPKS1UvFZV1LyMRKlBA7MJhk/BLBJQhmSP/vJcMb3hcZQPQHtamKgSnwNgxfMDshHXDMkQdYg0Zy6ocP+sMfd3S3ubm7QNQ2IGYVGbsOZcZg3RihXTpY5CgV+vKqT0uCsNVloUsZ/Kt+5/vVYLxX7QgukOqel8fYUgHvMdUuE4KH3n5o3R6x3NiJUKjNkA4D1gxzx6oYR/ThhcIzCcjjiCLCwnnQB1sXL5+Kf7tvyHYurBHVL5CeWHtAGYD068+gjc3XeA0HboRsGTA6wodCpXsQDJvKzpEeMwz9f0zn921Mp+vFzk4mQLjJJoOTwzvH6BOH8/xTrltSZiGCNMDkBuRJEJgH6c/WYLwUpe0tfUgz2/QU23rGA0rEoZjIhRjZjlo7VY3KzRVb1qNpe81MmIWYnEXyAXTg4dKOcadztdtje3WG/3aHvughy3t35fUCnS4u2fT5NEjas48y7m4+H8e9ncCGvJV2f1pN1MZotzGeY3PdhY3PxUT+fa6unAFz63AzM6RjcskS6865MbkLXDWi7Af04YZwmcbcERKo/kzDkz3keytp/jJCEfsXSyD2BonbiMK/re2//RLDTCDIWTrfwoUpIbVTIhGCAZx56zqV0dVwawKm5QxCdks6cmxLkYKtgEpXtc7EoHc+cgEYYEIEFu0R8JC+uFqjKGlVVoyjKOKDAsmhw9IOfs830u5wpRDY3ZxxSYNJBxBTAAUAS/QwZA1E9SgA4Ftu3ANpLk0jHLcH7ETOYHGMcJZKTmBbtQrBxAmRTaoFZp4mSSRaakuNvKRugFCwDVufjIyvyA8BgzvjTCmdzlk8vxD9kSoHonMSyBI73PVffs3mlsRmiPiO/D3FxZRZbua7r0fc9hmGQeA82uupKPRgtywvH6T2BXETfqJcTfQ4zYxxld3UYB4zTiHGa4CBHqAjwXlhdWBnCOD21+lF0a/SoUs5EjPT7ue5tfk1WkGSC5JHqkysTETS7nXJwyEDY2rC7qh6BlR0dlWlhIJ+eP8tb/QwGOS+aufyOsJYGYKJY1yUMm4k1y0DHcWU3BsM0BdvJ7XYnEZ18sHFb2KCrScu0VDfoWEjY87yf53o3/S485Qmi3KlnPeBqPGTy/pDpiIE9Ic3nTAZ8p+pDeh/LqQfFgmHEOIrLfykP6ToLBJh7WCu9F39y2TLtvwviD3tj4MmJDoTj7p9jjczO2QxVZbvjM7SbI7PJ7kMEraVJd584sqRn0aDXFNFJJfQgpmWTSQETS5OIoZGJ2GmbALrpUJTix60qKxSFFf1V0qqBQC0Cc1rPWIfsPClyQNK2yu3xtLx5W4SzvbO6pc/U30+2L6LZUDcMaJoG2+0W2+0W+8NenKiOI6x3+R7FmDysZJ75THomHNV3Xu8Yicsd9blee6RzeoxYeTRsOYjK8wt+iM2DJR3y/NlPBe8lXdyRaJ8SkqPqRGnEOQ17oLurIqKRPve88LuY3kNIQiAHOoC8f39wtJMbR8/gjg7AJ23iRyjnDz/JUE7R8qW0NJDmILG0axY6U5ufk9WGI/DEEi+VZTYQkgGvAK+BXIqiQFkWKMoiCWDMmGWz1BpH7TQH9LS+OslT8eMUyz3VfulzpRrzY1HJiFcREt6I1xDcNAWQ2+13aJsWw9AHoCQfu5P9guYzO9MEx5NxCeDOss0T6fEAF2RU6FhJliJ5pk7+BUB9alqq22OefVr8Xk6LpOEEBWOXYsGIafSR+pihpD2dIpLB2dIC+AFA7kHgIEMXIvOIDRRRjDA+TpPQ02HENPpdN+9+yRgjtk+iLAk6ExVZVRcV9Uanqfc59qbvS6t7ms6dd82Y2QnUOTmgwve6IACBwPp2sNagKMRWLjgQTcsKPpoQsa7+ihMgnV5/6gjTkjujU+202DqLbX/cDuRH9OQmtG2D/d6HHRx6TG4KtnBBJxNYQgS7+WKSTQ5W1iBgmZ5JfSi4PQV0lp7rh3XMO1F5pPrAhy7Y95XrIWN/qcwnx/yCFLS0cGpfcYJOAR28uCp2chK9q+8H9MOAcRwxOYfCpk5JUx92504kye/v7uzqUaYElas1cjoz4BwwDFMIWjNOoxcRTCgp6Up3JIIleSjAIe+UUx33kNVsicnp+7nB9nhCnd2MMCV9HYXdiAcS61/GmkzsXipvXsYlJoej+8+BnH5WoD/VHufa8ly9dYEnH21rHEfs93sJPbjfyYaURgryFQhj40xzUvZXnBy6YGL2fh/QfS8xdZYiwJ275mkONM8973vdR34D6hHP4eR/zD577RNUqhuG0evlBgyjDyxv49HOsJj7m08xXWWA733jQf6KOyrOOQz9gK5VA0CNLxoDhswHcSbtzLBOfl9u/CXxZH7PfJCnA+wUVc8YKyF6kGVAzUGEcJ4X6bSZJL/YmULmDIyxsKbw76oHTBvkuA1iOQnBDi6T7CKjmQPcHOSYOQO4JRaQ6SqNOWrztC+OoYk8kxMxdOgH3N1tgxPVoR/jddDmSv9PJ2J8phiP+3s43HhUnoew/HPM53uB0FJzzJ79fUXWpXH9mBQYJXDUVveO7exBgG4rBz7n75doaBPGcfJYMAYV1tFzcZ+KRtJ72niI73OKyk4O5o7DgGkY4aYpHMplJ8r3xZrM68xS5fsY2rmBuTQAlkSFpUlwKunGg5Y5bKcvXxxWKhXvnJPPGgvDWgtr8uA1MvAewp7SxSbIeIFJpMr2ebukGwuLiuXZdUtlOWZIs75J3p1jdD6+6vX1Nba7LcZxACielomN5uuaPjubAREU52CytLgtjZ8lPWT6+YdiWUvphwC4+fMem+Z62aVnPriMDKTns7MFxjlM0yjHu4ZBVFjTBEZ5ar/i3vQOQS4FtfQbxNEWGMXs+IwsyXJ0Z9YhqnwM1/lcdBVX9iPXHivMs8kb7vTtnq7Smf4AYQItMb0sqTSVmI4kMOA3J/IyaH7pvJWg9Az2tnJEFEFO4xmc0D+dT3OQT+vkfJ7ziY4AgnOAWwK8/P0eZf7CAFGxpWvbAHL73Q7jOAnAeacEOl4W+4MgJi0nJ0LMeA7ucwY7r9cSSDwOOHKAvpfG/UDp3AL/EFb6FEBfvDbrGx37oq9wzmHyZiR934ke1rtcOmLPD6Ry7wjkljptQa7032g0cucZhdjP6XGdXE0Vc8gP6kZwTJ49Azh9D585ysFRzZP8joS9YZExL6Y5rwreU8JzYzHDI2fzUUTcKAqkTE7ObEY/ct9njc8BCOE9TzlziQPtfl0SAB+zNOZB8zkOFSfjQBffYi1u7+5wc3uL/eEA56bgeDMvwzF4LjJb5PDCyb3hqFkASQ9wZ4LjPGyyp6M0/w7QsXAG+HG/tPDQ9FBweirTO/d3ngFCR8h1BLAPHOV8vIeuR9O0aL1HIsBLEoHFpwPpfHpHIBfRZrY+BH6nZ7wd5CTQ5F8++B1ABIaGmKMg6qUMjsIQmYkqPp3UGQEhKBap81FGnED+NAaHGUmR9TGpM+KgDcpeHnxcKJPqwCjSUCB5HoIOjwAYf4wggDiLQbH1AX8KayWug/HxFxSUaJkL8OwV2gZpk6UrNGVXadklOxMig8Xrk7zCoqIMLmVZfJRfuEebB8riHPphwL5tcLfb4ubuDvumweQYxhSZXd+5CRkmmmd8uriEANS+7Rn5IUGGj/CUAvpiPkmjB/FrDll89Cll9uE+fX4K/Ass8odK30cEfozecn5fnvQ6PTojJ6DES7icdNnv5ISL8ZIMTw4jUSQMZ+sg0th7PNaVTjPOvnGITG5y8h5MQmC8jjKdySI/zav3OLEtJt0IUVGIvHx2DBC5CCuMM39SrF1aS1Jnt2H1CSA3rwPFA+5IBpIxhMIYr48zIfJYJuLPmPwC7M9K5WsfVlUPsBSvV1HZGH3lu7pxoOvztVyAetTN2SEhtlMsi8bhZBaHDYdGwtPdbXcSz6HtvGcaIzvL6WrxwH7PVRUcvLw4z+icb39oP90DAstc8Yijny6Ph9fFnjqhA3xqOqsy+B7POQVoDy5zysz8fFK/cod9g8OhwTgok7Mg+v+bu7IFx20cWJDtTv7/S9O+D4nYB+KkKFnumUyWidseWyTBq1AArzFE/U+ZXDa84tlobeAIcMyYSsE0MWjnuDbrToxQLZ5lO3HQvlt0dgah55wNsqxFAYYV6FjuXjU1nJkOaAAzobDe1B2Ynz3amCfiqxJiGEwr8uLqwQaFQQPXc9t2dYDrHaPKDA0sQx2njmxmMlseFFiaEtZhcMByrVyTUAbXA7nWt8PsdRzNVGeMuR3qqXGyX5UZ98cDp8sZ36cTjuczzrJGjiBl13JzH8p7dTDrA9DqVYATDpd8jLPmmwXzO+acu5EyKWzr7305fjeb600erckQX+1OkC3xQ872Ul+09lBI2s/XC7f7TRaAV2BTF82n4c8xuXQsR/OTWTiNk7p+1ShUhzfdUO3pzJcrGNAhOP3tN48XX7UPFmNbOqGR/Tx5wMT02hD30brZ1B7+5/pMv9YZQ4L75PY66dDcmaDlmAkiYJ38kG/MighyKkz7XazrzDr04ujSmKudehPw0zPkhoEwjlWLn2RD/uVaz/t/vUYc9gcD99quoeZo2T+4xFxswDaml5fzzYCKjBefWBJz5bAme2znnwzyxUkytO38Pp12kqfnEurJ3aSURlM7ycfMmMYJz8cTj+ejrpVjnquSjfXxf3HvKgVfGJEDSwQke17+sKOFpRPTjA1RuGAQx6aBVrP2hhKj0gbVZ9jiJhRCbPgCYL5INpWz26GcZVmRijMMLWfd7bDHbr/30zco6n/tfDRL3epDwbYB9X5H0crVdXS1XKrB5yyuprPb+a6Q+FzMpyqR2rZcCli2cZHsbnk8xB9zuQjAvTBNep+Dt4+lFZXIwkBugyvRbHopu/c6fQt1vyW0lsfWcrThV03Rrb8tydKerL0YNylifRPFwrWfjbLFa5rq0jLWWXAdv6HO1urmz4GcYIXisaIyEWFnvqadmQkEH+Sthdjzw3Q7RgRChvlgFk2DyCgRmF6TZc5n3dRoZdQyLz8jba4YL4UY5ASS/W7vEyTSLYqAG2lEkzoUTTuWdoiOBo59T9/rrGPcP+gMMm+2b9fH5UZLZTamzqkfKDje7w9czmdcLhc8Hnc5Cls3aitbVYCL+W1vBwZs0PRipap8n+IHLC7kEZTxlu9/JWwFqbW47/x5PZbfe37GwEKXVeVdbP2s71+N5EcV5ZJFEcOPQW5rpUVwsAUP0TwQh+JurzOHu3Cqh0ZuGVbLouY0WhLPMkKZywAa5kzNGZubih439/m+eZPrIT7TZTa9CuuM1aoIBOSEyfkssNd0bpJcbxHY0lNJRv9O/S56KgRzEZOZ0jOuSVWGAj+iWutj3VxksAE3F8b9XjflX85nPB9PYcmoAB336y6w6p4fdpZnADhlt6EmEXhFKEebWJ20IGS615ppa0DWmqK/Cm5b4i+N1bYPax/ogVsvjU9M3xha0qP1MI4TXuNYj1vSllpJvrVkVJT50vQtQi2g85L4VgxBPBaaxAzQQPVylv0B+4MM4J2cUmKV3Zch+zR6fo75v6PF6e1BjnUKbi2lQRcjUlgE+k5nX+yMGUkt3WG3k5evE8vmdY5WXy3wZ9COssSXbq2pr+VtXkvxbTse+u3jacW6rZM/pRTcrjccv79xPp/xfD7ERI75ZlbYVtxS3XZl4CxDz+26oI6STRLN9jbPpdC6M/7N8AlQxTgx7poJ/Q44m289j/AXhLRqQM3VItdb+qxcm0pIIzlwavhtdzx8qoUU8Ij0mr0DDodDPU5o2AFDPHXAWcomIEPWjKUUc3XGI61rxYWjm0zLh8XJ8hNJBatfakvDr4X2GeZZG8oPzkDjQljqRG7GbC9XYR3LjC6CnN/DoGxtcMbVPF/fGSQLEHUBcLvRP2dahSb4mXzTNOF6veL7+xuns1w9qFre6g7Wg+dde16mLSH5KGUBMEndL1dqZql1HP4aE+vJFd9/EjYp14U4vX7es1zW5Hun/LPrRN0h9Wy5+goyU3iltABtgTa73+aTy9RbM2yCjGJz/osf57A/4OvrL3x9feFw2GO334GxPl28BjBxw7mBLztYZlOno8Hd+daUY72jrZkn3Wc1uXCseDZAYX6nYai+S1vtH+p6qbo1n2Qei+Ot4vv8FBM3UyvQqSTmK23M8zgRESTusLZ+XbXpja8XLpcz/vn+xvl0xuv5rEDfmNvZ3FN4Wa/3HpOr7UA2QaP1NJ9Jf9em0r9UkZic7xRPli3WTSxrfP9J+Am4tafRtOGncjl7k3rVDhze6/auMTC5ksds+LsU9NcfgVw75WvCJ41RBY6nf9tHrncsKpB9Hb7w919/46+vv7A/HLDb7zGVbE7WzrI+WDTf1vFJoRObiWGDvwpERHWGrxlMjdHVBUcO/+lVeUshlYHjB18zlH+vD/m2rsHPkpO845qlWX5aKSE7616CkIw86HXPrCsr7fCDLMj18g9ycGXStl7YBLIzBt74spjrfR/n8wXf//yD0/mE1+tlTFYDCftORV6kwvP6SCCnMVTRSX2oaMxLxup76NsCjVB5gmwxvsrcU4K/EtZ8yFHZxfbT5z/xvXWB21wOHLBErjgoBYUnjJMftzS+Rjs1XC2b+VaATt6Sy49AjtNw2fp7bPLgcKa6NOLw5T65WokiYmBZqrWXlFLFJ/f3cM8ys208RTr3CmMkyL0Fc0jXrk8KTsgseksHdzNM1/GlGjLwqfhbD81sjypH6EQzE7j5XWql5mfA576pEgc/N23YVJGadVAlQhOAeJQ6EnCYTCYPEoNiAFNhPJ6vCnLfR1zOV4yvCUSEHQhDqOsMAZLXAqU1EZgB1iO8ohmtogZmwZkfUk6p5uwJZw0ePr0lUKztrn1hHqjXj/+l0ILbkpkav9uSZvOFRk79XVx3YwAACPlJREFUTN1IdWa12LlyemJ460N9F1aZnAueASUJJO8QJlT/D51AGVJyFJLGco1JwLAbbMbQ8/GOQ2pni4lLYe8hPMXQKP5io5KySTWwLqTBWLVDsc5N3umJfIuhfNZkB9nPuZMb3/XCY9uUb3XTG3yxbrwcKm/c8lO3VNVz5AYb0Muhx3rr3bWo6QbWYv7JBHJVKPcHks/okn82vyfvvUyS7jDUrXJFtyaqHBxqmAaAdihMGKcJt8cTp/MVx+MZ18sNZSzYod5lMciOFIdnpJd/8LpU05MExFFKfXGRhdEA8eBAEuKH04B8l0rbTrMxrmPGhTFrosOaFOgHhihgrT8fWkSYraUvNZGUxichsus4mxpZ3LvQ8831/H995YtqghKlu3yZB3AhTBPjNdYDNCc9OJPD2G2wyeVAegfTOpOLSwEywC00dqv97fO8CVQ/xgE0mD8ESHZuV7b4WQvNqJciu5b2xoxmrEG0vPTEk8CGtGNRHSAsppABnGAwkWxJIjL5AydYNO27ZYIzhwqOAbQJDsgIfqOOJl32vwTlpMDLuXNH5SMoZ744DMFciftYAbv4W9OjQqABNc7kdRbZwTDUGWO9fvDxHHG733G+XHE+X3C/PVAmxk6PwtfFAArOAegWNbyPKL9LlSe5H5blyJ+qnue7D2PfbdPv9+v4LPNaW+TgfZ5n39tBn6idT/dyN7j349CbZGgBas1MnU+irZe5Za7qt9RezUwoU931ML7CjV1r6YbmaEXcvxMou5CiquzF6323vQn09NuBdigkjkZuIcIRPDdIBLdiz1XlrT49vWcil89MNkk/SkzhbxWE4g/WCYkpUYpYS8s1HBgzBOBYYDEOZBYfWRzWog3M3GtMi27g+cc2Tqxt9Vdy/F61kGruGFfpH/wZIqqLsEscQBATvJ4sAQwYJzl54nrD5XLF9XrH8/kCANvpoH5ZFpeE38KrA4aNjQVdZgqsHhhQZ+xiEzjvhvFEK8OqgtoGYKvRo6z6IbaTFainMOPnzKhmWb0d59kPF0OaeX5jni5NnvSCuuYykPrVCNOks/yT9P+Vy5VXxFpdJxfNwY5x8OOgA5MgZ4ep7S171MxMAjpMJZh4Df03MEjgJ0O0+W0mE/nsYStjBJOlApmiDel7Llvqy1lWZFsIaZk2U3aF1bZ9m599WgHIVc3dmDmWrlsfQcgOS5DJFFC9vORyrQzuKvtVx/EFMNtl0wpBhZGORgqCzUuZTLDaB1T7JfGaOvkzIaCcvRopWvPPGPcWEOmPlZkUCwD3DtiWTPCt7BUIBoPlFdp5KrZOsx6BjqDft5voe+skC3LN5Y0Ogk+DaHqShZ9U10Xdbjecz2e7OJhtIJPtI1QtXj978YaBqoulS7XbsuRnkqkczK9hkEM7hXI435pXbGpk5HPgrJa6rfGmiWLkqFeoE3NzpwpMYMZg0e3gPwlW//A0nE2xlWcnIFdK3ZR/PJ1wPJ5wvd1svyrtBsgmCxSKprwVqSmiMx/33bDtcFA2ru2sZwf+Z0EUWXIVYK7A65ceh1eAp/33EuhEUFoCuLU8er/3gK7rmyOFqbCqwIgGpE7qTGuVrQOec+u+G3TXejd8AMgfBQJse840FTzkFNDH8+mmREOR9aWLUdsTYrUSeqAcZ2VbENQFrroIkejzTq9LSYIgeF/7S783DDbJSgYcxjI/CJH1JKPnnQ/lQxPI6iMwY7C7DxxkdmKuAvfHA8fjEcfTEVc5WmmUPbMAEL0B6oCeFSQJEX5u2Q/V/keh3f94yCaCD/S10C3rNtnXgK6v/Ic07ma5dvxwawCXPi/0XQp/GXVJiZ7WzKH/mJ4MRVrKEwD2vYr7hG7+LHgRS5nk0oqnbcQFyXKBQStZYlHeA6pXF84bYU7Ta5HY3vU3Z3KDxcsNFpJtQHRR27Ey1k4aScYw6CzN+oWav5JgkDV0PCIb+EqS5+VuM+8DcFfbRmk7roHIEtrfDYzNsIhql9z/OuzBeOJ+v+N4/Mb38RuX2xXP8YWplGqWKiCYA2s5eHnjjLz8RvbLbAD/zj7fMqLZ9+aMYpOTB8gML9UyrspFCRCUAfbaY41R9SYceixtqx+uTXMmdQua1o+tWF4ezrtmdAdS2/6xTL3PwEd7V38v8GkzVZ/cq2ru18sW/anBs+ST0zJE9tZzmPpn/TR/xp/rmW/RvOunPct7EzNIaqhG0+guTagLVfoOcBHU8oRBKHfsOZ381/xxs7QaVr3G5CLrXKoPdUfUTfl3YXIn3O53vKYJExeXeuYiofSWytg8msxkuEn0nzC4GMxkU2Lng98fCazHwNFipNCyqd7n9tmlO3bXXm06vfzmRaWm7y70Cf0TrC43VZf76Vof/mAx8EYD+JPkEEDu8cTz9ZRTBybQEE54MBbmzMiP1o6zqusy9ju2GUErnUIHT44bNWKrnZoutSAR548JiJ3ltc++WV2znHODAVvZy1pHT2XHXKOmIiDMIrsHGVOZcL3d8H064XQ64f54mKPZ20JiRaZLztD1rykKNWsKjA1A8zRm+f8RtNfGJSwz31r4o+2/2KsWQKbH3HoMrmVz71jdJwAXfbSegL5T0z5+Mk79F/mdxh+EH51C8suB1GSolTKFLRzTKHevhhXO5iDneQNpYPsts7xu9qmd+o3WlZnCP5p4v8XcEWwLsGsaLJt9jdHJkbFtzCqAw6dhlcV2nuEkLVvV6SPTJCB3POJ4PuPxfJjbIrPWwN7030GUWAcscnEp6bawnvz/WQhtMFO93onzD9TrsR9k2QE4DfkWNMluhcW9Cx/Hi/2CgnXCzSMfVsA+mkL/dlBNSwTQANsyNU0F4zRikhuzp2nCjqiuTB922SwTFtf3NUVau1a5vlykvtwB3TITfb6+iXkVaHT92hmdaTQ4b9lWuezO1EjTLX8S80YTD2jopVrMK0CMAZwrhmyqtGXpgVr7Xbt/tjeYajxt/wraDGCcRlxvV3wf/eQREGSPrh9IkJaLLAA0xfYpsh9SXr8yYP9IaAyRuOtAzdmszH6mpFqAW6qXtbpacg39qF5bayWZpkHzY7nEa0r+f1b0XN++aPt2AAAAAElFTkSuQmCC;whiteSpace=wrap;html=1;rounded=1;glass=0;treeFolding=1;treeMoving=1;sketch=1;jiggle=2;curveFitting=1;strokeColor=#d6b656;align=left;verticalAlign=middle;spacingLeft=52;spacing=2;fontFamily=Helvetica;fontSize=12;fontColor=default;fontStyle=1;fillColor=#fff2cc;clipPath=inset(10.94% 10.94% 10.94% 10.94% round 50%);aspect=fixed;" parent="1" vertex="1">
            <mxGeometry x="390" y="140" width="180" height="80" as="geometry" />
          </mxCell>
        </UserObject>
        <UserObject label="&lt;div&gt;&lt;br&gt;&lt;/div&gt;&lt;div&gt;&lt;span style=&quot;background-color: initial;&quot;&gt;%name%&lt;/span&gt;&lt;br&gt;&lt;/div&gt;&lt;i style=&quot;color: gray&quot;&gt;%position%&lt;/i&gt;&lt;div&gt;&lt;br/&gt;&lt;/div&gt;" name="Edward Morrison" position="Project Engineer" location="Office 2" email="me@example.com" placeholders="1" id="hO0VnFw-Ybn5bK7w-t2M-3">
          <mxCell style="label;image=https://cdn3.iconfinder.com/data/icons/user-avatars-1/512/users-10-3-128.png;whiteSpace=wrap;html=1;rounded=1;glass=0;treeFolding=1;treeMoving=1;sketch=1;jiggle=2;curveFitting=1;strokeColor=#d6b656;align=left;verticalAlign=middle;spacingLeft=52;spacing=2;fontFamily=Helvetica;fontSize=12;fontColor=default;fontStyle=1;fillColor=#fff2cc;clipPath=inset(10.94% 10.94% 10.94% 10.94% round 50%);aspect=fixed;" parent="1" vertex="1">
            <mxGeometry x="960" y="390" width="180" height="80" as="geometry" />
          </mxCell>
        </UserObject>
        <UserObject label="&lt;div&gt;&lt;br&gt;&lt;/div&gt;&lt;div&gt;&lt;span style=&quot;background-color: initial;&quot;&gt;%name%&lt;/span&gt;&lt;br&gt;&lt;/div&gt;&lt;i style=&quot;color: gray&quot;&gt;%position%&lt;/i&gt;&lt;div&gt;&lt;br/&gt;&lt;/div&gt;" name="Edward Morrison" position="Project Engineer" location="Office 2" email="me@example.com" placeholders="1" id="hO0VnFw-Ybn5bK7w-t2M-8">
          <mxCell style="label;image=https://cdn3.iconfinder.com/data/icons/user-avatars-1/512/users-10-3-128.png;whiteSpace=wrap;html=1;rounded=1;glass=0;treeFolding=1;treeMoving=1;sketch=1;jiggle=2;curveFitting=1;strokeColor=#d6b656;align=left;verticalAlign=middle;spacingLeft=52;spacing=2;fontFamily=Helvetica;fontSize=12;fontColor=default;fontStyle=1;fillColor=#fff2cc;clipPath=inset(10.94% 10.94% 10.94% 10.94% round 50%);aspect=fixed;" parent="1" vertex="1">
            <mxGeometry x="480" y="390" width="180" height="80" as="geometry" />
          </mxCell>
        </UserObject>
        <UserObject label="&lt;div&gt;&lt;br&gt;&lt;/div&gt;&lt;div&gt;&lt;span style=&quot;background-color: initial;&quot;&gt;%name%&lt;/span&gt;&lt;br&gt;&lt;/div&gt;&lt;i style=&quot;color: gray&quot;&gt;%position%&lt;/i&gt;&lt;div&gt;&lt;br/&gt;&lt;/div&gt;" name="Edward Morrison" position="Project Engineer" location="Office 2" email="me@example.com" placeholders="1" id="hO0VnFw-Ybn5bK7w-t2M-9">
          <mxCell style="label;image=https://cdn3.iconfinder.com/data/icons/user-avatars-1/512/users-10-3-128.png;whiteSpace=wrap;html=1;rounded=1;glass=0;treeFolding=1;treeMoving=1;sketch=1;jiggle=2;curveFitting=1;strokeColor=#d6b656;align=left;verticalAlign=middle;spacingLeft=52;spacing=2;fontFamily=Helvetica;fontSize=12;fontColor=default;fontStyle=1;fillColor=#fff2cc;clipPath=inset(10.94% 10.94% 10.94% 10.94% round 50%);aspect=fixed;" parent="1" vertex="1">
            <mxGeometry x="240" y="390" width="180" height="80" as="geometry" />
          </mxCell>
        </UserObject>
        <UserObject label="&lt;div&gt;&lt;br&gt;&lt;/div&gt;&lt;div&gt;&lt;span style=&quot;background-color: initial;&quot;&gt;%name%&lt;/span&gt;&lt;br&gt;&lt;/div&gt;&lt;i style=&quot;color: gray&quot;&gt;%position%&lt;/i&gt;&lt;div&gt;&lt;br/&gt;&lt;/div&gt;" name="Edward Morrison" position="Project Engineer" location="Office 2" email="me@example.com" placeholders="1" id="hO0VnFw-Ybn5bK7w-t2M-10">
          <mxCell style="label;image=https://cdn3.iconfinder.com/data/icons/user-avatars-1/512/users-10-3-128.png;whiteSpace=wrap;html=1;rounded=1;glass=0;treeFolding=1;treeMoving=1;sketch=1;jiggle=2;curveFitting=1;strokeColor=#d6b656;align=left;verticalAlign=middle;spacingLeft=52;spacing=2;fontFamily=Helvetica;fontSize=12;fontColor=default;fontStyle=1;fillColor=#fff2cc;clipPath=inset(10.94% 10.94% 10.94% 10.94% round 50%);aspect=fixed;" parent="1" vertex="1">
            <mxGeometry x="240" y="270" width="180" height="80" as="geometry" />
          </mxCell>
        </UserObject>
        <UserObject label="&lt;div&gt;&lt;br&gt;&lt;/div&gt;&lt;div&gt;&lt;span style=&quot;background-color: initial;&quot;&gt;%name%&lt;/span&gt;&lt;br&gt;&lt;/div&gt;&lt;i style=&quot;color: gray&quot;&gt;%position%&lt;/i&gt;&lt;div&gt;&lt;br/&gt;&lt;/div&gt;" name="Edward Morrison" position="Project Engineer" location="Office 2" email="me@example.com" placeholders="1" id="hO0VnFw-Ybn5bK7w-t2M-11">
          <mxCell style="label;image=https://cdn3.iconfinder.com/data/icons/user-avatars-1/512/users-10-3-128.png;whiteSpace=wrap;html=1;rounded=1;glass=0;treeFolding=1;treeMoving=1;sketch=1;jiggle=2;curveFitting=1;strokeColor=#d6b656;align=left;verticalAlign=middle;spacingLeft=52;spacing=2;fontFamily=Helvetica;fontSize=12;fontColor=default;fontStyle=1;fillColor=#fff2cc;clipPath=inset(10.94% 10.94% 10.94% 10.94% round 50%);aspect=fixed;" parent="1" vertex="1">
            <mxGeometry x="480" y="270" width="180" height="80" as="geometry" />
          </mxCell>
        </UserObject>
        <UserObject label="&lt;div&gt;&lt;br&gt;&lt;/div&gt;&lt;div&gt;&lt;span style=&quot;background-color: initial;&quot;&gt;%name%&lt;/span&gt;&lt;br&gt;&lt;/div&gt;&lt;i style=&quot;color: gray&quot;&gt;%position%&lt;/i&gt;&lt;div&gt;&lt;br/&gt;&lt;/div&gt;" name="Edward Morrison" position="Project Engineer" location="Office 2" email="me@example.com" placeholders="1" id="hO0VnFw-Ybn5bK7w-t2M-12">
          <mxCell style="label;image=https://cdn3.iconfinder.com/data/icons/user-avatars-1/512/users-10-3-128.png;whiteSpace=wrap;html=1;rounded=1;glass=0;treeFolding=1;treeMoving=1;sketch=1;jiggle=2;curveFitting=1;strokeColor=#d6b656;align=left;verticalAlign=middle;spacingLeft=52;spacing=2;fontFamily=Helvetica;fontSize=12;fontColor=default;fontStyle=1;fillColor=#fff2cc;clipPath=inset(10.94% 10.94% 10.94% 10.94% round 50%);aspect=fixed;" parent="1" vertex="1">
            <mxGeometry x="720" y="270" width="180" height="80" as="geometry" />
          </mxCell>
        </UserObject>
        <UserObject label="&lt;div&gt;&lt;br&gt;&lt;/div&gt;&lt;div&gt;&lt;span style=&quot;background-color: initial;&quot;&gt;%name%&lt;/span&gt;&lt;br&gt;&lt;/div&gt;&lt;i style=&quot;color: gray&quot;&gt;%position%&lt;/i&gt;&lt;div&gt;&lt;br/&gt;&lt;/div&gt;" name="Edward Morrison" position="Project Engineer" location="Office 2" email="me@example.com" placeholders="1" id="hO0VnFw-Ybn5bK7w-t2M-13">
          <mxCell style="label;image=https://cdn3.iconfinder.com/data/icons/user-avatars-1/512/users-10-3-128.png;whiteSpace=wrap;html=1;rounded=1;glass=0;treeFolding=1;treeMoving=1;sketch=1;jiggle=2;curveFitting=1;strokeColor=#d6b656;align=left;verticalAlign=middle;spacingLeft=52;spacing=2;fontFamily=Helvetica;fontSize=12;fontColor=default;fontStyle=1;fillColor=#fff2cc;clipPath=inset(10.94% 10.94% 10.94% 10.94% round 50%);aspect=fixed;" parent="1" vertex="1">
            <mxGeometry x="960" y="270" width="180" height="80" as="geometry" />
          </mxCell>
        </UserObject>
        <UserObject label="&lt;div&gt;&lt;br&gt;&lt;/div&gt;&lt;div&gt;&lt;span style=&quot;background-color: initial;&quot;&gt;%name%&lt;/span&gt;&lt;br&gt;&lt;/div&gt;&lt;i style=&quot;color: gray&quot;&gt;%position%&lt;/i&gt;&lt;div&gt;&lt;br/&gt;&lt;/div&gt;" name="Edward Morrison" position="Project Engineer" location="Office 2" email="me@example.com" placeholders="1" id="hO0VnFw-Ybn5bK7w-t2M-14">
          <mxCell style="label;image=https://cdn3.iconfinder.com/data/icons/user-avatars-1/512/users-10-3-128.png;whiteSpace=wrap;html=1;rounded=1;glass=0;treeFolding=1;treeMoving=1;sketch=1;jiggle=2;curveFitting=1;strokeColor=#d6b656;align=left;verticalAlign=middle;spacingLeft=52;spacing=2;fontFamily=Helvetica;fontSize=12;fontColor=default;fontStyle=1;fillColor=#fff2cc;clipPath=inset(10.94% 10.94% 10.94% 10.94% round 50%);aspect=fixed;" parent="1" vertex="1">
            <mxGeometry x="720" y="390" width="180" height="80" as="geometry" />
          </mxCell>
        </UserObject>
        <UserObject label="&lt;div&gt;&lt;br&gt;&lt;/div&gt;&lt;div&gt;&lt;span style=&quot;background-color: initial;&quot;&gt;%name%&lt;/span&gt;&lt;br&gt;&lt;/div&gt;&lt;i style=&quot;color: gray&quot;&gt;%position%&lt;/i&gt;&lt;div&gt;&lt;br/&gt;&lt;/div&gt;" name="Edward Morrison" position="Project Engineer" location="Office 2" email="me@example.com" placeholders="1" id="yN8fRH0Ar1nkc8RyGndk-1">
          <mxCell style="label;image=https://cdn3.iconfinder.com/data/icons/user-avatars-1/512/users-10-3-128.png;whiteSpace=wrap;html=1;rounded=1;glass=0;treeFolding=1;treeMoving=1;sketch=1;jiggle=2;curveFitting=1;strokeColor=#d6b656;align=left;verticalAlign=middle;spacingLeft=52;spacing=2;fontFamily=Helvetica;fontSize=12;fontColor=default;fontStyle=1;fillColor=#fff2cc;clipPath=inset(10.94% 10.94% 10.94% 10.94% round 50%);aspect=fixed;" parent="1" vertex="1">
            <mxGeometry x="291" y="580" width="180" height="80" as="geometry" />
          </mxCell>
        </UserObject>
        <UserObject label="&lt;div&gt;&lt;br&gt;&lt;/div&gt;&lt;div&gt;&lt;span style=&quot;background-color: initial;&quot;&gt;%name%&lt;/span&gt;&lt;br&gt;&lt;/div&gt;&lt;i style=&quot;color: gray&quot;&gt;%position%&lt;/i&gt;&lt;div&gt;&lt;br/&gt;&lt;/div&gt;" name="Edward Morrison" position="Project Engineer" location="Office 2" email="me@example.com" placeholders="1" id="yN8fRH0Ar1nkc8RyGndk-2">
          <mxCell style="label;image=https://cdn3.iconfinder.com/data/icons/user-avatars-1/512/users-10-3-128.png;whiteSpace=wrap;html=1;rounded=1;glass=0;treeFolding=1;treeMoving=1;sketch=1;jiggle=2;curveFitting=1;strokeColor=#d6b656;align=left;verticalAlign=middle;spacingLeft=52;spacing=2;fontFamily=Helvetica;fontSize=12;fontColor=default;fontStyle=1;fillColor=#fff2cc;clipPath=inset(10.94% 10.94% 10.94% 10.94% round 50%);aspect=fixed;" parent="1" vertex="1">
            <mxGeometry x="514" y="580" width="180" height="80" as="geometry" />
          </mxCell>
        </UserObject>
        <UserObject label="&lt;div&gt;&lt;br&gt;&lt;/div&gt;&lt;div&gt;&lt;span style=&quot;background-color: initial;&quot;&gt;%name%&lt;/span&gt;&lt;br&gt;&lt;/div&gt;&lt;i style=&quot;color: gray&quot;&gt;%position%&lt;/i&gt;&lt;div&gt;&lt;br/&gt;&lt;/div&gt;" name="Edward Morrison" position="Project Engineer" location="Office 2" email="me@example.com" placeholders="1" id="yN8fRH0Ar1nkc8RyGndk-3">
          <mxCell style="label;image=https://cdn3.iconfinder.com/data/icons/user-avatars-1/512/users-10-3-128.png;whiteSpace=wrap;html=1;rounded=1;glass=0;treeFolding=1;treeMoving=1;sketch=1;jiggle=2;curveFitting=1;strokeColor=#d6b656;align=left;verticalAlign=middle;spacingLeft=52;spacing=2;fontFamily=Helvetica;fontSize=12;fontColor=default;fontStyle=1;fillColor=#fff2cc;clipPath=inset(10.94% 10.94% 10.94% 10.94% round 50%);aspect=fixed;" parent="1" vertex="1">
            <mxGeometry x="737" y="580" width="180" height="80" as="geometry" />
          </mxCell>
        </UserObject>
        <UserObject label="&lt;div&gt;&lt;br&gt;&lt;/div&gt;&lt;div&gt;&lt;span style=&quot;background-color: initial;&quot;&gt;%name%&lt;/span&gt;&lt;br&gt;&lt;/div&gt;&lt;i style=&quot;color: gray&quot;&gt;%position%&lt;/i&gt;&lt;div&gt;&lt;br/&gt;&lt;/div&gt;" name="Edward Morrison" position="Project Engineer" location="Office 2" email="me@example.com" placeholders="1" id="yN8fRH0Ar1nkc8RyGndk-4">
          <mxCell style="label;image=https://cdn3.iconfinder.com/data/icons/user-avatars-1/512/users-10-3-128.png;whiteSpace=wrap;html=1;rounded=1;glass=0;treeFolding=1;treeMoving=1;sketch=1;jiggle=2;curveFitting=1;strokeColor=#d6b656;align=left;verticalAlign=middle;spacingLeft=52;spacing=2;fontFamily=Helvetica;fontSize=12;fontColor=default;fontStyle=1;fillColor=#fff2cc;clipPath=inset(10.94% 10.94% 10.94% 10.94% round 50%);aspect=fixed;" parent="1" vertex="1">
            <mxGeometry x="960" y="580" width="180" height="80" as="geometry" />
          </mxCell>
        </UserObject>
      </root>
    </mxGraphModel>
  </diagram>
  <diagram id="7ZLol1cpz5ZlgMWTXOit" name="AN_ProjectExecution">
    <mxGraphModel dx="1434" dy="746" grid="1" gridSize="10" guides="1" tooltips="1" connect="1" arrows="1" fold="1" page="1" pageScale="1" pageWidth="1169" pageHeight="827" math="0" shadow="0">
      <root>
        <mxCell id="0" />
        <mxCell id="1" parent="0" />
      </root>
    </mxGraphModel>
  </diagram>
  <diagram id="PmPO_MrJQ1OBFToUxRDO" name="AN_Sales">
    <mxGraphModel dx="5736" dy="2984" grid="1" gridSize="10" guides="1" tooltips="1" connect="1" arrows="1" fold="1" page="1" pageScale="1" pageWidth="1169" pageHeight="827" math="0" shadow="0">
      <root>
        <mxCell id="0" />
        <mxCell id="1" parent="0" />
        <mxCell id="dTk26U2boHe63dfVUpC7-1" value="AN resources in BBAN Sales" style="swimlane;html=1;startSize=20;horizontal=1;containerType=tree;glass=0;rounded=1;" vertex="1" parent="1">
          <mxGeometry x="4" y="9" width="1616" height="1150" as="geometry" />
        </mxCell>
        <UserObject label="&lt;div&gt;&lt;br&gt;&lt;/div&gt;&lt;div&gt;&lt;span style=&quot;background-color: initial;&quot;&gt;%name%&lt;/span&gt;&lt;br&gt;&lt;/div&gt;&lt;i style=&quot;color: gray&quot;&gt;%position%&lt;/i&gt;&lt;div&gt;&lt;br/&gt;&lt;/div&gt;" name="Mridu Mohanty" position="National Manager Sales (AN)" location="Office 2" email="me@example.com" placeholders="1" id="dTk26U2boHe63dfVUpC7-2">
          <mxCell style="label;image=https://cdn3.iconfinder.com/data/icons/user-avatars-1/512/users-10-3-128.png;whiteSpace=wrap;html=1;rounded=1;glass=0;treeFolding=1;treeMoving=1;sketch=1;jiggle=2;curveFitting=1;strokeColor=#d6b656;align=left;verticalAlign=middle;spacingLeft=52;spacing=2;fontFamily=Helvetica;fontSize=12;fontColor=default;fontStyle=1;fillColor=#fff2cc;clipPath=inset(10.94% 10.94% 10.94% 10.94% round 50%);aspect=fixed;" vertex="1" parent="dTk26U2boHe63dfVUpC7-1">
            <mxGeometry x="753" y="291" width="180" height="80" as="geometry" />
          </mxCell>
        </UserObject>
        <mxCell id="dTk26U2boHe63dfVUpC7-3" value="" style="edgeStyle=orthogonalEdgeStyle;shape=connector;rounded=1;sketch=1;jiggle=2;curveFitting=1;orthogonalLoop=1;jettySize=auto;html=1;strokeColor=#d2b75b;exitX=0.5;exitY=1;exitDx=0;exitDy=0;" edge="1" parent="dTk26U2boHe63dfVUpC7-1" source="dTk26U2boHe63dfVUpC7-2" target="dTk26U2boHe63dfVUpC7-4">
          <mxGeometry relative="1" as="geometry">
            <mxPoint x="870" y="460" as="sourcePoint" />
          </mxGeometry>
        </mxCell>
        <UserObject label="&lt;div&gt;&lt;br&gt;&lt;/div&gt;&lt;div&gt;&lt;span style=&quot;background-color: initial;&quot;&gt;%name%&lt;/span&gt;&lt;br&gt;&lt;/div&gt;&lt;i style=&quot;color: gray&quot;&gt;%position%&lt;/i&gt;&lt;div&gt;&lt;br/&gt;&lt;/div&gt;" name="Sathish G" position="Team Leader Sales (Feed)" location="Office 2" email="me@example.com" placeholders="1" id="dTk26U2boHe63dfVUpC7-4">
          <mxCell style="label;image=https://cdn3.iconfinder.com/data/icons/user-avatars-1/512/users-10-3-128.png;whiteSpace=wrap;html=1;rounded=1;glass=0;treeFolding=1;treeMoving=1;sketch=1;jiggle=2;curveFitting=1;strokeColor=#d6b656;align=left;verticalAlign=middle;spacingLeft=52;spacing=2;fontFamily=Helvetica;fontSize=12;fontColor=default;fontStyle=1;fillColor=#fff2cc;clipPath=inset(10.94% 10.94% 10.94% 10.94% round 50%);aspect=fixed;" vertex="1" parent="dTk26U2boHe63dfVUpC7-1">
            <mxGeometry x="546" y="771" width="180" height="80" as="geometry" />
          </mxCell>
        </UserObject>
        <mxCell id="dTk26U2boHe63dfVUpC7-5" value="" style="edgeStyle=orthogonalEdgeStyle;shape=connector;rounded=1;sketch=1;jiggle=2;curveFitting=1;orthogonalLoop=1;jettySize=auto;html=1;strokeColor=#d2b75b;align=center;verticalAlign=middle;fontFamily=Helvetica;fontSize=11;fontColor=default;labelBackgroundColor=default;endArrow=classic;" edge="1" parent="dTk26U2boHe63dfVUpC7-1" source="dTk26U2boHe63dfVUpC7-2" target="dTk26U2boHe63dfVUpC7-6">
          <mxGeometry relative="1" as="geometry" />
        </mxCell>
        <UserObject label="&lt;div&gt;&lt;br&gt;&lt;/div&gt;&lt;div&gt;&lt;span style=&quot;background-color: initial;&quot;&gt;%name%&lt;/span&gt;&lt;br&gt;&lt;/div&gt;&lt;i style=&quot;color: gray&quot;&gt;%position%&lt;/i&gt;&lt;div&gt;&lt;br/&gt;&lt;/div&gt;" name="Amritesh Thakur" position="Senior Engineer Technology (Feed)" location="Office 2" email="me@example.com" placeholders="1" id="dTk26U2boHe63dfVUpC7-6">
          <mxCell style="label;image=https://cdn3.iconfinder.com/data/icons/user-avatars-1/512/users-10-3-128.png;whiteSpace=wrap;html=1;rounded=1;glass=0;treeFolding=1;treeMoving=1;sketch=1;jiggle=2;curveFitting=1;strokeColor=#d6b656;align=left;verticalAlign=middle;spacingLeft=52;spacing=2;fontFamily=Helvetica;fontSize=12;fontColor=default;fontStyle=1;fillColor=#fff2cc;clipPath=inset(10.94% 10.94% 10.94% 10.94% round 50%);aspect=fixed;" vertex="1" parent="dTk26U2boHe63dfVUpC7-1">
            <mxGeometry x="766" y="621" width="180" height="80" as="geometry" />
          </mxCell>
        </UserObject>
        <mxCell id="dTk26U2boHe63dfVUpC7-7" value="" style="edgeStyle=orthogonalEdgeStyle;shape=connector;rounded=1;sketch=1;jiggle=2;curveFitting=1;orthogonalLoop=1;jettySize=auto;html=1;strokeColor=#d2b75b;align=center;verticalAlign=middle;fontFamily=Helvetica;fontSize=11;fontColor=default;labelBackgroundColor=default;endArrow=classic;exitX=0.5;exitY=1;exitDx=0;exitDy=0;" edge="1" parent="dTk26U2boHe63dfVUpC7-1" source="dTk26U2boHe63dfVUpC7-2" target="dTk26U2boHe63dfVUpC7-8">
          <mxGeometry relative="1" as="geometry">
            <mxPoint x="870" y="460" as="sourcePoint" />
          </mxGeometry>
        </mxCell>
        <UserObject label="&lt;div&gt;&lt;br&gt;&lt;/div&gt;&lt;div&gt;&lt;span style=&quot;background-color: initial;&quot;&gt;%name%&lt;/span&gt;&lt;br&gt;&lt;/div&gt;&lt;i style=&quot;color: gray&quot;&gt;%position%&lt;/i&gt;&lt;div&gt;&lt;br/&gt;&lt;/div&gt;" name="Paresh Mishra" position="Deputy Manager Feed Technology" location="Office 2" email="me@example.com" placeholders="1" id="dTk26U2boHe63dfVUpC7-8">
          <mxCell style="label;image=https://cdn3.iconfinder.com/data/icons/user-avatars-1/512/users-10-3-128.png;whiteSpace=wrap;html=1;rounded=1;glass=0;treeFolding=1;treeMoving=1;sketch=1;jiggle=2;curveFitting=1;strokeColor=#d6b656;align=left;verticalAlign=middle;spacingLeft=52;spacing=2;fontFamily=Helvetica;fontSize=12;fontColor=default;fontStyle=1;fillColor=#fff2cc;clipPath=inset(10.94% 10.94% 10.94% 10.94% round 50%);aspect=fixed;" vertex="1" parent="dTk26U2boHe63dfVUpC7-1">
            <mxGeometry x="956" y="621" width="180" height="80" as="geometry" />
          </mxCell>
        </UserObject>
        <mxCell id="dTk26U2boHe63dfVUpC7-9" value="" style="edgeStyle=orthogonalEdgeStyle;shape=connector;rounded=1;sketch=1;jiggle=2;curveFitting=1;orthogonalLoop=1;jettySize=auto;html=1;strokeColor=#d2b75b;align=center;verticalAlign=middle;fontFamily=Helvetica;fontSize=11;fontColor=default;labelBackgroundColor=default;endArrow=classic;exitX=0.5;exitY=1;exitDx=0;exitDy=0;" edge="1" parent="dTk26U2boHe63dfVUpC7-1" source="dTk26U2boHe63dfVUpC7-2" target="dTk26U2boHe63dfVUpC7-10">
          <mxGeometry relative="1" as="geometry">
            <mxPoint x="960" y="420" as="sourcePoint" />
          </mxGeometry>
        </mxCell>
        <UserObject label="&lt;div&gt;&lt;br&gt;&lt;/div&gt;&lt;div&gt;&lt;span style=&quot;background-color: initial;&quot;&gt;%name%&lt;/span&gt;&lt;br&gt;&lt;/div&gt;&lt;i style=&quot;color: gray&quot;&gt;%position%&lt;/i&gt;&lt;div&gt;&lt;br/&gt;&lt;/div&gt;" name="Piyush Chawla" position="Engineer Technology (Feed)" location="Office 2" email="me@example.com" placeholders="1" id="dTk26U2boHe63dfVUpC7-10">
          <mxCell style="label;image=https://cdn3.iconfinder.com/data/icons/user-avatars-1/512/users-10-3-128.png;whiteSpace=wrap;html=1;rounded=1;glass=0;treeFolding=1;treeMoving=1;sketch=1;jiggle=2;curveFitting=1;strokeColor=#d6b656;align=left;verticalAlign=middle;spacingLeft=52;spacing=2;fontFamily=Helvetica;fontSize=12;fontColor=default;fontStyle=1;fillColor=#fff2cc;clipPath=inset(10.94% 10.94% 10.94% 10.94% round 50%);aspect=fixed;" vertex="1" parent="dTk26U2boHe63dfVUpC7-1">
            <mxGeometry x="1146" y="621" width="180" height="80" as="geometry" />
          </mxCell>
        </UserObject>
        <mxCell id="dTk26U2boHe63dfVUpC7-11" value="" style="edgeStyle=orthogonalEdgeStyle;shape=connector;rounded=1;sketch=1;jiggle=2;curveFitting=1;orthogonalLoop=1;jettySize=auto;html=1;strokeColor=#d2b75b;exitX=0.5;exitY=1;exitDx=0;exitDy=0;" edge="1" parent="dTk26U2boHe63dfVUpC7-1" source="dTk26U2boHe63dfVUpC7-2" target="dTk26U2boHe63dfVUpC7-12">
          <mxGeometry relative="1" as="geometry">
            <mxPoint x="780" y="420" as="sourcePoint" />
          </mxGeometry>
        </mxCell>
        <UserObject label="&lt;div&gt;&lt;br&gt;&lt;/div&gt;&lt;div&gt;&lt;span style=&quot;background-color: initial;&quot;&gt;%name%&lt;/span&gt;&lt;br&gt;&lt;/div&gt;&lt;i style=&quot;color: gray&quot;&gt;%position%&lt;/i&gt;&lt;div&gt;&lt;br/&gt;&lt;/div&gt;" name="Kumar Sudhanshu" position="Team Leader Sales" location="Office 2" email="me@example.com" placeholders="1" id="dTk26U2boHe63dfVUpC7-12">
          <mxCell style="label;image=https://cdn3.iconfinder.com/data/icons/user-avatars-1/512/users-10-3-128.png;whiteSpace=wrap;html=1;rounded=1;glass=0;treeFolding=1;treeMoving=1;sketch=1;jiggle=2;curveFitting=1;strokeColor=#d6b656;align=left;verticalAlign=middle;spacingLeft=52;spacing=2;fontFamily=Helvetica;fontSize=12;fontColor=default;fontStyle=1;fillColor=#fff2cc;clipPath=inset(10.94% 10.94% 10.94% 10.94% round 50%);aspect=fixed;" vertex="1" parent="dTk26U2boHe63dfVUpC7-1">
            <mxGeometry x="356" y="771" width="180" height="80" as="geometry" />
          </mxCell>
        </UserObject>
        <mxCell id="dTk26U2boHe63dfVUpC7-13" value="" style="edgeStyle=orthogonalEdgeStyle;shape=connector;rounded=1;sketch=1;jiggle=2;curveFitting=1;orthogonalLoop=1;jettySize=auto;html=1;strokeColor=#d2b75b;exitX=0.5;exitY=1;exitDx=0;exitDy=0;" edge="1" parent="dTk26U2boHe63dfVUpC7-1" source="dTk26U2boHe63dfVUpC7-2" target="dTk26U2boHe63dfVUpC7-14">
          <mxGeometry relative="1" as="geometry">
            <mxPoint x="847" y="380" as="sourcePoint" />
          </mxGeometry>
        </mxCell>
        <UserObject label="&lt;div&gt;&lt;br&gt;&lt;/div&gt;&lt;div&gt;&lt;span style=&quot;background-color: initial;&quot;&gt;%name%&lt;/span&gt;&lt;br&gt;&lt;/div&gt;&lt;i style=&quot;color: gray&quot;&gt;%position%&lt;/i&gt;&lt;div&gt;&lt;br/&gt;&lt;/div&gt;" name="Chandrakant Sharma" position="Senior Engineer Sales" location="Office 2" email="me@example.com" placeholders="1" id="dTk26U2boHe63dfVUpC7-14">
          <mxCell style="label;image=https://cdn3.iconfinder.com/data/icons/user-avatars-1/512/users-10-3-128.png;whiteSpace=wrap;html=1;rounded=1;glass=0;treeFolding=1;treeMoving=1;sketch=1;jiggle=2;curveFitting=1;strokeColor=#d6b656;align=left;verticalAlign=middle;spacingLeft=52;spacing=2;fontFamily=Helvetica;fontSize=12;fontColor=default;fontStyle=1;fillColor=#fff2cc;clipPath=inset(10.94% 10.94% 10.94% 10.94% round 50%);aspect=fixed;" vertex="1" parent="dTk26U2boHe63dfVUpC7-1">
            <mxGeometry x="166" y="771" width="180" height="80" as="geometry" />
          </mxCell>
        </UserObject>
        <mxCell id="dTk26U2boHe63dfVUpC7-15" value="" style="edgeStyle=orthogonalEdgeStyle;shape=connector;rounded=1;sketch=1;jiggle=2;curveFitting=1;orthogonalLoop=1;jettySize=auto;html=1;strokeColor=#d2b75b;align=center;verticalAlign=middle;fontFamily=Helvetica;fontSize=11;fontColor=default;labelBackgroundColor=default;endArrow=classic;exitX=0.5;exitY=1;exitDx=0;exitDy=0;" edge="1" parent="dTk26U2boHe63dfVUpC7-1" source="dTk26U2boHe63dfVUpC7-2" target="dTk26U2boHe63dfVUpC7-16">
          <mxGeometry relative="1" as="geometry">
            <mxPoint x="857" y="380" as="sourcePoint" />
          </mxGeometry>
        </mxCell>
        <UserObject label="&lt;div&gt;&lt;br&gt;&lt;/div&gt;&lt;div&gt;&lt;span style=&quot;background-color: initial;&quot;&gt;%name%&lt;/span&gt;&lt;br&gt;&lt;/div&gt;&lt;i style=&quot;color: gray&quot;&gt;%position%&lt;/i&gt;&lt;div&gt;&lt;br/&gt;&lt;/div&gt;" name="Vacant" position="Aqua Technology" location="Office 2" email="me@example.com" placeholders="1" id="dTk26U2boHe63dfVUpC7-16">
          <mxCell style="label;image=https://cdn3.iconfinder.com/data/icons/user-avatars-1/512/users-10-3-128.png;whiteSpace=wrap;html=1;rounded=1;glass=0;treeFolding=1;treeMoving=1;sketch=1;jiggle=2;curveFitting=1;strokeColor=#d6b656;align=left;verticalAlign=middle;spacingLeft=52;spacing=2;fontFamily=Helvetica;fontSize=12;fontColor=default;fontStyle=1;fillColor=#fff2cc;clipPath=inset(10.94% 10.94% 10.94% 10.94% round 50%);aspect=fixed;" vertex="1" parent="dTk26U2boHe63dfVUpC7-1">
            <mxGeometry x="1336" y="621" width="180" height="80" as="geometry" />
          </mxCell>
        </UserObject>
        <mxCell id="dTk26U2boHe63dfVUpC7-17" style="edgeStyle=orthogonalEdgeStyle;shape=connector;rounded=1;sketch=1;jiggle=2;curveFitting=1;orthogonalLoop=1;jettySize=auto;html=1;exitX=0.5;exitY=1;exitDx=0;exitDy=0;entryX=0.5;entryY=0;entryDx=0;entryDy=0;strokeColor=#d2b75b;align=center;verticalAlign=middle;fontFamily=Helvetica;fontSize=11;fontColor=default;labelBackgroundColor=default;endArrow=classic;" edge="1" parent="dTk26U2boHe63dfVUpC7-1" source="dTk26U2boHe63dfVUpC7-18" target="dTk26U2boHe63dfVUpC7-2">
          <mxGeometry relative="1" as="geometry" />
        </mxCell>
        <UserObject label="&lt;div&gt;&lt;br&gt;&lt;/div&gt;&lt;div&gt;&lt;span style=&quot;background-color: initial;&quot;&gt;%name%&lt;/span&gt;&lt;br&gt;&lt;/div&gt;&lt;i style=&quot;color: gray&quot;&gt;%position%&lt;/i&gt;&lt;div&gt;&lt;br/&gt;&lt;/div&gt;" name="Divya Purohit" position="Head of Grains and Food" location="Office 2" email="me@example.com" placeholders="1" id="dTk26U2boHe63dfVUpC7-18">
          <mxCell style="label;image=https://cdn3.iconfinder.com/data/icons/user-avatars-1/512/users-10-3-128.png;whiteSpace=wrap;html=1;rounded=1;glass=0;treeFolding=1;treeMoving=1;sketch=1;jiggle=2;curveFitting=1;strokeColor=#d6b656;align=left;verticalAlign=middle;spacingLeft=52;spacing=2;fontFamily=Helvetica;fontSize=12;fontColor=default;fontStyle=1;fillColor=#fff2cc;clipPath=inset(10.94% 10.94% 10.94% 10.94% round 50%);aspect=fixed;" vertex="1" parent="dTk26U2boHe63dfVUpC7-1">
            <mxGeometry x="753" y="151" width="180" height="80" as="geometry" />
          </mxCell>
        </UserObject>
        <mxCell id="dTk26U2boHe63dfVUpC7-19" style="edgeStyle=orthogonalEdgeStyle;shape=connector;sketch=1;jiggle=2;curveFitting=1;orthogonalLoop=1;jettySize=auto;html=1;exitX=1;exitY=0.5;exitDx=0;exitDy=0;entryX=0.5;entryY=1;entryDx=0;entryDy=0;strokeColor=#d2b75b;align=center;verticalAlign=middle;fontFamily=Helvetica;fontSize=11;fontColor=default;labelBackgroundColor=default;endArrow=none;dashed=1;endFill=0;" edge="1" parent="dTk26U2boHe63dfVUpC7-1" source="dTk26U2boHe63dfVUpC7-20" target="dTk26U2boHe63dfVUpC7-8">
          <mxGeometry relative="1" as="geometry" />
        </mxCell>
        <UserObject label="&lt;div&gt;&lt;br&gt;&lt;/div&gt;&lt;div&gt;&lt;span style=&quot;background-color: initial;&quot;&gt;%name%&lt;/span&gt;&lt;br&gt;&lt;/div&gt;&lt;i style=&quot;color: gray&quot;&gt;%position%&lt;/i&gt;&lt;div&gt;&lt;br/&gt;&lt;/div&gt;" name="Bichara Al Khawam (BBET)" position="Technology &amp; SQ Dev&#39;t Manager" location="Office 2" email="me@example.com" placeholders="1" id="dTk26U2boHe63dfVUpC7-20">
          <mxCell style="label;image=https://cdn3.iconfinder.com/data/icons/user-avatars-1/512/users-10-3-128.png;whiteSpace=wrap;html=1;rounded=1;glass=0;treeFolding=1;treeMoving=1;sketch=1;jiggle=2;curveFitting=1;strokeColor=#d6b656;align=left;verticalAlign=middle;spacingLeft=52;spacing=2;fontFamily=Helvetica;fontSize=12;fontColor=default;fontStyle=1;fillColor=#fff2cc;" vertex="1" parent="dTk26U2boHe63dfVUpC7-1">
            <mxGeometry x="836" y="791" width="180" height="80" as="geometry" />
          </mxCell>
        </UserObject>
        <mxCell id="dTk26U2boHe63dfVUpC7-21" value="&lt;font style=&quot;font-size: 24px;&quot;&gt;AN resources in BBAN (Sales)&lt;/font&gt;" style="text;html=1;align=center;verticalAlign=middle;whiteSpace=wrap;rounded=0;" vertex="1" parent="dTk26U2boHe63dfVUpC7-1">
          <mxGeometry x="316" y="171" width="374" height="30" as="geometry" />
        </mxCell>
      </root>
    </mxGraphModel>
  </diagram>
</mxfile>
